%TF.GenerationSoftware,KiCad,Pcbnew,10.0.0*%
%TF.CreationDate,2026-04-15T13:23:26+03:00*%
%TF.ProjectId,my_left,6d795f6c-6566-4742-9e6b-696361645f70,v1.0.0*%
%TF.SameCoordinates,Original*%
%TF.FileFunction,Soldermask,Top*%
%TF.FilePolarity,Negative*%
%FSLAX46Y46*%
G04 Gerber Fmt 4.6, Leading zero omitted, Abs format (unit mm)*
G04 Created by KiCad (PCBNEW 10.0.0) date 2026-04-15 13:23:26*
%MOMM*%
%LPD*%
G01*
G04 APERTURE LIST*
G04 Aperture macros list*
%AMRotRect*
0 Rectangle, with rotation*
0 The origin of the aperture is its center*
0 $1 length*
0 $2 width*
0 $3 Rotation angle, in degrees counterclockwise*
0 Add horizontal line*
21,1,$1,$2,0,0,$3*%
G04 Aperture macros list end*
%ADD10R,1.778000X1.778000*%
%ADD11R,0.900000X1.200000*%
%ADD12C,1.905000*%
%ADD13C,1.701800*%
%ADD14C,3.000000*%
%ADD15C,3.429000*%
%ADD16R,2.600000X2.600000*%
%ADD17RotRect,2.600000X2.600000X160.000000*%
%ADD18RotRect,1.778000X1.778000X340.000000*%
%ADD19RotRect,0.900000X1.200000X340.000000*%
%ADD20RotRect,2.600000X2.600000X162.000000*%
%ADD21C,3.400000*%
%ADD22C,1.000000*%
%ADD23C,1.752600*%
%ADD24R,1.700000X1.200000*%
%ADD25O,1.700000X1.200000*%
%ADD26RotRect,1.778000X1.778000X341.500000*%
%ADD27RotRect,0.900000X1.200000X341.500000*%
%ADD28RotRect,1.778000X1.778000X342.000000*%
%ADD29RotRect,0.900000X1.200000X342.000000*%
%ADD30R,0.900000X0.900000*%
%ADD31R,0.900000X1.250000*%
G04 APERTURE END LIST*
D10*
%TO.C,D27*%
X159500000Y-47040506D03*
D11*
X161659999Y-47040507D03*
X164960001Y-47040505D03*
D12*
X167120000Y-47040506D03*
%TD*%
D13*
%TO.C,S14*%
X111809999Y-66040507D03*
D14*
X111309999Y-69790507D03*
X106309999Y-71990506D03*
X106309999Y-71990506D03*
D15*
X106309999Y-66040507D03*
D14*
X101309999Y-69790507D03*
D13*
X100809999Y-66040507D03*
D16*
X103034999Y-71990508D03*
X114585000Y-69790507D03*
%TD*%
%TO.C,*%
X189950000Y-61900000D03*
%TD*%
D10*
%TO.C,D16*%
X121499999Y-90040506D03*
D11*
X123659998Y-90040507D03*
X126960000Y-90040505D03*
D12*
X129119999Y-90040506D03*
%TD*%
D10*
%TO.C,D13*%
X102499999Y-79040505D03*
D11*
X104659998Y-79040506D03*
X107960000Y-79040504D03*
D12*
X110119999Y-79040505D03*
%TD*%
D13*
%TO.C,S31*%
X186920669Y-139842874D03*
D14*
X185168249Y-143195708D03*
X179717342Y-143552934D03*
X179717342Y-143552934D03*
D15*
X181752361Y-137961762D03*
D14*
X175771323Y-139775508D03*
D13*
X176584053Y-136080650D03*
D17*
X176639848Y-142432816D03*
X188245742Y-144315825D03*
%TD*%
D13*
%TO.C,S17*%
X130810000Y-77040506D03*
D14*
X130310000Y-80790506D03*
X125310000Y-82990505D03*
X125310000Y-82990505D03*
D15*
X125310000Y-77040506D03*
D14*
X120310000Y-80790506D03*
D13*
X119810000Y-77040506D03*
D16*
X122035000Y-82990507D03*
X133585001Y-80790506D03*
%TD*%
%TO.C,*%
X178850000Y-99900000D03*
%TD*%
D18*
%TO.C,D28*%
X180211570Y-130966040D03*
D19*
X182241306Y-131704801D03*
X185342292Y-132833467D03*
D12*
X187372028Y-133572228D03*
%TD*%
D10*
%TO.C,D5*%
X61086361Y-56885645D03*
D11*
X63246360Y-56885644D03*
X66546360Y-56885644D03*
D12*
X68706359Y-56885643D03*
%TD*%
D10*
%TO.C,D7*%
X80086362Y-108885646D03*
D11*
X82246361Y-108885645D03*
X85546361Y-108885645D03*
D12*
X87706360Y-108885644D03*
%TD*%
D13*
%TO.C,S30*%
X167458498Y-133210727D03*
D14*
X165824155Y-136622681D03*
X160389036Y-137169920D03*
X160389036Y-137169920D03*
D15*
X162227687Y-131511134D03*
D14*
X156313591Y-133532512D03*
D13*
X156996876Y-129811541D03*
D20*
X157274326Y-136157890D03*
X168938865Y-137634712D03*
%TD*%
D10*
%TO.C,D23*%
X140499998Y-41040506D03*
D11*
X142659997Y-41040507D03*
X145959999Y-41040505D03*
D12*
X148119998Y-41040506D03*
%TD*%
D21*
%TO.C,MH2*%
X140000000Y-33000000D03*
%TD*%
D10*
%TO.C,D10*%
X80086362Y-51885647D03*
D11*
X82246361Y-51885646D03*
X85546361Y-51885646D03*
D12*
X87706360Y-51885645D03*
%TD*%
D10*
%TO.C,D17*%
X121499998Y-71040506D03*
D11*
X123659997Y-71040507D03*
X126959999Y-71040505D03*
D12*
X129119998Y-71040506D03*
%TD*%
D13*
%TO.C,S2*%
X70396361Y-119885644D03*
D14*
X69896362Y-123635645D03*
X64896362Y-125835645D03*
X64896362Y-125835645D03*
D15*
X64896362Y-119885645D03*
D14*
X59896362Y-123635645D03*
D13*
X59396363Y-119885646D03*
D16*
X61621362Y-125835645D03*
X73171363Y-123635644D03*
%TD*%
D10*
%TO.C,D18*%
X121500000Y-52040507D03*
D11*
X123659999Y-52040508D03*
X126960001Y-52040506D03*
D12*
X129120000Y-52040507D03*
%TD*%
D13*
%TO.C,S7*%
X89396360Y-114885644D03*
D14*
X88896361Y-118635645D03*
X83896361Y-120835645D03*
X83896361Y-120835645D03*
D15*
X83896361Y-114885645D03*
D14*
X78896361Y-118635645D03*
D13*
X78396362Y-114885646D03*
D16*
X80621361Y-120835645D03*
X92171362Y-118635644D03*
%TD*%
D13*
%TO.C,S19*%
X130809998Y-39040507D03*
D14*
X130309998Y-42790507D03*
X125309998Y-44990506D03*
X125309998Y-44990506D03*
D15*
X125309998Y-39040507D03*
D14*
X120309998Y-42790507D03*
D13*
X119809998Y-39040507D03*
D16*
X122034998Y-44990508D03*
X133584999Y-42790507D03*
%TD*%
D10*
%TO.C,D1*%
X61086363Y-132885645D03*
D11*
X63246362Y-132885644D03*
X66546362Y-132885644D03*
D12*
X68706361Y-132885643D03*
%TD*%
D16*
%TO.C,*%
X190750000Y-103650000D03*
%TD*%
D10*
%TO.C,D20*%
X140499998Y-98040506D03*
D11*
X142659997Y-98040507D03*
X145959999Y-98040505D03*
D12*
X148119998Y-98040506D03*
%TD*%
D22*
%TO.C,T1*%
X178800002Y-55050000D03*
X181800000Y-55050000D03*
%TD*%
D10*
%TO.C,D14*%
X102499999Y-60040506D03*
D11*
X104659998Y-60040507D03*
X107960000Y-60040505D03*
D12*
X110119999Y-60040506D03*
%TD*%
D15*
%TO.C,*%
X139309998Y-124040505D03*
%TD*%
D23*
%TO.C,MCU1*%
X182800000Y-68720000D03*
X182800000Y-71260000D03*
X182800000Y-73800000D03*
X182800000Y-76340000D03*
X182800000Y-78880000D03*
X182800000Y-81420000D03*
X182800000Y-83960000D03*
X182800000Y-86500000D03*
X182800000Y-89040000D03*
X182800000Y-91580000D03*
X182800000Y-94120000D03*
X182800000Y-96660000D03*
X182800000Y-99200000D03*
X198040000Y-99200000D03*
X198040000Y-96660000D03*
X198040000Y-94120000D03*
X198040000Y-91580000D03*
X198040000Y-89040000D03*
X198040000Y-86500000D03*
X198040000Y-83960000D03*
X198040000Y-81420000D03*
X198040000Y-78880000D03*
X198040000Y-76340000D03*
X198040000Y-73800000D03*
X198040000Y-71260000D03*
X198040000Y-68730000D03*
X185340000Y-96660000D03*
X190420000Y-96660000D03*
%TD*%
D13*
%TO.C,S23*%
X149809999Y-47040507D03*
D14*
X149309999Y-50790507D03*
X144309999Y-52990506D03*
X144309999Y-52990506D03*
D15*
X144309999Y-47040507D03*
D14*
X139309999Y-50790507D03*
D13*
X138809999Y-47040507D03*
D16*
X141034999Y-52990508D03*
X152585000Y-50790507D03*
%TD*%
D13*
%TO.C,S26*%
X168810000Y-72040506D03*
D14*
X168310000Y-75790506D03*
X163310000Y-77990505D03*
X163310000Y-77990505D03*
D15*
X163310000Y-72040506D03*
D14*
X158310000Y-75790506D03*
D13*
X157810000Y-72040506D03*
D16*
X160035000Y-77990507D03*
X171585001Y-75790506D03*
%TD*%
D13*
%TO.C,S10*%
X89396361Y-57885644D03*
D14*
X88896362Y-61635645D03*
X83896362Y-63835645D03*
X83896362Y-63835645D03*
D15*
X83896362Y-57885645D03*
D14*
X78896362Y-61635645D03*
D13*
X78396363Y-57885646D03*
D16*
X80621362Y-63835645D03*
X92171363Y-61635644D03*
%TD*%
D13*
%TO.C,S28*%
X197412132Y-119670025D03*
D14*
X195777789Y-123081979D03*
X190342670Y-123629218D03*
X190342670Y-123629218D03*
D15*
X192181321Y-117970432D03*
D14*
X186267225Y-119991810D03*
D13*
X186950510Y-116270839D03*
D20*
X187227960Y-122617188D03*
X198892499Y-124094010D03*
%TD*%
D10*
%TO.C,D3*%
X61086361Y-94885647D03*
D11*
X63246360Y-94885646D03*
X66546360Y-94885646D03*
D12*
X68706359Y-94885645D03*
%TD*%
D10*
%TO.C,D24*%
X135499999Y-118040504D03*
D11*
X137659998Y-118040505D03*
X140960000Y-118040503D03*
D12*
X143119999Y-118040504D03*
%TD*%
D21*
%TO.C,MH1*%
X92400000Y-46800000D03*
%TD*%
D13*
%TO.C,S24*%
X168809999Y-110040506D03*
D14*
X168309999Y-113790506D03*
X163309999Y-115990505D03*
X163309999Y-115990505D03*
D15*
X163309999Y-110040506D03*
D14*
X158309999Y-113790506D03*
D13*
X157809999Y-110040506D03*
D16*
X160034999Y-115990507D03*
X171585000Y-113790506D03*
%TD*%
D13*
%TO.C,S9*%
X89396359Y-76885644D03*
D14*
X88896360Y-80635645D03*
X83896360Y-82835645D03*
X83896360Y-82835645D03*
D15*
X83896360Y-76885645D03*
D14*
X78896360Y-80635645D03*
D13*
X78396361Y-76885646D03*
D16*
X80621360Y-82835645D03*
X92171361Y-80635644D03*
%TD*%
%TO.C,*%
X199924185Y-104713157D03*
%TD*%
D10*
%TO.C,D6*%
X80086363Y-127885647D03*
D11*
X82246362Y-127885646D03*
X85546362Y-127885646D03*
D12*
X87706361Y-127885645D03*
%TD*%
D13*
%TO.C,S25*%
X168809999Y-91040506D03*
D14*
X168309999Y-94790506D03*
X163309999Y-96990505D03*
X163309999Y-96990505D03*
D15*
X163309999Y-91040506D03*
D14*
X158309999Y-94790506D03*
D13*
X157809999Y-91040506D03*
D16*
X160034999Y-96990507D03*
X171585000Y-94790506D03*
%TD*%
D10*
%TO.C,D24*%
X159500000Y-104040505D03*
D11*
X161659999Y-104040506D03*
X164960001Y-104040504D03*
D12*
X167120000Y-104040505D03*
%TD*%
D13*
%TO.C,S29*%
X144809998Y-124040505D03*
D14*
X144309998Y-127790505D03*
X139309998Y-129990504D03*
X139309998Y-129990504D03*
D15*
X139309998Y-124040505D03*
D14*
X134309998Y-127790505D03*
D13*
X133809998Y-124040505D03*
D16*
X136034998Y-129990506D03*
X147584999Y-127790505D03*
%TD*%
D13*
%TO.C,S20*%
X149809999Y-104040506D03*
D14*
X149309999Y-107790506D03*
X144309999Y-109990505D03*
X144309999Y-109990505D03*
D15*
X144309999Y-104040506D03*
D14*
X139309999Y-107790506D03*
D13*
X138809999Y-104040506D03*
D16*
X141034999Y-109990507D03*
X152585000Y-107790506D03*
%TD*%
D10*
%TO.C,D1*%
X61086363Y-113885646D03*
D11*
X63246362Y-113885645D03*
X66546362Y-113885645D03*
D12*
X68706361Y-113885644D03*
%TD*%
D21*
%TO.C,MH4*%
X123900000Y-119200000D03*
%TD*%
D13*
%TO.C,S22*%
X149809999Y-66040506D03*
D14*
X149309999Y-69790506D03*
X144309999Y-71990505D03*
X144309999Y-71990505D03*
D15*
X144309999Y-66040506D03*
D14*
X139309999Y-69790506D03*
D13*
X138809999Y-66040506D03*
D16*
X141034999Y-71990507D03*
X152585000Y-69790506D03*
%TD*%
D13*
%TO.C,S11*%
X111810000Y-123040506D03*
D14*
X111310000Y-126790506D03*
X106310000Y-128990505D03*
X106310000Y-128990505D03*
D15*
X106310000Y-123040506D03*
D14*
X101310000Y-126790506D03*
D13*
X100810000Y-123040506D03*
D16*
X103035000Y-128990507D03*
X114585001Y-126790506D03*
%TD*%
%TO.C,*%
X195050000Y-62750000D03*
%TD*%
D24*
%TO.C,JST1*%
X178310000Y-64040505D03*
D25*
X178309996Y-62040505D03*
%TD*%
D10*
%TO.C,D26*%
X159499999Y-66040506D03*
D11*
X161659998Y-66040507D03*
X164960000Y-66040505D03*
D12*
X167119999Y-66040506D03*
%TD*%
D13*
%TO.C,S5*%
X70396359Y-62885643D03*
D14*
X69896360Y-66635644D03*
X64896360Y-68835644D03*
X64896360Y-68835644D03*
D15*
X64896360Y-62885644D03*
D14*
X59896360Y-66635644D03*
D13*
X59396361Y-62885645D03*
D16*
X61621360Y-68835644D03*
X73171361Y-66635643D03*
%TD*%
D10*
%TO.C,D25*%
X159500000Y-85040506D03*
D11*
X161659999Y-85040507D03*
X164960001Y-85040505D03*
D12*
X167120000Y-85040506D03*
%TD*%
D13*
%TO.C,S18*%
X130809999Y-58040506D03*
D14*
X130309999Y-61790506D03*
X125309999Y-63990505D03*
X125309999Y-63990505D03*
D15*
X125309999Y-58040506D03*
D14*
X120309999Y-61790506D03*
D13*
X119809999Y-58040506D03*
D16*
X122034999Y-63990507D03*
X133585000Y-61790506D03*
%TD*%
D15*
%TO.C,*%
X106300000Y-47050000D03*
%TD*%
D16*
%TO.C,*%
X181000000Y-104950000D03*
%TD*%
D10*
%TO.C,D8*%
X80086364Y-89885647D03*
D11*
X82246363Y-89885646D03*
X85546363Y-89885646D03*
D12*
X87706362Y-89885645D03*
%TD*%
D10*
%TO.C,D22*%
X140499999Y-60040506D03*
D11*
X142659998Y-60040507D03*
X145960000Y-60040505D03*
D12*
X148119999Y-60040506D03*
%TD*%
D13*
%TO.C,S13*%
X111810000Y-85040505D03*
D14*
X111310000Y-88790505D03*
X106310000Y-90990504D03*
X106310000Y-90990504D03*
D15*
X106310000Y-85040505D03*
D14*
X101310000Y-88790505D03*
D13*
X100810000Y-85040505D03*
D16*
X103035000Y-90990506D03*
X114585001Y-88790505D03*
%TD*%
D10*
%TO.C,D15*%
X102499998Y-41040506D03*
D11*
X104659997Y-41040507D03*
X107959999Y-41040505D03*
D12*
X110119998Y-41040506D03*
%TD*%
D10*
%TO.C,D4*%
X61086363Y-75885646D03*
D11*
X63246362Y-75885645D03*
X66546362Y-75885645D03*
D12*
X68706361Y-75885644D03*
%TD*%
D13*
%TO.C,S12*%
X111809998Y-104040506D03*
D14*
X111309998Y-107790506D03*
X106309998Y-109990505D03*
X106309998Y-109990505D03*
D15*
X106309998Y-104040506D03*
D14*
X101309998Y-107790506D03*
D13*
X100809998Y-104040506D03*
D16*
X103034998Y-109990507D03*
X114584999Y-107790506D03*
%TD*%
D26*
%TO.C,D28*%
X160522772Y-124596274D03*
D27*
X162571151Y-125281650D03*
X165700621Y-126328756D03*
D12*
X167749000Y-127014132D03*
%TD*%
D13*
%TO.C,S15*%
X111809998Y-47040505D03*
D14*
X111309998Y-50790505D03*
X106309998Y-52990504D03*
X106309998Y-52990504D03*
D15*
X106309998Y-47040505D03*
D14*
X101309998Y-50790505D03*
D13*
X100809998Y-47040505D03*
D16*
X103034998Y-52990506D03*
X114584999Y-50790505D03*
%TD*%
D13*
%TO.C,S4*%
X70396362Y-81885644D03*
D14*
X69896363Y-85635645D03*
X64896363Y-87835645D03*
X64896363Y-87835645D03*
D15*
X64896363Y-81885645D03*
D14*
X59896363Y-85635645D03*
D13*
X59396364Y-81885646D03*
D16*
X61621363Y-87835645D03*
X73171364Y-85635644D03*
%TD*%
D13*
%TO.C,S6*%
X89396361Y-133885644D03*
D14*
X88896362Y-137635645D03*
X83896362Y-139835645D03*
X83896362Y-139835645D03*
D15*
X83896362Y-133885645D03*
D14*
X78896362Y-137635645D03*
D13*
X78396363Y-133885646D03*
D16*
X80621362Y-139835645D03*
X92171363Y-137635644D03*
%TD*%
D10*
%TO.C,D12*%
X102500000Y-98040507D03*
D11*
X104659999Y-98040508D03*
X107960001Y-98040506D03*
D12*
X110120000Y-98040507D03*
%TD*%
D13*
%TO.C,S3*%
X70396361Y-100885643D03*
D14*
X69896362Y-104635644D03*
X64896362Y-106835644D03*
X64896362Y-106835644D03*
D15*
X64896362Y-100885644D03*
D14*
X59896362Y-104635644D03*
D13*
X59396363Y-100885645D03*
D16*
X61621362Y-106835644D03*
X73171363Y-104635643D03*
%TD*%
D10*
%TO.C,D21*%
X140499999Y-79040506D03*
D11*
X142659998Y-79040507D03*
X145960000Y-79040505D03*
D12*
X148119999Y-79040506D03*
%TD*%
D28*
%TO.C,D28*%
X190411900Y-111086740D03*
D29*
X192466182Y-111754215D03*
X195604668Y-112773971D03*
D12*
X197658950Y-113441446D03*
%TD*%
D21*
%TO.C,MH3*%
X202650000Y-64000000D03*
%TD*%
D10*
%TO.C,D11*%
X102500000Y-117040506D03*
D11*
X104659999Y-117040507D03*
X107960001Y-117040505D03*
D12*
X110120000Y-117040506D03*
%TD*%
D10*
%TO.C,D9*%
X80086362Y-70885645D03*
D11*
X82246361Y-70885644D03*
X85546361Y-70885644D03*
D12*
X87706360Y-70885643D03*
%TD*%
D13*
%TO.C,S27*%
X168810000Y-53040506D03*
D14*
X168310000Y-56790506D03*
X163310000Y-58990505D03*
X163310000Y-58990505D03*
D15*
X163310000Y-53040506D03*
D14*
X158310000Y-56790506D03*
D13*
X157810000Y-53040506D03*
D16*
X160035000Y-58990507D03*
X171585001Y-56790506D03*
%TD*%
D10*
%TO.C,D19*%
X121499999Y-33040506D03*
D11*
X123659998Y-33040507D03*
X126960000Y-33040505D03*
D12*
X129119999Y-33040506D03*
%TD*%
D13*
%TO.C,S1*%
X70396361Y-138885644D03*
D14*
X69896362Y-142635645D03*
X64896362Y-144835645D03*
X64896362Y-144835645D03*
D15*
X64896362Y-138885645D03*
D14*
X59896362Y-142635645D03*
D13*
X59396363Y-138885646D03*
D16*
X61621362Y-144835645D03*
X73171363Y-142635644D03*
%TD*%
D13*
%TO.C,S8*%
X89396362Y-95885644D03*
D14*
X88896363Y-99635645D03*
X83896363Y-101835645D03*
X83896363Y-101835645D03*
D15*
X83896363Y-95885645D03*
D14*
X78896363Y-99635645D03*
D13*
X78396364Y-95885646D03*
D16*
X80621363Y-101835645D03*
X92171364Y-99635644D03*
%TD*%
D13*
%TO.C,S16*%
X130809999Y-96040506D03*
D14*
X130309999Y-99790506D03*
X125309999Y-101990505D03*
X125309999Y-101990505D03*
D15*
X125309999Y-96040506D03*
D14*
X120309999Y-99790506D03*
D13*
X119809999Y-96040506D03*
D16*
X122034999Y-101990507D03*
X133585000Y-99790506D03*
%TD*%
%TO.C,*%
X176800000Y-94550000D03*
%TD*%
D13*
%TO.C,S21*%
X149810000Y-85040506D03*
D14*
X149310000Y-88790506D03*
X144310000Y-90990505D03*
X144310000Y-90990505D03*
D15*
X144310000Y-85040506D03*
D14*
X139310000Y-88790506D03*
D13*
X138810000Y-85040506D03*
D16*
X141035000Y-90990507D03*
X152585001Y-88790506D03*
%TD*%
D30*
%TO.C,T1*%
X184010001Y-53940506D03*
X184010000Y-56140507D03*
D22*
X181809999Y-55040506D03*
X178810001Y-55040506D03*
D30*
X176610000Y-53940505D03*
X176609999Y-56140506D03*
D31*
X182560000Y-57115506D03*
X179560000Y-57115506D03*
X178060000Y-57115506D03*
%TD*%
M02*
