M48
; DRILL file KiCad 10.0.0 date 2026-04-15T13:21:18
; FORMAT={-:-/ absolute / metric / decimal}
; #@! TF.CreationDate,2026-04-15T13:21:18+03:00
; #@! TF.GenerationSoftware,Kicad,Pcbnew,10.0.0
; #@! TF.FileFunction,MixedPlating,1,2
FMAT,2
METRIC
; #@! TA.AperFunction,Plated,PTH,ViaDrill
T1C0.400
; #@! TA.AperFunction,Plated,PTH,ComponentDrill
T2C0.750
; #@! TA.AperFunction,Plated,PTH,ComponentDrill
T3C0.991
; #@! TA.AperFunction,Plated,PTH,ComponentDrill
T4C1.092
; #@! TA.AperFunction,NonPlated,NPTH,ComponentDrill
T5C0.900
; #@! TA.AperFunction,NonPlated,NPTH,ComponentDrill
T6C1.702
; #@! TA.AperFunction,NonPlated,NPTH,ComponentDrill
T7C3.000
; #@! TA.AperFunction,NonPlated,NPTH,ComponentDrill
T8C3.429
%
G90
G05
T1
X71.284Y-107.315
X71.347Y-126.325
X71.357Y-69.29
X71.411Y-145.334
X71.42Y-88.299
X90.385Y-121.357
X90.422Y-102.344
X90.449Y-140.367
X90.458Y-83.332
X90.498Y-64.419
X112.8Y-53.6
X112.8Y-72.6
X112.8Y-91.6
X112.8Y-110.6
X113.0Y-129.6
X131.8Y-64.6
X131.8Y-102.6
X132.0Y-45.6
X132.0Y-83.6
X145.8Y-130.6
X150.8Y-72.6
X150.8Y-91.6
X150.8Y-110.6
X151.0Y-53.6
X166.4Y-139.8
X169.6Y-116.4
X169.65Y-59.65
X169.8Y-78.6
X169.8Y-97.6
X185.6Y-146.4
X196.4Y-126.0
T2
X178.31Y-62.041
X178.31Y-64.041
T3
X61.086Y-56.886
X61.086Y-94.886
X61.086Y-75.886
X61.086Y-113.886
X61.086Y-132.886
X68.706Y-56.886
X68.706Y-94.886
X68.706Y-75.886
X68.706Y-113.886
X68.706Y-132.886
X80.086Y-51.886
X80.086Y-70.886
X80.086Y-108.886
X80.086Y-127.886
X80.086Y-89.886
X87.706Y-51.886
X87.706Y-70.886
X87.706Y-108.886
X87.706Y-127.886
X87.706Y-89.886
X102.5Y-41.041
X102.5Y-60.041
X102.5Y-79.041
X102.5Y-98.041
X102.5Y-117.041
X110.12Y-41.041
X110.12Y-60.041
X110.12Y-79.041
X110.12Y-98.041
X110.12Y-117.041
X121.5Y-71.041
X121.5Y-33.041
X121.5Y-90.041
X121.5Y-52.041
X129.12Y-71.041
X129.12Y-33.041
X129.12Y-90.041
X129.12Y-52.041
X135.5Y-118.041
X140.5Y-41.041
X140.5Y-98.041
X140.5Y-60.041
X140.5Y-79.041
X143.12Y-118.041
X148.12Y-41.041
X148.12Y-98.041
X148.12Y-60.041
X148.12Y-79.041
X159.5Y-66.041
X159.5Y-47.041
X159.5Y-85.041
X159.5Y-104.041
X160.523Y-124.596
X167.12Y-66.041
X167.12Y-47.041
X167.12Y-85.041
X167.12Y-104.041
X167.749Y-127.014
X180.212Y-130.966
X187.372Y-133.572
X190.412Y-111.087
X197.659Y-113.441
T4
X182.8Y-68.72
X182.8Y-71.26
X182.8Y-73.8
X182.8Y-76.34
X182.8Y-78.88
X182.8Y-81.42
X182.8Y-83.96
X182.8Y-86.5
X182.8Y-89.04
X182.8Y-91.58
X182.8Y-94.12
X182.8Y-96.66
X182.8Y-99.2
X185.34Y-96.66
X190.42Y-96.66
X198.04Y-68.73
X198.04Y-71.26
X198.04Y-73.8
X198.04Y-76.34
X198.04Y-78.88
X198.04Y-81.42
X198.04Y-83.96
X198.04Y-86.5
X198.04Y-89.04
X198.04Y-91.58
X198.04Y-94.12
X198.04Y-96.66
X198.04Y-99.2
T5
X178.8Y-55.05
X178.81Y-55.041
X181.8Y-55.05
X181.81Y-55.041
T6
X59.396Y-62.886
X59.396Y-100.886
X59.396Y-119.886
X59.396Y-138.886
X59.396Y-81.886
X70.396Y-62.886
X70.396Y-100.886
X70.396Y-119.886
X70.396Y-138.886
X70.396Y-81.886
X78.396Y-76.886
X78.396Y-114.886
X78.396Y-57.886
X78.396Y-133.886
X78.396Y-95.886
X89.396Y-76.886
X89.396Y-114.886
X89.396Y-57.886
X89.396Y-133.886
X89.396Y-95.886
X100.81Y-47.041
X100.81Y-104.041
X100.81Y-66.041
X100.81Y-85.041
X100.81Y-123.041
X111.81Y-47.041
X111.81Y-104.041
X111.81Y-66.041
X111.81Y-85.041
X111.81Y-123.041
X119.81Y-39.041
X119.81Y-58.041
X119.81Y-96.041
X119.81Y-77.041
X130.81Y-39.041
X130.81Y-58.041
X130.81Y-96.041
X130.81Y-77.041
X133.81Y-124.041
X138.81Y-47.041
X138.81Y-66.041
X138.81Y-104.041
X138.81Y-85.041
X144.81Y-124.041
X149.81Y-47.041
X149.81Y-66.041
X149.81Y-104.041
X149.81Y-85.041
X156.997Y-129.812
X157.81Y-91.041
X157.81Y-110.041
X157.81Y-53.041
X157.81Y-72.041
X167.458Y-133.211
X168.81Y-91.041
X168.81Y-110.041
X168.81Y-53.041
X168.81Y-72.041
X176.584Y-136.081
X186.921Y-139.843
X186.951Y-116.271
X197.412Y-119.67
T7
X59.896Y-66.636
X59.896Y-104.636
X59.896Y-123.636
X59.896Y-142.636
X59.896Y-85.636
X64.896Y-68.836
X64.896Y-68.836
X64.896Y-106.836
X64.896Y-106.836
X64.896Y-125.836
X64.896Y-125.836
X64.896Y-144.836
X64.896Y-144.836
X64.896Y-87.836
X64.896Y-87.836
X69.896Y-66.636
X69.896Y-104.636
X69.896Y-123.636
X69.896Y-142.636
X69.896Y-85.636
X78.896Y-80.636
X78.896Y-118.636
X78.896Y-61.636
X78.896Y-137.636
X78.896Y-99.636
X83.896Y-82.836
X83.896Y-82.836
X83.896Y-120.836
X83.896Y-120.836
X83.896Y-63.836
X83.896Y-63.836
X83.896Y-139.836
X83.896Y-139.836
X83.896Y-101.836
X83.896Y-101.836
X88.896Y-80.636
X88.896Y-118.636
X88.896Y-61.636
X88.896Y-137.636
X88.896Y-99.636
X92.4Y-46.8
X101.31Y-50.791
X101.31Y-107.791
X101.31Y-69.791
X101.31Y-88.791
X101.31Y-126.791
X106.31Y-52.991
X106.31Y-52.991
X106.31Y-109.991
X106.31Y-109.991
X106.31Y-71.991
X106.31Y-71.991
X106.31Y-90.991
X106.31Y-90.991
X106.31Y-128.991
X106.31Y-128.991
X111.31Y-50.791
X111.31Y-107.791
X111.31Y-69.791
X111.31Y-88.791
X111.31Y-126.791
X120.31Y-42.791
X120.31Y-61.791
X120.31Y-99.791
X120.31Y-80.791
X123.9Y-119.2
X125.31Y-44.991
X125.31Y-44.991
X125.31Y-63.991
X125.31Y-63.991
X125.31Y-101.991
X125.31Y-101.991
X125.31Y-82.991
X125.31Y-82.991
X130.31Y-42.791
X130.31Y-61.791
X130.31Y-99.791
X130.31Y-80.791
X134.31Y-127.791
X139.31Y-129.991
X139.31Y-129.991
X139.31Y-50.791
X139.31Y-69.791
X139.31Y-107.791
X139.31Y-88.791
X140.0Y-33.0
X144.31Y-127.791
X144.31Y-52.991
X144.31Y-52.991
X144.31Y-71.991
X144.31Y-71.991
X144.31Y-109.991
X144.31Y-109.991
X144.31Y-90.991
X144.31Y-90.991
X149.31Y-50.791
X149.31Y-69.791
X149.31Y-107.791
X149.31Y-88.791
X156.314Y-133.533
X158.31Y-94.791
X158.31Y-113.791
X158.31Y-56.791
X158.31Y-75.791
X160.389Y-137.17
X160.389Y-137.17
X163.31Y-96.991
X163.31Y-96.991
X163.31Y-115.991
X163.31Y-115.991
X163.31Y-58.991
X163.31Y-58.991
X163.31Y-77.991
X163.31Y-77.991
X165.824Y-136.623
X168.31Y-94.791
X168.31Y-113.791
X168.31Y-56.791
X168.31Y-75.791
X175.771Y-139.776
X179.717Y-143.553
X179.717Y-143.553
X185.168Y-143.196
X186.267Y-119.992
X190.343Y-123.629
X190.343Y-123.629
X195.778Y-123.082
X202.65Y-64.0
T8
X64.896Y-62.886
X64.896Y-100.886
X64.896Y-119.886
X64.896Y-138.886
X64.896Y-81.886
X83.896Y-76.886
X83.896Y-114.886
X83.896Y-57.886
X83.896Y-133.886
X83.896Y-95.886
X106.3Y-47.05
X106.31Y-47.041
X106.31Y-104.041
X106.31Y-66.041
X106.31Y-85.041
X106.31Y-123.041
X125.31Y-39.041
X125.31Y-58.041
X125.31Y-96.041
X125.31Y-77.041
X139.31Y-124.041
X139.31Y-124.041
X144.31Y-47.041
X144.31Y-66.041
X144.31Y-104.041
X144.31Y-85.041
X162.228Y-131.511
X163.31Y-91.041
X163.31Y-110.041
X163.31Y-53.041
X163.31Y-72.041
X181.752Y-137.962
X192.181Y-117.97
M30
