%TF.GenerationSoftware,KiCad,Pcbnew,10.0.0*%
%TF.CreationDate,2026-04-15T13:23:25+03:00*%
%TF.ProjectId,my_left,6d795f6c-6566-4742-9e6b-696361645f70,v1.0.0*%
%TF.SameCoordinates,Original*%
%TF.FileFunction,Copper,L2,Bot*%
%TF.FilePolarity,Positive*%
%FSLAX46Y46*%
G04 Gerber Fmt 4.6, Leading zero omitted, Abs format (unit mm)*
G04 Created by KiCad (PCBNEW 10.0.0) date 2026-04-15 13:23:25*
%MOMM*%
%LPD*%
G01*
G04 APERTURE LIST*
G04 Aperture macros list*
%AMRotRect*
0 Rectangle, with rotation*
0 The origin of the aperture is its center*
0 $1 length*
0 $2 width*
0 $3 Rotation angle, in degrees counterclockwise*
0 Add horizontal line*
21,1,$1,$2,0,0,$3*%
G04 Aperture macros list end*
%TA.AperFunction,ComponentPad*%
%ADD10R,1.778000X1.778000*%
%TD*%
%TA.AperFunction,SMDPad,CuDef*%
%ADD11R,0.900000X1.200000*%
%TD*%
%TA.AperFunction,ComponentPad*%
%ADD12C,1.905000*%
%TD*%
%TA.AperFunction,SMDPad,CuDef*%
%ADD13R,2.600000X2.600000*%
%TD*%
%TA.AperFunction,SMDPad,CuDef*%
%ADD14RotRect,2.600000X2.600000X160.000000*%
%TD*%
%TA.AperFunction,ComponentPad*%
%ADD15RotRect,1.778000X1.778000X340.000000*%
%TD*%
%TA.AperFunction,SMDPad,CuDef*%
%ADD16RotRect,0.900000X1.200000X340.000000*%
%TD*%
%TA.AperFunction,SMDPad,CuDef*%
%ADD17RotRect,2.600000X2.600000X162.000000*%
%TD*%
%TA.AperFunction,SMDPad,CuDef*%
%ADD18R,0.900000X0.900000*%
%TD*%
%TA.AperFunction,WasherPad*%
%ADD19C,1.000000*%
%TD*%
%TA.AperFunction,SMDPad,CuDef*%
%ADD20R,0.900000X1.250000*%
%TD*%
%TA.AperFunction,ComponentPad*%
%ADD21C,1.752600*%
%TD*%
%TA.AperFunction,ComponentPad*%
%ADD22R,1.700000X1.200000*%
%TD*%
%TA.AperFunction,ComponentPad*%
%ADD23O,1.700000X1.200000*%
%TD*%
%TA.AperFunction,ComponentPad*%
%ADD24RotRect,1.778000X1.778000X341.500000*%
%TD*%
%TA.AperFunction,SMDPad,CuDef*%
%ADD25RotRect,0.900000X1.200000X341.500000*%
%TD*%
%TA.AperFunction,ComponentPad*%
%ADD26RotRect,1.778000X1.778000X342.000000*%
%TD*%
%TA.AperFunction,SMDPad,CuDef*%
%ADD27RotRect,0.900000X1.200000X342.000000*%
%TD*%
%TA.AperFunction,ViaPad*%
%ADD28C,0.800000*%
%TD*%
%TA.AperFunction,Conductor*%
%ADD29C,0.250000*%
%TD*%
G04 APERTURE END LIST*
D10*
%TO.P,D27,1*%
%TO.N,N/C*%
X159500000Y-47040506D03*
D11*
X161659999Y-47040507D03*
%TO.P,D27,2*%
%TO.N,inner_num*%
X164960001Y-47040505D03*
D12*
X167120000Y-47040506D03*
%TD*%
D13*
%TO.P,S14,1*%
%TO.N,pinky_home*%
X109584999Y-71990507D03*
%TO.P,S14,2*%
%TO.N,N/C*%
X98034999Y-69790506D03*
%TD*%
D10*
%TO.P,D16,1*%
%TO.N,N/C*%
X121499999Y-90040506D03*
D11*
X123659998Y-90040507D03*
%TO.P,D16,2*%
%TO.N,inner_bottom*%
X126960000Y-90040505D03*
D12*
X129119999Y-90040506D03*
%TD*%
D10*
%TO.P,D13,1*%
%TO.N,N/C*%
X102499999Y-79040505D03*
D11*
X104659998Y-79040506D03*
%TO.P,D13,2*%
%TO.N,inner_home*%
X107960000Y-79040504D03*
D12*
X110119999Y-79040505D03*
%TD*%
D14*
%TO.P,S31,1*%
%TO.N,thumb_bottom*%
X182794835Y-144673050D03*
%TO.P,S31,2*%
%TO.N,N/C*%
X172693829Y-138655393D03*
%TD*%
D13*
%TO.P,S17,1*%
%TO.N,pinky_frow*%
X128585000Y-82990506D03*
%TO.P,S17,2*%
%TO.N,N/C*%
X117035000Y-80790505D03*
%TD*%
D15*
%TO.P,D28,1*%
%TO.N,N/C*%
X180211570Y-130966040D03*
D16*
X182241306Y-131704801D03*
%TO.P,D28,2*%
%TO.N,outer_frow*%
X185342292Y-132833467D03*
D12*
X187372028Y-133572228D03*
%TD*%
D10*
%TO.P,D5,1*%
%TO.N,N/C*%
X61086361Y-56885645D03*
D11*
X63246360Y-56885644D03*
%TO.P,D5,2*%
%TO.N,inner_num*%
X66546360Y-56885644D03*
D12*
X68706359Y-56885643D03*
%TD*%
D10*
%TO.P,D7,1*%
%TO.N,N/C*%
X80086362Y-108885646D03*
D11*
X82246361Y-108885645D03*
%TO.P,D7,2*%
%TO.N,inner_bottom*%
X85546361Y-108885645D03*
D12*
X87706360Y-108885644D03*
%TD*%
D13*
%TO.P,,1*%
%TO.N,N/C*%
X192650000Y-106000000D03*
%TD*%
D17*
%TO.P,S30,1*%
%TO.N,home_default*%
X163503746Y-138181951D03*
%TO.P,S30,2*%
%TO.N,N/C*%
X153198881Y-132520480D03*
%TD*%
D10*
%TO.P,D23,1*%
%TO.N,N/C*%
X140499998Y-41040506D03*
D11*
X142659997Y-41040507D03*
%TO.P,D23,2*%
%TO.N,inner_num*%
X145959999Y-41040505D03*
D12*
X148119998Y-41040506D03*
%TD*%
D13*
%TO.P,,1*%
%TO.N,N/C*%
X174650000Y-85150000D03*
%TD*%
%TO.P,,1*%
%TO.N,N/C*%
X202700000Y-99750000D03*
%TD*%
D10*
%TO.P,D10,1*%
%TO.N,N/C*%
X80086362Y-51885647D03*
D11*
X82246361Y-51885646D03*
%TO.P,D10,2*%
%TO.N,inner_num*%
X85546361Y-51885646D03*
D12*
X87706360Y-51885645D03*
%TD*%
D10*
%TO.P,D17,1*%
%TO.N,N/C*%
X121499998Y-71040506D03*
D11*
X123659997Y-71040507D03*
%TO.P,D17,2*%
%TO.N,inner_home*%
X126959999Y-71040505D03*
D12*
X129119998Y-71040506D03*
%TD*%
D13*
%TO.P,S2,1*%
%TO.N,outer_default*%
X68171362Y-125835645D03*
%TO.P,S2,2*%
%TO.N,N/C*%
X56621362Y-123635645D03*
%TD*%
D10*
%TO.P,D18,1*%
%TO.N,N/C*%
X121500000Y-52040507D03*
D11*
X123659999Y-52040508D03*
%TO.P,D18,2*%
%TO.N,inner_top*%
X126960001Y-52040506D03*
D12*
X129120000Y-52040507D03*
%TD*%
D13*
%TO.P,S7,1*%
%TO.N,pinky_num*%
X87171361Y-120835645D03*
%TO.P,S7,2*%
%TO.N,N/C*%
X75621361Y-118635645D03*
%TD*%
%TO.P,S19,1*%
%TO.N,pinky_frow*%
X128584998Y-44990507D03*
%TO.P,S19,2*%
%TO.N,N/C*%
X117034998Y-42790506D03*
%TD*%
D10*
%TO.P,D1,1*%
%TO.N,N/C*%
X61086363Y-132885645D03*
D11*
X63246362Y-132885644D03*
%TO.P,D1,2*%
%TO.N,outer_frow*%
X66546362Y-132885644D03*
D12*
X68706361Y-132885643D03*
%TD*%
D10*
%TO.P,D20,1*%
%TO.N,N/C*%
X140499998Y-98040506D03*
D11*
X142659997Y-98040507D03*
%TO.P,D20,2*%
%TO.N,inner_bottom*%
X145959999Y-98040505D03*
D12*
X148119998Y-98040506D03*
%TD*%
D18*
%TO.P,T1,*%
%TO.N,*%
X176600000Y-53950000D03*
X176600001Y-56150001D03*
D19*
X178800002Y-55050000D03*
X181800000Y-55050000D03*
D18*
X184000001Y-53949999D03*
X184000002Y-56150000D03*
D20*
%TO.P,T1,1*%
%TO.N,VCC*%
X178050001Y-57125000D03*
%TO.P,T1,2*%
%TO.N,GND*%
X181050001Y-57125000D03*
%TO.P,T1,3*%
%TO.N,RAW*%
X182550001Y-57125000D03*
%TD*%
D10*
%TO.P,D14,1*%
%TO.N,N/C*%
X102499999Y-60040506D03*
D11*
X104659998Y-60040507D03*
%TO.P,D14,2*%
%TO.N,inner_top*%
X107960000Y-60040505D03*
D12*
X110119999Y-60040506D03*
%TD*%
D21*
%TO.P,MCU1,0*%
%TO.N,GND*%
X182800000Y-68720000D03*
%TO.P,MCU1,1*%
%TO.N,N/C*%
X182800000Y-71260000D03*
%TO.P,MCU1,2*%
X182800000Y-73800000D03*
%TO.P,MCU1,3*%
X182800000Y-76340000D03*
%TO.P,MCU1,4*%
X182800000Y-78880000D03*
%TO.P,MCU1,5*%
%TO.N,inner_num*%
X182800000Y-81420000D03*
%TO.P,MCU1,6*%
%TO.N,inner_top*%
X182800000Y-83960000D03*
%TO.P,MCU1,7*%
%TO.N,inner_home*%
X182800000Y-86500000D03*
%TO.P,MCU1,8*%
%TO.N,pinky_num*%
X182800000Y-89040000D03*
%TO.P,MCU1,9*%
%TO.N,N/C*%
X182800000Y-91580000D03*
%TO.P,MCU1,10*%
%TO.N,home_default*%
X182800000Y-94120000D03*
%TO.P,MCU1,11*%
%TO.N,pinky_home*%
X182800000Y-96660000D03*
%TO.P,MCU1,12*%
%TO.N,inner_bottom*%
X182800000Y-99200000D03*
%TO.P,MCU1,13*%
%TO.N,thumb_bottom*%
X198040000Y-99200000D03*
%TO.P,MCU1,14*%
%TO.N,N/C*%
X198040000Y-96660000D03*
%TO.P,MCU1,15*%
%TO.N,outer_default*%
X198040000Y-94120000D03*
%TO.P,MCU1,16*%
%TO.N,outer_frow*%
X198040000Y-91580000D03*
%TO.P,MCU1,17*%
%TO.N,N/C*%
X198040000Y-89040000D03*
%TO.P,MCU1,18*%
%TO.N,pinky_frow*%
X198040000Y-86500000D03*
%TO.P,MCU1,19*%
%TO.N,N/C*%
X198040000Y-83960000D03*
%TO.P,MCU1,20*%
%TO.N,pinky_top*%
X198040000Y-81420000D03*
%TO.P,MCU1,21*%
%TO.N,N/C*%
X198040000Y-78880000D03*
%TO.P,MCU1,22*%
X198040000Y-76340000D03*
%TO.P,MCU1,23*%
X198040000Y-73800000D03*
%TO.P,MCU1,24*%
X198040000Y-71260000D03*
%TO.P,MCU1,25*%
%TO.N,VCC*%
X198040000Y-68730000D03*
%TO.P,MCU1,31*%
%TO.N,N/C*%
X185340000Y-96660000D03*
%TO.P,MCU1,33*%
X190420000Y-96660000D03*
%TD*%
D13*
%TO.P,S23,1*%
%TO.N,pinky_top*%
X147584999Y-52990507D03*
%TO.P,S23,2*%
%TO.N,N/C*%
X136034999Y-50790506D03*
%TD*%
%TO.P,S26,1*%
%TO.N,home_default*%
X166585000Y-77990506D03*
%TO.P,S26,2*%
%TO.N,N/C*%
X155035000Y-75790505D03*
%TD*%
%TO.P,S10,1*%
%TO.N,pinky_num*%
X87171362Y-63835645D03*
%TO.P,S10,2*%
%TO.N,N/C*%
X75621362Y-61635645D03*
%TD*%
D17*
%TO.P,S28,1*%
%TO.N,thumb_bottom*%
X193457380Y-124641249D03*
%TO.P,S28,2*%
%TO.N,N/C*%
X183152515Y-118979778D03*
%TD*%
D10*
%TO.P,D3,1*%
%TO.N,N/C*%
X61086361Y-94885647D03*
D11*
X63246360Y-94885646D03*
%TO.P,D3,2*%
%TO.N,inner_home*%
X66546360Y-94885646D03*
D12*
X68706359Y-94885645D03*
%TD*%
D10*
%TO.P,D24,1*%
%TO.N,N/C*%
X135499999Y-118040504D03*
D11*
X137659998Y-118040505D03*
%TO.P,D24,2*%
%TO.N,outer_frow*%
X140960000Y-118040503D03*
D12*
X143119999Y-118040504D03*
%TD*%
D13*
%TO.P,S24,1*%
%TO.N,home_default*%
X166584999Y-115990506D03*
%TO.P,S24,2*%
%TO.N,N/C*%
X155034999Y-113790505D03*
%TD*%
%TO.P,S9,1*%
%TO.N,pinky_num*%
X87171360Y-82835645D03*
%TO.P,S9,2*%
%TO.N,N/C*%
X75621360Y-80635645D03*
%TD*%
D10*
%TO.P,D6,1*%
%TO.N,N/C*%
X80086363Y-127885647D03*
D11*
X82246362Y-127885646D03*
%TO.P,D6,2*%
%TO.N,outer_frow*%
X85546362Y-127885646D03*
D12*
X87706361Y-127885645D03*
%TD*%
D13*
%TO.P,S25,1*%
%TO.N,home_default*%
X166584999Y-96990506D03*
%TO.P,S25,2*%
%TO.N,N/C*%
X155034999Y-94790505D03*
%TD*%
D10*
%TO.P,D24,1*%
%TO.N,N/C*%
X159500000Y-104040505D03*
D11*
X161659999Y-104040506D03*
%TO.P,D24,2*%
%TO.N,inner_bottom*%
X164960001Y-104040504D03*
D12*
X167120000Y-104040505D03*
%TD*%
D13*
%TO.P,S29,1*%
%TO.N,pinky_top*%
X142584998Y-129990505D03*
%TO.P,S29,2*%
%TO.N,N/C*%
X131034998Y-127790504D03*
%TD*%
%TO.P,S20,1*%
%TO.N,pinky_top*%
X147584999Y-109990506D03*
%TO.P,S20,2*%
%TO.N,N/C*%
X136034999Y-107790505D03*
%TD*%
D10*
%TO.P,D1,1*%
%TO.N,N/C*%
X61086363Y-113885646D03*
D11*
X63246362Y-113885645D03*
%TO.P,D1,2*%
%TO.N,inner_bottom*%
X66546362Y-113885645D03*
D12*
X68706361Y-113885644D03*
%TD*%
D13*
%TO.P,S22,1*%
%TO.N,pinky_top*%
X147584999Y-71990506D03*
%TO.P,S22,2*%
%TO.N,N/C*%
X136034999Y-69790505D03*
%TD*%
%TO.P,S11,1*%
%TO.N,pinky_home*%
X109585000Y-128990506D03*
%TO.P,S11,2*%
%TO.N,N/C*%
X98035000Y-126790505D03*
%TD*%
D22*
%TO.P,JST1,1*%
%TO.N,RAW*%
X178310000Y-64040505D03*
D23*
%TO.P,JST1,2*%
%TO.N,GND*%
X178309996Y-62040505D03*
%TD*%
D10*
%TO.P,D26,1*%
%TO.N,N/C*%
X159499999Y-66040506D03*
D11*
X161659998Y-66040507D03*
%TO.P,D26,2*%
%TO.N,inner_top*%
X164960000Y-66040505D03*
D12*
X167119999Y-66040506D03*
%TD*%
D13*
%TO.P,S5,1*%
%TO.N,outer_default*%
X68171360Y-68835644D03*
%TO.P,S5,2*%
%TO.N,N/C*%
X56621360Y-66635644D03*
%TD*%
D10*
%TO.P,D25,1*%
%TO.N,N/C*%
X159500000Y-85040506D03*
D11*
X161659999Y-85040507D03*
%TO.P,D25,2*%
%TO.N,inner_home*%
X164960001Y-85040505D03*
D12*
X167120000Y-85040506D03*
%TD*%
D13*
%TO.P,S18,1*%
%TO.N,pinky_frow*%
X128584999Y-63990506D03*
%TO.P,S18,2*%
%TO.N,N/C*%
X117034999Y-61790505D03*
%TD*%
%TO.P,,1*%
%TO.N,N/C*%
X177400000Y-80150000D03*
%TD*%
D10*
%TO.P,D8,1*%
%TO.N,N/C*%
X80086364Y-89885647D03*
D11*
X82246363Y-89885646D03*
%TO.P,D8,2*%
%TO.N,inner_home*%
X85546363Y-89885646D03*
D12*
X87706362Y-89885645D03*
%TD*%
D10*
%TO.P,D22,1*%
%TO.N,N/C*%
X140499999Y-60040506D03*
D11*
X142659998Y-60040507D03*
%TO.P,D22,2*%
%TO.N,inner_top*%
X145960000Y-60040505D03*
D12*
X148119999Y-60040506D03*
%TD*%
D13*
%TO.P,S13,1*%
%TO.N,pinky_home*%
X109585000Y-90990505D03*
%TO.P,S13,2*%
%TO.N,N/C*%
X98035000Y-88790504D03*
%TD*%
D10*
%TO.P,D15,1*%
%TO.N,N/C*%
X102499998Y-41040506D03*
D11*
X104659997Y-41040507D03*
%TO.P,D15,2*%
%TO.N,inner_num*%
X107959999Y-41040505D03*
D12*
X110119998Y-41040506D03*
%TD*%
D13*
%TO.P,,1*%
%TO.N,N/C*%
X174700000Y-68050000D03*
%TD*%
D10*
%TO.P,D4,1*%
%TO.N,N/C*%
X61086363Y-75885646D03*
D11*
X63246362Y-75885645D03*
%TO.P,D4,2*%
%TO.N,inner_top*%
X66546362Y-75885645D03*
D12*
X68706361Y-75885644D03*
%TD*%
D13*
%TO.P,S12,1*%
%TO.N,pinky_home*%
X109584998Y-109990506D03*
%TO.P,S12,2*%
%TO.N,N/C*%
X98034998Y-107790505D03*
%TD*%
D24*
%TO.P,D28,1*%
%TO.N,N/C*%
X160522772Y-124596274D03*
D25*
X162571151Y-125281650D03*
%TO.P,D28,2*%
%TO.N,outer_frow*%
X165700621Y-126328756D03*
D12*
X167749000Y-127014132D03*
%TD*%
D13*
%TO.P,S15,1*%
%TO.N,pinky_home*%
X109584998Y-52990505D03*
%TO.P,S15,2*%
%TO.N,N/C*%
X98034998Y-50790504D03*
%TD*%
%TO.P,S4,1*%
%TO.N,outer_default*%
X68171363Y-87835645D03*
%TO.P,S4,2*%
%TO.N,N/C*%
X56621363Y-85635645D03*
%TD*%
%TO.P,S6,1*%
%TO.N,pinky_num*%
X87171362Y-139835645D03*
%TO.P,S6,2*%
%TO.N,N/C*%
X75621362Y-137635645D03*
%TD*%
D10*
%TO.P,D12,1*%
%TO.N,N/C*%
X102500000Y-98040507D03*
D11*
X104659999Y-98040508D03*
%TO.P,D12,2*%
%TO.N,inner_bottom*%
X107960001Y-98040506D03*
D12*
X110120000Y-98040507D03*
%TD*%
D13*
%TO.P,S3,1*%
%TO.N,outer_default*%
X68171362Y-106835644D03*
%TO.P,S3,2*%
%TO.N,N/C*%
X56621362Y-104635644D03*
%TD*%
D10*
%TO.P,D21,1*%
%TO.N,N/C*%
X140499999Y-79040506D03*
D11*
X142659998Y-79040507D03*
%TO.P,D21,2*%
%TO.N,inner_home*%
X145960000Y-79040505D03*
D12*
X148119999Y-79040506D03*
%TD*%
D26*
%TO.P,D28,1*%
%TO.N,N/C*%
X190411900Y-111086740D03*
D27*
X192466182Y-111754215D03*
%TO.P,D28,2*%
%TO.N,inner_bottom*%
X195604668Y-112773971D03*
D12*
X197658950Y-113441446D03*
%TD*%
D10*
%TO.P,D11,1*%
%TO.N,N/C*%
X102500000Y-117040506D03*
D11*
X104659999Y-117040507D03*
%TO.P,D11,2*%
%TO.N,outer_frow*%
X107960001Y-117040505D03*
D12*
X110120000Y-117040506D03*
%TD*%
D10*
%TO.P,D9,1*%
%TO.N,N/C*%
X80086362Y-70885645D03*
D11*
X82246361Y-70885644D03*
%TO.P,D9,2*%
%TO.N,inner_top*%
X85546361Y-70885644D03*
D12*
X87706360Y-70885643D03*
%TD*%
D13*
%TO.P,S27,1*%
%TO.N,N/C*%
X166585000Y-58990506D03*
%TO.P,S27,2*%
X155035000Y-56790505D03*
%TD*%
D10*
%TO.P,D19,1*%
%TO.N,N/C*%
X121499999Y-33040506D03*
D11*
X123659998Y-33040507D03*
%TO.P,D19,2*%
%TO.N,inner_num*%
X126960000Y-33040505D03*
D12*
X129119999Y-33040506D03*
%TD*%
D13*
%TO.P,S1,1*%
%TO.N,outer_default*%
X68171362Y-144835645D03*
%TO.P,S1,2*%
%TO.N,N/C*%
X56621362Y-142635645D03*
%TD*%
%TO.P,S8,1*%
%TO.N,pinky_num*%
X87171363Y-101835645D03*
%TO.P,S8,2*%
%TO.N,N/C*%
X75621363Y-99635645D03*
%TD*%
%TO.P,S16,1*%
%TO.N,pinky_frow*%
X128584999Y-101990506D03*
%TO.P,S16,2*%
%TO.N,N/C*%
X117034999Y-99790505D03*
%TD*%
%TO.P,S21,1*%
%TO.N,pinky_top*%
X147585000Y-90990506D03*
%TO.P,S21,2*%
%TO.N,N/C*%
X136035000Y-88790505D03*
%TD*%
D19*
%TO.P,T1,*%
%TO.N,*%
X181809999Y-55040506D03*
X178810001Y-55040506D03*
%TD*%
D28*
%TO.N,pinky_home*%
X112800000Y-91600000D03*
X112800000Y-72600000D03*
X112800000Y-53600000D03*
X113000000Y-129600000D03*
X112800000Y-110600000D03*
%TO.N,pinky_top*%
X150800000Y-72600000D03*
X145800000Y-130600000D03*
X151000000Y-53600000D03*
X150800000Y-110600000D03*
X150800000Y-91600000D03*
%TO.N,thumb_bottom*%
X185600000Y-146400000D03*
X196400000Y-126000000D03*
%TO.N,pinky_frow*%
X132000000Y-83600000D03*
X131800000Y-102600000D03*
X131800000Y-64600000D03*
X132000000Y-45600000D03*
%TO.N,home_default*%
X166400000Y-139800000D03*
X169800000Y-78600000D03*
X169650000Y-59650000D03*
X169800000Y-97600000D03*
X169600000Y-116400000D03*
%TO.N,outer_default*%
X71356598Y-69289614D03*
X71410544Y-145334055D03*
X71347089Y-126324690D03*
X71420055Y-88298978D03*
X71283633Y-107315323D03*
%TO.N,pinky_num*%
X90458291Y-83331528D03*
X90385325Y-121357238D03*
X90448781Y-140366604D03*
X90498264Y-64418611D03*
X90421809Y-102344383D03*
%TD*%
%TO.N,home_default*%
D29*
X169600000Y-116400000D02*
X166994493Y-116400000D01*
X166994493Y-116400000D02*
X166584999Y-115990506D01*
%TO.N,*%
X153198881Y-132520480D02*
X153198881Y-129001119D01*
X154200000Y-128000000D02*
X157119046Y-128000000D01*
X61086361Y-94885647D02*
X63246360Y-94885646D01*
X102499998Y-41040506D02*
X104659997Y-41040507D01*
X102500000Y-117040506D02*
X104659999Y-117040507D01*
X117034999Y-99790505D02*
X117034999Y-94505506D01*
X56621362Y-99350646D02*
X61086361Y-94885647D01*
X188898640Y-112600000D02*
X190411900Y-111086740D01*
X136034999Y-102505505D02*
X140499998Y-98040506D01*
X135499999Y-118040504D02*
X137659998Y-118040505D01*
X153198881Y-129001119D02*
X154200000Y-128000000D01*
X155034999Y-108505506D02*
X159500000Y-104040505D01*
X155035000Y-70505505D02*
X159499999Y-66040506D01*
X98035000Y-126790505D02*
X98035000Y-121505506D01*
X136035000Y-83505505D02*
X140499999Y-79040506D01*
X75621362Y-132350648D02*
X80086363Y-127885647D01*
X160522772Y-124596274D02*
X161885775Y-124596274D01*
X80086362Y-70885645D02*
X82246361Y-70885644D01*
X80086362Y-51885647D02*
X82246361Y-51885646D01*
X155034999Y-94790505D02*
X155034999Y-89505507D01*
X186800000Y-112600000D02*
X188898640Y-112600000D01*
X123659998Y-90040507D02*
X121499999Y-90040506D01*
X61086361Y-56885645D02*
X63246360Y-56885644D01*
X56621360Y-61350646D02*
X61086361Y-56885645D01*
X155035000Y-56790505D02*
X155035000Y-51505506D01*
X183152515Y-118979778D02*
X183152515Y-116247485D01*
X102500000Y-98040507D02*
X104659999Y-98040508D01*
X56621363Y-85635645D02*
X56621363Y-80350646D01*
X80086362Y-108885646D02*
X82246361Y-108885645D01*
X136034999Y-107790505D02*
X136034999Y-102505505D01*
X98034998Y-45505506D02*
X102499998Y-41040506D01*
X159500000Y-85040506D02*
X161659999Y-85040507D01*
X56621360Y-66635644D02*
X56621360Y-61350646D01*
X155035000Y-51505506D02*
X159500000Y-47040506D01*
X123659997Y-71040507D02*
X121499998Y-71040506D01*
X181502545Y-130966040D02*
X182241306Y-131704801D01*
X155034999Y-89505507D02*
X159500000Y-85040506D01*
X56621362Y-104635644D02*
X56621362Y-99350646D01*
X117035000Y-75505504D02*
X121499998Y-71040506D01*
X123659998Y-33040507D02*
X121499999Y-33040506D01*
X75621362Y-56350647D02*
X80086362Y-51885647D01*
X140499998Y-98040506D02*
X142659997Y-98040507D01*
X75621361Y-113350647D02*
X80086362Y-108885646D01*
X98035000Y-121505506D02*
X102500000Y-117040506D01*
X61086363Y-75885646D02*
X63246362Y-75885645D01*
X180211570Y-130966040D02*
X181502545Y-130966040D01*
X56621363Y-80350646D02*
X61086363Y-75885646D01*
X155035000Y-75790505D02*
X155035000Y-70505505D01*
X131034998Y-127790504D02*
X131034998Y-122505505D01*
X56621362Y-118350647D02*
X61086363Y-113885646D01*
X136034999Y-69790505D02*
X136034999Y-64505506D01*
X98035000Y-88790504D02*
X98035000Y-83505504D01*
X136034999Y-64505506D02*
X140499999Y-60040506D01*
X98034998Y-107790505D02*
X98034998Y-102505509D01*
X102499999Y-79040505D02*
X104659998Y-79040506D01*
X131034998Y-122505505D02*
X135499999Y-118040504D01*
X117034999Y-94505506D02*
X121499999Y-90040506D01*
X191798707Y-111086740D02*
X192466182Y-111754215D01*
X157119046Y-128000000D02*
X160522772Y-124596274D01*
X117035000Y-80790505D02*
X117035000Y-75505504D01*
X155034999Y-113790505D02*
X155034999Y-108505506D01*
X80086364Y-89885647D02*
X82314353Y-89885647D01*
X56621362Y-137350646D02*
X61086363Y-132885645D01*
X75621361Y-118635645D02*
X75621361Y-113350647D01*
X98034998Y-50790504D02*
X98034998Y-45505506D01*
X183152515Y-116247485D02*
X186800000Y-112600000D01*
X75621362Y-61635645D02*
X75621362Y-56350647D01*
X75621363Y-99635645D02*
X75621363Y-94350648D01*
X61086363Y-113885646D02*
X63246362Y-113885645D01*
X75621362Y-137635645D02*
X75621362Y-132350648D01*
X98034998Y-102505509D02*
X102500000Y-98040507D01*
X117034999Y-61790505D02*
X117034999Y-56505508D01*
X140499999Y-60040506D02*
X142659998Y-60040507D01*
X172693829Y-138655393D02*
X180211570Y-131137652D01*
X117034999Y-56505508D02*
X121500000Y-52040507D01*
X56621362Y-142635645D02*
X56621362Y-137350646D01*
X98035000Y-83505504D02*
X102499999Y-79040505D01*
X161659999Y-47040507D02*
X159500000Y-47040506D01*
X80086363Y-127885647D02*
X82246362Y-127885646D01*
X75621360Y-80635645D02*
X75621360Y-75350647D01*
X159500000Y-104040505D02*
X161659999Y-104040506D01*
X98034999Y-64505506D02*
X102499999Y-60040506D01*
X61086363Y-132885645D02*
X63246362Y-132885644D01*
X75621360Y-75350647D02*
X80086362Y-70885645D01*
X161885775Y-124596274D02*
X162571151Y-125281650D01*
X161659998Y-66040507D02*
X159499999Y-66040506D01*
X56621362Y-123635645D02*
X56621362Y-118350647D01*
X123659999Y-52040508D02*
X121500000Y-52040507D01*
X190411900Y-111086740D02*
X191798707Y-111086740D01*
X136035000Y-88790505D02*
X136035000Y-83505505D01*
X102499999Y-60040506D02*
X104659998Y-60040507D01*
X75621363Y-94350648D02*
X80086364Y-89885647D01*
X98034999Y-69790506D02*
X98034999Y-64505506D01*
X140499999Y-79040506D02*
X142659998Y-79040507D01*
X117034998Y-37505507D02*
X121499999Y-33040506D01*
X180211570Y-131137652D02*
X180211570Y-130966040D01*
X117034998Y-42790506D02*
X117034998Y-37505507D01*
%TO.N,inner_num*%
X140848597Y-27150000D02*
X147951328Y-30648672D01*
X167120000Y-47040506D02*
X174500000Y-54420506D01*
X147951328Y-30648672D02*
X167112764Y-40087236D01*
X174500000Y-54420506D02*
X174500000Y-73120000D01*
X148119998Y-41040506D02*
X148119998Y-30817342D01*
X66546360Y-56885644D02*
X68706359Y-56885643D01*
X68706361Y-56885645D02*
X74343120Y-50840962D01*
X164960001Y-47040505D02*
X167120000Y-47040506D01*
X107959999Y-41040505D02*
X110119998Y-41040506D01*
X129200000Y-27150000D02*
X140848597Y-27150000D01*
X74343120Y-50840962D02*
X74882146Y-50301936D01*
X110119998Y-41040506D02*
X110119998Y-33272218D01*
X110119998Y-33272218D02*
X110296108Y-33096108D01*
X80527068Y-48672932D02*
X78898064Y-50301936D01*
X87706360Y-51885645D02*
X87706360Y-44919442D01*
X85546361Y-51885645D02*
X87628393Y-51812940D01*
X174500000Y-73120000D02*
X182800000Y-81420000D01*
X167120000Y-40094472D02*
X167112764Y-40087236D01*
X145959999Y-41040505D02*
X148119998Y-41040506D01*
X80527068Y-48672932D02*
X85718964Y-45956243D01*
X110296108Y-33096108D02*
X121659783Y-27150000D01*
X85612138Y-46012138D02*
X87712901Y-44912901D01*
X148119998Y-30817342D02*
X147951328Y-30648672D01*
X129119999Y-33040506D02*
X129119999Y-27230001D01*
X129119999Y-27230001D02*
X129200000Y-27150000D01*
X87628393Y-51812940D02*
X87706360Y-51885646D01*
X121659783Y-27150000D02*
X129200000Y-27150000D01*
X87706360Y-44919442D02*
X87712901Y-44912901D01*
X167120000Y-47040506D02*
X167120000Y-40094472D01*
X126960000Y-33040505D02*
X129119999Y-33040506D01*
X87712901Y-44912901D02*
X110296108Y-33096108D01*
X74882146Y-50301936D02*
X78898064Y-50301936D01*
%TO.N,pinky_home*%
X112190506Y-109990506D02*
X112800000Y-110600000D01*
X109584999Y-71990507D02*
X112190507Y-71990507D01*
X109584998Y-109990506D02*
X112190506Y-109990506D01*
X109585000Y-128990506D02*
X112390506Y-128990506D01*
X109585000Y-90990505D02*
X112190505Y-90990505D01*
X112190505Y-52990505D02*
X112800000Y-53600000D01*
X112190505Y-90990505D02*
X112800000Y-91600000D01*
X112390506Y-128990506D02*
X113000000Y-129600000D01*
X112190507Y-71990507D02*
X112800000Y-72600000D01*
X109584998Y-52990505D02*
X112190505Y-52990505D01*
%TO.N,pinky_top*%
X145190505Y-129990505D02*
X145800000Y-130600000D01*
X150190506Y-109990506D02*
X150800000Y-110600000D01*
X150190506Y-90990506D02*
X150800000Y-91600000D01*
X150190506Y-71990506D02*
X150800000Y-72600000D01*
X147584999Y-109990506D02*
X150190506Y-109990506D01*
X147584999Y-71990506D02*
X150190506Y-71990506D01*
X147585000Y-90990506D02*
X150190506Y-90990506D01*
X150390507Y-52990507D02*
X151000000Y-53600000D01*
X142584998Y-129990505D02*
X145190505Y-129990505D01*
X147584999Y-52990507D02*
X150390507Y-52990507D01*
%TO.N,inner_bottom*%
X197658950Y-113441446D02*
X197675000Y-113425396D01*
X87661428Y-106393186D02*
X87756814Y-106393186D01*
X182500000Y-101950000D02*
X189100000Y-101950000D01*
X110200000Y-94600000D02*
X112200000Y-94600000D01*
X129119999Y-90040506D02*
X129119999Y-86930001D01*
X197675000Y-113425396D02*
X197675000Y-110525000D01*
X68706363Y-113885646D02*
X75290340Y-106825192D01*
X87620842Y-106436706D02*
X87661428Y-106393186D01*
X112200000Y-94600000D02*
X119900000Y-86900000D01*
X164960001Y-104040504D02*
X167120000Y-104040505D01*
X99550000Y-94600000D02*
X99600000Y-94600000D01*
X85546361Y-108885645D02*
X87628394Y-108812939D01*
X110120000Y-98040507D02*
X110120000Y-94680000D01*
X87628394Y-108812939D02*
X87706361Y-108885646D01*
X189100000Y-101950000D02*
X197675000Y-110525000D01*
X150500000Y-95850000D02*
X156600000Y-101950000D01*
X129150000Y-86900000D02*
X138100000Y-95850000D01*
X119900000Y-86900000D02*
X129150000Y-86900000D01*
X99550000Y-94600000D02*
X110200000Y-94600000D01*
X148119998Y-98040506D02*
X148119998Y-95930002D01*
X156600000Y-101950000D02*
X167200000Y-101950000D01*
X66546362Y-113885645D02*
X68706361Y-113885644D01*
X167120000Y-104040505D02*
X167120000Y-102030000D01*
X87756814Y-106393186D02*
X99550000Y-94600000D01*
X167120000Y-102030000D02*
X167200000Y-101950000D01*
X195604668Y-112773971D02*
X196991475Y-112773971D01*
X148200000Y-95850000D02*
X150500000Y-95850000D01*
X138100000Y-95850000D02*
X148200000Y-95850000D01*
X167200000Y-101950000D02*
X182500000Y-101950000D01*
X148119998Y-95930002D02*
X148200000Y-95850000D01*
X87706361Y-108885646D02*
X87620842Y-106436706D01*
X107960001Y-98040506D02*
X110120000Y-98040507D01*
X182800000Y-99200000D02*
X182800000Y-101950000D01*
X75290340Y-106825192D02*
X87661428Y-106393186D01*
X145959999Y-98040505D02*
X148119998Y-98040506D01*
X129119999Y-86930001D02*
X129150000Y-86900000D01*
X110120000Y-94680000D02*
X110200000Y-94600000D01*
X126960000Y-90040505D02*
X129119999Y-90040506D01*
X196991475Y-112773971D02*
X197658950Y-113441446D01*
%TO.N,inner_home*%
X110119999Y-76430001D02*
X110150000Y-76400000D01*
X137000000Y-76600000D02*
X148150000Y-76600000D01*
X110150000Y-76400000D02*
X101000000Y-76400000D01*
X151415505Y-79865505D02*
X161944999Y-79865505D01*
X110119999Y-79040505D02*
X110119999Y-76430001D01*
X85546363Y-89885646D02*
X87706362Y-89885645D01*
X181340506Y-85040506D02*
X182800000Y-86500000D01*
X129119998Y-68780002D02*
X129150000Y-68750000D01*
X148150000Y-76600000D02*
X151415505Y-79865505D01*
X129119998Y-71040506D02*
X129119998Y-68780002D01*
X148119999Y-79040506D02*
X148119999Y-76630001D01*
X66546360Y-94885646D02*
X68706359Y-94885645D01*
X87706363Y-89885644D02*
X87623472Y-87511995D01*
X75205053Y-87916650D02*
X87651431Y-87482013D01*
X90000000Y-87400000D02*
X87651431Y-87482013D01*
X68706361Y-94885645D02*
X75205053Y-87916650D01*
X107960000Y-79040504D02*
X110119999Y-79040505D01*
X110150000Y-76400000D02*
X117800000Y-68750000D01*
X145960000Y-79040505D02*
X148119999Y-79040506D01*
X117800000Y-68750000D02*
X129150000Y-68750000D01*
X148119999Y-76630001D02*
X148150000Y-76600000D01*
X167120000Y-85040506D02*
X181340506Y-85040506D01*
X87623472Y-87511995D02*
X87651431Y-87482013D01*
X126959999Y-71040505D02*
X129119998Y-71040506D01*
X161944999Y-79865505D02*
X167120000Y-85040506D01*
X164960001Y-85040505D02*
X167120000Y-85040506D01*
X129150000Y-68750000D02*
X137000000Y-76600000D01*
X90000000Y-87400000D02*
X101000000Y-76400000D01*
%TO.N,thumb_bottom*%
X184521785Y-146400000D02*
X185600000Y-146400000D01*
X182794835Y-144673050D02*
X184521785Y-146400000D01*
X193457380Y-124641249D02*
X194816131Y-126000000D01*
X194816131Y-126000000D02*
X196400000Y-126000000D01*
%TO.N,pinky_frow*%
X128584999Y-63990506D02*
X131190506Y-63990506D01*
X131390506Y-82990506D02*
X132000000Y-83600000D01*
X131390507Y-44990507D02*
X132000000Y-45600000D01*
X128585000Y-82990506D02*
X131390506Y-82990506D01*
X131190506Y-101990506D02*
X131800000Y-102600000D01*
X128584998Y-44990507D02*
X131390507Y-44990507D01*
X131190506Y-63990506D02*
X131800000Y-64600000D01*
X128584999Y-101990506D02*
X131190506Y-101990506D01*
%TO.N,outer_frow*%
X153000000Y-119000000D02*
X172799800Y-119000000D01*
X148800000Y-114800000D02*
X153000000Y-119000000D01*
X172799800Y-121963332D02*
X172799800Y-119000000D01*
X192427772Y-133572228D02*
X187372028Y-133572228D01*
X140960000Y-118040503D02*
X143119999Y-118040504D01*
X74748706Y-126406024D02*
X87744078Y-125952215D01*
X143200000Y-114800000D02*
X148800000Y-114800000D01*
X87847785Y-125952215D02*
X98993109Y-114806891D01*
X87706361Y-126093639D02*
X87847785Y-125952215D01*
X98993109Y-114806891D02*
X99755305Y-114806891D01*
X85546362Y-127885646D02*
X87706361Y-127885645D01*
X110200000Y-114800000D02*
X143200000Y-114800000D01*
X202500000Y-123500000D02*
X192427772Y-133572228D01*
X185342292Y-132833467D02*
X186633267Y-132833467D01*
X167749000Y-127014132D02*
X172799800Y-121963332D01*
X143119999Y-118040504D02*
X143119999Y-114880001D01*
X107960001Y-117040505D02*
X110120000Y-117040506D01*
X68706361Y-132885643D02*
X66546362Y-132885644D01*
X87706361Y-127885645D02*
X87706361Y-126093639D01*
X110120000Y-114880000D02*
X110200000Y-114800000D01*
X68706361Y-132885645D02*
X74748706Y-126406024D01*
X172799800Y-119000000D02*
X187372028Y-133572228D01*
X87744078Y-125952215D02*
X87847785Y-125952215D01*
X167063624Y-126328756D02*
X167749000Y-127014132D01*
X165700621Y-126328756D02*
X167063624Y-126328756D01*
X202500000Y-96040000D02*
X202500000Y-123500000D01*
X186633267Y-132833467D02*
X187372028Y-133572228D01*
X143119999Y-114880001D02*
X143200000Y-114800000D01*
X110120000Y-117040506D02*
X110120000Y-114880000D01*
X198040000Y-91580000D02*
X202500000Y-96040000D01*
X99000000Y-114800000D02*
X110200000Y-114800000D01*
%TO.N,home_default*%
X169190506Y-96990506D02*
X169800000Y-97600000D01*
X165121795Y-139800000D02*
X166400000Y-139800000D01*
X166585000Y-77990506D02*
X169190506Y-77990506D01*
X169190506Y-77990506D02*
X169800000Y-78600000D01*
X168990506Y-58990506D02*
X169650000Y-59650000D01*
X163503746Y-138181951D02*
X165121795Y-139800000D01*
X166584999Y-96990506D02*
X169190506Y-96990506D01*
X166585000Y-58990506D02*
X166435000Y-58840506D01*
X166585000Y-58990506D02*
X168990506Y-58990506D01*
%TO.N,outer_default*%
X70675467Y-106748200D02*
X71283633Y-107315323D01*
X68171361Y-87835645D02*
X70823861Y-87743017D01*
X70823861Y-87743017D02*
X71420055Y-88298978D01*
X68171361Y-106835645D02*
X70675467Y-106748200D01*
X70778436Y-144744603D02*
X71410544Y-145334055D01*
X68171361Y-144835645D02*
X70778436Y-144744603D01*
X68171362Y-125835646D02*
X70726952Y-125746402D01*
X70772375Y-68744816D02*
X71356598Y-69289614D01*
X68171361Y-68835645D02*
X70772375Y-68744816D01*
X70726952Y-125746402D02*
X71347089Y-126324690D01*
%TO.N,inner_top*%
X167119999Y-67200000D02*
X167119999Y-66040506D01*
X153000000Y-60600000D02*
X161800000Y-60600000D01*
X126960001Y-52040506D02*
X129120000Y-52040507D01*
X110119999Y-60040506D02*
X110119999Y-57830001D01*
X112250000Y-57750000D02*
X120200000Y-49800000D01*
X107960000Y-60040505D02*
X110119999Y-60040506D01*
X85546362Y-70885645D02*
X87628393Y-70812939D01*
X148119999Y-60040506D02*
X145960000Y-60040505D01*
X131200000Y-49800000D02*
X139800000Y-58400000D01*
X136034999Y-50790506D02*
X136034999Y-45505505D01*
X142659997Y-41040507D02*
X140949998Y-41040507D01*
X129200000Y-49800000D02*
X131200000Y-49800000D01*
X98014137Y-57782919D02*
X87645855Y-68901541D01*
X136034999Y-45505505D02*
X140499998Y-41040506D01*
X148119999Y-58480001D02*
X148200000Y-58400000D01*
X161800000Y-60720507D02*
X167119999Y-66040506D01*
X161800000Y-60600000D02*
X161800000Y-60720507D01*
X129120000Y-49880000D02*
X129200000Y-49800000D01*
X164960000Y-66040505D02*
X167640505Y-66040505D01*
X68706362Y-75885646D02*
X74685747Y-69473539D01*
X74685747Y-69473539D02*
X87607169Y-69022313D01*
X87642440Y-69055205D02*
X87607169Y-69022313D01*
X87628393Y-70812939D02*
X87706361Y-70885644D01*
X110200000Y-57750000D02*
X98047056Y-57750000D01*
X110119999Y-57830001D02*
X110200000Y-57750000D01*
X129120000Y-52040507D02*
X129120000Y-49880000D01*
X167119999Y-68279999D02*
X167119999Y-67200000D01*
X150800000Y-58400000D02*
X153000000Y-60600000D01*
X66546362Y-75885645D02*
X68706361Y-75885644D01*
X148200000Y-58400000D02*
X150800000Y-58400000D01*
X110200000Y-57750000D02*
X112250000Y-57750000D01*
X87706361Y-70885644D02*
X87642440Y-69055205D01*
X182800000Y-83960000D02*
X167119999Y-68279999D01*
X98047056Y-57750000D02*
X98014137Y-57782919D01*
X148119999Y-60040506D02*
X148119999Y-58480001D01*
X139800000Y-58400000D02*
X148200000Y-58400000D01*
X120200000Y-49800000D02*
X129200000Y-49800000D01*
%TO.N,pinky_num*%
X87171360Y-82835644D02*
X89827071Y-82742906D01*
X87171361Y-101835644D02*
X89778617Y-101744597D01*
X87171362Y-120835646D02*
X89730163Y-120746290D01*
X87171362Y-139835645D02*
X89781649Y-139744493D01*
X89778617Y-101744597D02*
X90421809Y-102344383D01*
X89781649Y-139744493D02*
X90448781Y-140366604D01*
X89730163Y-120746290D02*
X90385325Y-121357238D01*
X87171362Y-63835645D02*
X89775588Y-63744703D01*
X89775588Y-63744703D02*
X90498264Y-64418611D01*
X89827071Y-82742906D02*
X90458291Y-83331528D01*
%TO.N,VCC*%
X183225001Y-54724999D02*
X182715508Y-54215506D01*
X182715508Y-54215506D02*
X180959495Y-54215506D01*
X184034999Y-54724999D02*
X183225001Y-54724999D01*
X180959495Y-54215506D02*
X178368199Y-56806802D01*
X198040000Y-68730000D02*
X184034999Y-54724999D01*
%TO.N,GND*%
X181050001Y-66970001D02*
X182800000Y-68720000D01*
X178309996Y-57384995D02*
X178050001Y-57125000D01*
X181050001Y-57125000D02*
X181050001Y-66970001D01*
X178309996Y-62040505D02*
X178309996Y-57384995D01*
%TO.N,RAW*%
X182550001Y-57125000D02*
X182550001Y-56900000D01*
X180275001Y-56175000D02*
X179484996Y-56965005D01*
X179484996Y-62865509D02*
X178310000Y-64040505D01*
X181825001Y-56175000D02*
X180275001Y-56175000D01*
X179484996Y-56965005D02*
X179484996Y-62865509D01*
X182550001Y-56900000D02*
X181825001Y-56175000D01*
%TD*%
M02*
