%TF.GenerationSoftware,KiCad,Pcbnew,10.0.0*%
%TF.CreationDate,2026-04-15T13:23:25+03:00*%
%TF.ProjectId,my_left,6d795f6c-6566-4742-9e6b-696361645f70,v1.0.0*%
%TF.SameCoordinates,Original*%
%TF.FileFunction,Copper,L1,Top*%
%TF.FilePolarity,Positive*%
%FSLAX46Y46*%
G04 Gerber Fmt 4.6, Leading zero omitted, Abs format (unit mm)*
G04 Created by KiCad (PCBNEW 10.0.0) date 2026-04-15 13:23:25*
%MOMM*%
%LPD*%
G01*
G04 APERTURE LIST*
G04 Aperture macros list*
%AMRotRect*
0 Rectangle, with rotation*
0 The origin of the aperture is its center*
0 $1 length*
0 $2 width*
0 $3 Rotation angle, in degrees counterclockwise*
0 Add horizontal line*
21,1,$1,$2,0,0,$3*%
G04 Aperture macros list end*
%TA.AperFunction,ComponentPad*%
%ADD10R,1.778000X1.778000*%
%TD*%
%TA.AperFunction,SMDPad,CuDef*%
%ADD11R,0.900000X1.200000*%
%TD*%
%TA.AperFunction,ComponentPad*%
%ADD12C,1.905000*%
%TD*%
%TA.AperFunction,SMDPad,CuDef*%
%ADD13R,2.600000X2.600000*%
%TD*%
%TA.AperFunction,SMDPad,CuDef*%
%ADD14RotRect,2.600000X2.600000X160.000000*%
%TD*%
%TA.AperFunction,ComponentPad*%
%ADD15RotRect,1.778000X1.778000X340.000000*%
%TD*%
%TA.AperFunction,SMDPad,CuDef*%
%ADD16RotRect,0.900000X1.200000X340.000000*%
%TD*%
%TA.AperFunction,SMDPad,CuDef*%
%ADD17RotRect,2.600000X2.600000X162.000000*%
%TD*%
%TA.AperFunction,WasherPad*%
%ADD18C,1.000000*%
%TD*%
%TA.AperFunction,ComponentPad*%
%ADD19C,1.752600*%
%TD*%
%TA.AperFunction,ComponentPad*%
%ADD20R,1.700000X1.200000*%
%TD*%
%TA.AperFunction,ComponentPad*%
%ADD21O,1.700000X1.200000*%
%TD*%
%TA.AperFunction,ComponentPad*%
%ADD22RotRect,1.778000X1.778000X341.500000*%
%TD*%
%TA.AperFunction,SMDPad,CuDef*%
%ADD23RotRect,0.900000X1.200000X341.500000*%
%TD*%
%TA.AperFunction,ComponentPad*%
%ADD24RotRect,1.778000X1.778000X342.000000*%
%TD*%
%TA.AperFunction,SMDPad,CuDef*%
%ADD25RotRect,0.900000X1.200000X342.000000*%
%TD*%
%TA.AperFunction,SMDPad,CuDef*%
%ADD26R,0.900000X0.900000*%
%TD*%
%TA.AperFunction,SMDPad,CuDef*%
%ADD27R,0.900000X1.250000*%
%TD*%
%TA.AperFunction,ViaPad*%
%ADD28C,0.800000*%
%TD*%
%TA.AperFunction,Conductor*%
%ADD29C,0.250000*%
%TD*%
G04 APERTURE END LIST*
D10*
%TO.P,D27,1*%
%TO.N,N/C*%
X159500000Y-47040506D03*
D11*
X161659999Y-47040507D03*
%TO.P,D27,2*%
%TO.N,inner_num*%
X164960001Y-47040505D03*
D12*
X167120000Y-47040506D03*
%TD*%
D13*
%TO.P,S14,1*%
%TO.N,N/C*%
X103034999Y-71990508D03*
%TO.P,S14,2*%
%TO.N,pinky_home*%
X114585000Y-69790507D03*
%TD*%
%TO.P,,1*%
%TO.N,pinky_top*%
X189950000Y-61900000D03*
%TD*%
D10*
%TO.P,D16,1*%
%TO.N,N/C*%
X121499999Y-90040506D03*
D11*
X123659998Y-90040507D03*
%TO.P,D16,2*%
%TO.N,inner_bottom*%
X126960000Y-90040505D03*
D12*
X129119999Y-90040506D03*
%TD*%
D10*
%TO.P,D13,1*%
%TO.N,N/C*%
X102499999Y-79040505D03*
D11*
X104659998Y-79040506D03*
%TO.P,D13,2*%
%TO.N,inner_home*%
X107960000Y-79040504D03*
D12*
X110119999Y-79040505D03*
%TD*%
D14*
%TO.P,S31,1*%
%TO.N,N/C*%
X176639848Y-142432816D03*
%TO.P,S31,2*%
%TO.N,thumb_bottom*%
X188245742Y-144315825D03*
%TD*%
D13*
%TO.P,S17,1*%
%TO.N,N/C*%
X122035000Y-82990507D03*
%TO.P,S17,2*%
%TO.N,pinky_frow*%
X133585001Y-80790506D03*
%TD*%
%TO.P,,1*%
%TO.N,N/C*%
X178850000Y-99900000D03*
%TD*%
D15*
%TO.P,D28,1*%
%TO.N,N/C*%
X180211570Y-130966040D03*
D16*
X182241306Y-131704801D03*
%TO.P,D28,2*%
%TO.N,outer_frow*%
X185342292Y-132833467D03*
D12*
X187372028Y-133572228D03*
%TD*%
D10*
%TO.P,D5,1*%
%TO.N,N/C*%
X61086361Y-56885645D03*
D11*
X63246360Y-56885644D03*
%TO.P,D5,2*%
%TO.N,inner_num*%
X66546360Y-56885644D03*
D12*
X68706359Y-56885643D03*
%TD*%
D10*
%TO.P,D7,1*%
%TO.N,N/C*%
X80086362Y-108885646D03*
D11*
X82246361Y-108885645D03*
%TO.P,D7,2*%
%TO.N,inner_bottom*%
X85546361Y-108885645D03*
D12*
X87706360Y-108885644D03*
%TD*%
D17*
%TO.P,S30,1*%
%TO.N,N/C*%
X157274326Y-136157890D03*
%TO.P,S30,2*%
%TO.N,home_default*%
X168938865Y-137634712D03*
%TD*%
D10*
%TO.P,D23,1*%
%TO.N,N/C*%
X140499998Y-41040506D03*
D11*
X142659997Y-41040507D03*
%TO.P,D23,2*%
%TO.N,inner_num*%
X145959999Y-41040505D03*
D12*
X148119998Y-41040506D03*
%TD*%
D10*
%TO.P,D10,1*%
%TO.N,N/C*%
X80086362Y-51885647D03*
D11*
X82246361Y-51885646D03*
%TO.P,D10,2*%
%TO.N,inner_num*%
X85546361Y-51885646D03*
D12*
X87706360Y-51885645D03*
%TD*%
D10*
%TO.P,D17,1*%
%TO.N,N/C*%
X121499998Y-71040506D03*
D11*
X123659997Y-71040507D03*
%TO.P,D17,2*%
%TO.N,inner_home*%
X126959999Y-71040505D03*
D12*
X129119998Y-71040506D03*
%TD*%
D13*
%TO.P,S2,1*%
%TO.N,N/C*%
X61621362Y-125835645D03*
%TO.P,S2,2*%
%TO.N,outer_default*%
X73171363Y-123635644D03*
%TD*%
D10*
%TO.P,D18,1*%
%TO.N,N/C*%
X121500000Y-52040507D03*
D11*
X123659999Y-52040508D03*
%TO.P,D18,2*%
%TO.N,inner_top*%
X126960001Y-52040506D03*
D12*
X129120000Y-52040507D03*
%TD*%
D13*
%TO.P,S7,1*%
%TO.N,N/C*%
X80621361Y-120835645D03*
%TO.P,S7,2*%
%TO.N,pinky_num*%
X92171362Y-118635644D03*
%TD*%
%TO.P,S19,1*%
%TO.N,N/C*%
X122034998Y-44990508D03*
%TO.P,S19,2*%
%TO.N,pinky_frow*%
X133584999Y-42790507D03*
%TD*%
D10*
%TO.P,D1,1*%
%TO.N,N/C*%
X61086363Y-132885645D03*
D11*
X63246362Y-132885644D03*
%TO.P,D1,2*%
%TO.N,outer_frow*%
X66546362Y-132885644D03*
D12*
X68706361Y-132885643D03*
%TD*%
D13*
%TO.P,,1*%
%TO.N,outer_default*%
X190750000Y-103650000D03*
%TD*%
D10*
%TO.P,D20,1*%
%TO.N,N/C*%
X140499998Y-98040506D03*
D11*
X142659997Y-98040507D03*
%TO.P,D20,2*%
%TO.N,inner_bottom*%
X145959999Y-98040505D03*
D12*
X148119998Y-98040506D03*
%TD*%
D18*
%TO.P,T1,*%
%TO.N,*%
X178800002Y-55050000D03*
X181800000Y-55050000D03*
%TD*%
D10*
%TO.P,D14,1*%
%TO.N,N/C*%
X102499999Y-60040506D03*
D11*
X104659998Y-60040507D03*
%TO.P,D14,2*%
%TO.N,inner_top*%
X107960000Y-60040505D03*
D12*
X110119999Y-60040506D03*
%TD*%
D19*
%TO.P,MCU1,0*%
%TO.N,GND*%
X182800000Y-68720000D03*
%TO.P,MCU1,1*%
%TO.N,N/C*%
X182800000Y-71260000D03*
%TO.P,MCU1,2*%
X182800000Y-73800000D03*
%TO.P,MCU1,3*%
X182800000Y-76340000D03*
%TO.P,MCU1,4*%
X182800000Y-78880000D03*
%TO.P,MCU1,5*%
%TO.N,inner_num*%
X182800000Y-81420000D03*
%TO.P,MCU1,6*%
%TO.N,inner_top*%
X182800000Y-83960000D03*
%TO.P,MCU1,7*%
%TO.N,inner_home*%
X182800000Y-86500000D03*
%TO.P,MCU1,8*%
%TO.N,pinky_num*%
X182800000Y-89040000D03*
%TO.P,MCU1,9*%
%TO.N,N/C*%
X182800000Y-91580000D03*
%TO.P,MCU1,10*%
%TO.N,home_default*%
X182800000Y-94120000D03*
%TO.P,MCU1,11*%
%TO.N,pinky_home*%
X182800000Y-96660000D03*
%TO.P,MCU1,12*%
%TO.N,inner_bottom*%
X182800000Y-99200000D03*
%TO.P,MCU1,13*%
%TO.N,thumb_bottom*%
X198040000Y-99200000D03*
%TO.P,MCU1,14*%
%TO.N,N/C*%
X198040000Y-96660000D03*
%TO.P,MCU1,15*%
%TO.N,outer_default*%
X198040000Y-94120000D03*
%TO.P,MCU1,16*%
%TO.N,outer_frow*%
X198040000Y-91580000D03*
%TO.P,MCU1,17*%
%TO.N,N/C*%
X198040000Y-89040000D03*
%TO.P,MCU1,18*%
%TO.N,pinky_frow*%
X198040000Y-86500000D03*
%TO.P,MCU1,19*%
%TO.N,N/C*%
X198040000Y-83960000D03*
%TO.P,MCU1,20*%
%TO.N,pinky_top*%
X198040000Y-81420000D03*
%TO.P,MCU1,21*%
%TO.N,N/C*%
X198040000Y-78880000D03*
%TO.P,MCU1,22*%
X198040000Y-76340000D03*
%TO.P,MCU1,23*%
X198040000Y-73800000D03*
%TO.P,MCU1,24*%
X198040000Y-71260000D03*
%TO.P,MCU1,25*%
%TO.N,VCC*%
X198040000Y-68730000D03*
%TO.P,MCU1,31*%
%TO.N,N/C*%
X185340000Y-96660000D03*
%TO.P,MCU1,33*%
X190420000Y-96660000D03*
%TD*%
D13*
%TO.P,S23,1*%
%TO.N,N/C*%
X141034999Y-52990508D03*
%TO.P,S23,2*%
%TO.N,pinky_top*%
X152585000Y-50790507D03*
%TD*%
%TO.P,S26,1*%
%TO.N,N/C*%
X160035000Y-77990507D03*
%TO.P,S26,2*%
%TO.N,home_default*%
X171585001Y-75790506D03*
%TD*%
%TO.P,S10,1*%
%TO.N,N/C*%
X80621362Y-63835645D03*
%TO.P,S10,2*%
%TO.N,pinky_num*%
X92171363Y-61635644D03*
%TD*%
D17*
%TO.P,S28,1*%
%TO.N,N/C*%
X187227960Y-122617188D03*
%TO.P,S28,2*%
%TO.N,thumb_bottom*%
X198892499Y-124094010D03*
%TD*%
D10*
%TO.P,D3,1*%
%TO.N,N/C*%
X61086361Y-94885647D03*
D11*
X63246360Y-94885646D03*
%TO.P,D3,2*%
%TO.N,inner_home*%
X66546360Y-94885646D03*
D12*
X68706359Y-94885645D03*
%TD*%
D10*
%TO.P,D24,1*%
%TO.N,N/C*%
X135499999Y-118040504D03*
D11*
X137659998Y-118040505D03*
%TO.P,D24,2*%
%TO.N,outer_frow*%
X140960000Y-118040503D03*
D12*
X143119999Y-118040504D03*
%TD*%
D13*
%TO.P,S24,1*%
%TO.N,N/C*%
X160034999Y-115990507D03*
%TO.P,S24,2*%
%TO.N,home_default*%
X171585000Y-113790506D03*
%TD*%
%TO.P,S9,1*%
%TO.N,N/C*%
X80621360Y-82835645D03*
%TO.P,S9,2*%
%TO.N,pinky_num*%
X92171361Y-80635644D03*
%TD*%
%TO.P,,1*%
%TO.N,N/C*%
X199924185Y-104713157D03*
%TD*%
D10*
%TO.P,D6,1*%
%TO.N,N/C*%
X80086363Y-127885647D03*
D11*
X82246362Y-127885646D03*
%TO.P,D6,2*%
%TO.N,outer_frow*%
X85546362Y-127885646D03*
D12*
X87706361Y-127885645D03*
%TD*%
D13*
%TO.P,S25,1*%
%TO.N,N/C*%
X160034999Y-96990507D03*
%TO.P,S25,2*%
%TO.N,home_default*%
X171585000Y-94790506D03*
%TD*%
D10*
%TO.P,D24,1*%
%TO.N,N/C*%
X159500000Y-104040505D03*
D11*
X161659999Y-104040506D03*
%TO.P,D24,2*%
%TO.N,inner_bottom*%
X164960001Y-104040504D03*
D12*
X167120000Y-104040505D03*
%TD*%
D13*
%TO.P,S29,1*%
%TO.N,N/C*%
X136034998Y-129990506D03*
%TO.P,S29,2*%
%TO.N,pinky_top*%
X147584999Y-127790505D03*
%TD*%
%TO.P,S20,1*%
%TO.N,N/C*%
X141034999Y-109990507D03*
%TO.P,S20,2*%
%TO.N,pinky_top*%
X152585000Y-107790506D03*
%TD*%
D10*
%TO.P,D1,1*%
%TO.N,N/C*%
X61086363Y-113885646D03*
D11*
X63246362Y-113885645D03*
%TO.P,D1,2*%
%TO.N,inner_bottom*%
X66546362Y-113885645D03*
D12*
X68706361Y-113885644D03*
%TD*%
D13*
%TO.P,S22,1*%
%TO.N,N/C*%
X141034999Y-71990507D03*
%TO.P,S22,2*%
%TO.N,pinky_top*%
X152585000Y-69790506D03*
%TD*%
%TO.P,S11,1*%
%TO.N,N/C*%
X103035000Y-128990507D03*
%TO.P,S11,2*%
%TO.N,pinky_home*%
X114585001Y-126790506D03*
%TD*%
%TO.P,,1*%
%TO.N,pinky_frow*%
X195050000Y-62750000D03*
%TD*%
D20*
%TO.P,JST1,1*%
%TO.N,RAW*%
X178310000Y-64040505D03*
D21*
%TO.P,JST1,2*%
%TO.N,GND*%
X178309996Y-62040505D03*
%TD*%
D10*
%TO.P,D26,1*%
%TO.N,N/C*%
X159499999Y-66040506D03*
D11*
X161659998Y-66040507D03*
%TO.P,D26,2*%
%TO.N,inner_top*%
X164960000Y-66040505D03*
D12*
X167119999Y-66040506D03*
%TD*%
D13*
%TO.P,S5,1*%
%TO.N,N/C*%
X61621360Y-68835644D03*
%TO.P,S5,2*%
%TO.N,outer_default*%
X73171361Y-66635643D03*
%TD*%
D10*
%TO.P,D25,1*%
%TO.N,N/C*%
X159500000Y-85040506D03*
D11*
X161659999Y-85040507D03*
%TO.P,D25,2*%
%TO.N,inner_home*%
X164960001Y-85040505D03*
D12*
X167120000Y-85040506D03*
%TD*%
D13*
%TO.P,S18,1*%
%TO.N,N/C*%
X122034999Y-63990507D03*
%TO.P,S18,2*%
%TO.N,pinky_frow*%
X133585000Y-61790506D03*
%TD*%
%TO.P,,1*%
%TO.N,pinky_num*%
X181000000Y-104950000D03*
%TD*%
D10*
%TO.P,D8,1*%
%TO.N,N/C*%
X80086364Y-89885647D03*
D11*
X82246363Y-89885646D03*
%TO.P,D8,2*%
%TO.N,inner_home*%
X85546363Y-89885646D03*
D12*
X87706362Y-89885645D03*
%TD*%
D10*
%TO.P,D22,1*%
%TO.N,N/C*%
X140499999Y-60040506D03*
D11*
X142659998Y-60040507D03*
%TO.P,D22,2*%
%TO.N,inner_top*%
X145960000Y-60040505D03*
D12*
X148119999Y-60040506D03*
%TD*%
D13*
%TO.P,S13,1*%
%TO.N,N/C*%
X103035000Y-90990506D03*
%TO.P,S13,2*%
%TO.N,pinky_home*%
X114585001Y-88790505D03*
%TD*%
D10*
%TO.P,D15,1*%
%TO.N,N/C*%
X102499998Y-41040506D03*
D11*
X104659997Y-41040507D03*
%TO.P,D15,2*%
%TO.N,inner_num*%
X107959999Y-41040505D03*
D12*
X110119998Y-41040506D03*
%TD*%
D10*
%TO.P,D4,1*%
%TO.N,N/C*%
X61086363Y-75885646D03*
D11*
X63246362Y-75885645D03*
%TO.P,D4,2*%
%TO.N,inner_top*%
X66546362Y-75885645D03*
D12*
X68706361Y-75885644D03*
%TD*%
D13*
%TO.P,S12,1*%
%TO.N,N/C*%
X103034998Y-109990507D03*
%TO.P,S12,2*%
%TO.N,pinky_home*%
X114584999Y-107790506D03*
%TD*%
D22*
%TO.P,D28,1*%
%TO.N,N/C*%
X160522772Y-124596274D03*
D23*
X162571151Y-125281650D03*
%TO.P,D28,2*%
%TO.N,outer_frow*%
X165700621Y-126328756D03*
D12*
X167749000Y-127014132D03*
%TD*%
D13*
%TO.P,S15,1*%
%TO.N,N/C*%
X103034998Y-52990506D03*
%TO.P,S15,2*%
%TO.N,pinky_home*%
X114584999Y-50790505D03*
%TD*%
%TO.P,S4,1*%
%TO.N,N/C*%
X61621363Y-87835645D03*
%TO.P,S4,2*%
%TO.N,outer_default*%
X73171364Y-85635644D03*
%TD*%
%TO.P,S6,1*%
%TO.N,N/C*%
X80621362Y-139835645D03*
%TO.P,S6,2*%
%TO.N,pinky_num*%
X92171363Y-137635644D03*
%TD*%
D10*
%TO.P,D12,1*%
%TO.N,N/C*%
X102500000Y-98040507D03*
D11*
X104659999Y-98040508D03*
%TO.P,D12,2*%
%TO.N,inner_bottom*%
X107960001Y-98040506D03*
D12*
X110120000Y-98040507D03*
%TD*%
D13*
%TO.P,S3,1*%
%TO.N,N/C*%
X61621362Y-106835644D03*
%TO.P,S3,2*%
%TO.N,outer_default*%
X73171363Y-104635643D03*
%TD*%
D10*
%TO.P,D21,1*%
%TO.N,N/C*%
X140499999Y-79040506D03*
D11*
X142659998Y-79040507D03*
%TO.P,D21,2*%
%TO.N,inner_home*%
X145960000Y-79040505D03*
D12*
X148119999Y-79040506D03*
%TD*%
D24*
%TO.P,D28,1*%
%TO.N,N/C*%
X190411900Y-111086740D03*
D25*
X192466182Y-111754215D03*
%TO.P,D28,2*%
%TO.N,inner_bottom*%
X195604668Y-112773971D03*
D12*
X197658950Y-113441446D03*
%TD*%
D10*
%TO.P,D11,1*%
%TO.N,N/C*%
X102500000Y-117040506D03*
D11*
X104659999Y-117040507D03*
%TO.P,D11,2*%
%TO.N,outer_frow*%
X107960001Y-117040505D03*
D12*
X110120000Y-117040506D03*
%TD*%
D10*
%TO.P,D9,1*%
%TO.N,N/C*%
X80086362Y-70885645D03*
D11*
X82246361Y-70885644D03*
%TO.P,D9,2*%
%TO.N,inner_top*%
X85546361Y-70885644D03*
D12*
X87706360Y-70885643D03*
%TD*%
D13*
%TO.P,S27,1*%
%TO.N,N/C*%
X160035000Y-58990507D03*
%TO.P,S27,2*%
%TO.N,home_default*%
X171585001Y-56790506D03*
%TD*%
D10*
%TO.P,D19,1*%
%TO.N,N/C*%
X121499999Y-33040506D03*
D11*
X123659998Y-33040507D03*
%TO.P,D19,2*%
%TO.N,inner_num*%
X126960000Y-33040505D03*
D12*
X129119999Y-33040506D03*
%TD*%
D13*
%TO.P,S1,1*%
%TO.N,N/C*%
X61621362Y-144835645D03*
%TO.P,S1,2*%
%TO.N,outer_default*%
X73171363Y-142635644D03*
%TD*%
%TO.P,S8,1*%
%TO.N,N/C*%
X80621363Y-101835645D03*
%TO.P,S8,2*%
%TO.N,pinky_num*%
X92171364Y-99635644D03*
%TD*%
%TO.P,S16,1*%
%TO.N,N/C*%
X122034999Y-101990507D03*
%TO.P,S16,2*%
%TO.N,pinky_frow*%
X133585000Y-99790506D03*
%TD*%
%TO.P,,1*%
%TO.N,N/C*%
X176800000Y-94550000D03*
%TD*%
%TO.P,S21,1*%
%TO.N,N/C*%
X141035000Y-90990507D03*
%TO.P,S21,2*%
%TO.N,pinky_top*%
X152585001Y-88790506D03*
%TD*%
D26*
%TO.P,T1,*%
%TO.N,*%
X184010001Y-53940506D03*
X184010000Y-56140507D03*
D18*
X181809999Y-55040506D03*
X178810001Y-55040506D03*
D26*
X176610000Y-53940505D03*
X176609999Y-56140506D03*
D27*
%TO.P,T1,1*%
%TO.N,RAW*%
X182560000Y-57115506D03*
%TO.P,T1,2*%
%TO.N,VCC*%
X179560000Y-57115506D03*
%TO.P,T1,3*%
%TO.N,GND*%
X178060000Y-57115506D03*
%TD*%
D28*
%TO.N,pinky_home*%
X112800000Y-91600000D03*
X112800000Y-72600000D03*
X112800000Y-53600000D03*
X113000000Y-129600000D03*
X112800000Y-110600000D03*
%TO.N,pinky_top*%
X150800000Y-72600000D03*
X145800000Y-130600000D03*
X151000000Y-53600000D03*
X150800000Y-110600000D03*
X150800000Y-91600000D03*
%TO.N,thumb_bottom*%
X185600000Y-146400000D03*
X196400000Y-126000000D03*
%TO.N,pinky_frow*%
X132000000Y-83600000D03*
X131800000Y-102600000D03*
X131800000Y-64600000D03*
X132000000Y-45600000D03*
%TO.N,home_default*%
X166400000Y-139800000D03*
X169800000Y-78600000D03*
X169650000Y-59650000D03*
X169800000Y-97600000D03*
X169600000Y-116400000D03*
%TO.N,outer_default*%
X71356598Y-69289614D03*
X71410544Y-145334055D03*
X71347089Y-126324690D03*
X71420055Y-88298978D03*
X71283633Y-107315323D03*
%TO.N,pinky_num*%
X90458291Y-83331528D03*
X90385325Y-121357238D03*
X90448781Y-140366604D03*
X90498264Y-64418611D03*
X90421809Y-102344383D03*
%TD*%
%TO.N,home_default*%
D29*
X168938865Y-137634712D02*
X168565288Y-137634712D01*
X168565288Y-137634712D02*
X166400000Y-139800000D01*
%TO.N,pinky_num*%
X92171364Y-99635644D02*
X95409944Y-99635644D01*
X92171364Y-99635644D02*
X92171364Y-100594828D01*
X92171364Y-100594828D02*
X90421809Y-102344383D01*
%TO.N,pinky_top*%
X147584999Y-127790505D02*
X147584999Y-128815001D01*
X147584999Y-128815001D02*
X145800000Y-130600000D01*
X152585000Y-50790507D02*
X157612501Y-45763006D01*
X157612501Y-45763006D02*
X178163006Y-45763006D01*
X178163006Y-45763006D02*
X191000000Y-58600000D01*
X200600000Y-69200000D02*
X200600000Y-78860000D01*
X191000000Y-58600000D02*
X191000000Y-63700000D01*
X191000000Y-63700000D02*
X192000000Y-64700000D01*
X192000000Y-64700000D02*
X196100000Y-64700000D01*
X196100000Y-64700000D02*
X200600000Y-69200000D01*
X200600000Y-78860000D02*
X198040000Y-81420000D01*
%TO.N,*%
X122600000Y-82600000D02*
X122600000Y-72315001D01*
X62209944Y-115042249D02*
X60886361Y-113718666D01*
X103600000Y-61115001D02*
X102500000Y-60015001D01*
X82246362Y-127885646D02*
X80086363Y-127885647D01*
X103600000Y-109600000D02*
X103600000Y-99315001D01*
X104659998Y-79040506D02*
X102499999Y-79040505D01*
X159500000Y-88500000D02*
X159500000Y-85040506D01*
X103600000Y-71400000D02*
X103600000Y-61115001D01*
X122034999Y-63990507D02*
X122600000Y-63425506D01*
X140499999Y-85099999D02*
X141600000Y-86200000D01*
X136600000Y-129425504D02*
X136600000Y-122200000D01*
X160035000Y-77990507D02*
X160250000Y-77775507D01*
X62409944Y-87527248D02*
X62409944Y-77242249D01*
X160800000Y-113800000D02*
X160800000Y-107400000D01*
X62309944Y-134142249D02*
X61209944Y-133042249D01*
X160034999Y-114565001D02*
X160800000Y-113800000D01*
X140499998Y-100299998D02*
X140499998Y-98040506D01*
X122600000Y-44425506D02*
X122600000Y-37200000D01*
X81409944Y-72242249D02*
X80086361Y-70918666D01*
X62409944Y-68527248D02*
X62409944Y-58242249D01*
X81209944Y-110042249D02*
X79886361Y-108718666D01*
X81309944Y-139427248D02*
X81309944Y-129142249D01*
X122600000Y-37200000D02*
X121499999Y-36099999D01*
X81140991Y-63379101D02*
X81140991Y-53094102D01*
X122800000Y-91315001D02*
X121700000Y-90215001D01*
X122034998Y-44990508D02*
X122600000Y-44425506D01*
X140499999Y-79040506D02*
X140499999Y-85099999D01*
X81309944Y-129142249D02*
X80209944Y-128042249D01*
X63246362Y-113885645D02*
X61086363Y-113885646D01*
X159500000Y-47040506D02*
X159500000Y-54500000D01*
X159200000Y-125919046D02*
X160522772Y-124596274D01*
X157274326Y-136157890D02*
X159200000Y-134232216D01*
X104659998Y-60040507D02*
X102499999Y-60040506D01*
X160035000Y-55035000D02*
X160035000Y-58990507D01*
X103035000Y-128990507D02*
X103600000Y-128425507D01*
X123659997Y-71040507D02*
X121499998Y-71040506D01*
X82246361Y-108885645D02*
X80086362Y-108885646D01*
X123659998Y-90040507D02*
X121499999Y-90040506D01*
X191079375Y-111754215D02*
X190411900Y-111086740D01*
X159500000Y-58455507D02*
X160035000Y-58990507D01*
X140499999Y-79040506D02*
X142659998Y-79040507D01*
X141600000Y-109425506D02*
X141600000Y-101400000D01*
X123659999Y-52040508D02*
X121500000Y-52040507D01*
X141600000Y-101400000D02*
X140499998Y-100299998D01*
X180211570Y-130966040D02*
X180211570Y-135288430D01*
X178800000Y-140272664D02*
X176639848Y-142432816D01*
X161659999Y-47040507D02*
X159500000Y-47040506D01*
X136600000Y-122200000D02*
X135499999Y-121099999D01*
X159499999Y-67999999D02*
X159499999Y-66040506D01*
X160034999Y-96990507D02*
X160800000Y-96225506D01*
X160250000Y-77775507D02*
X160250000Y-68750000D01*
X160034999Y-115990507D02*
X160034999Y-114565001D01*
X178800000Y-136700000D02*
X178800000Y-140272664D01*
X103600000Y-128425507D02*
X103600000Y-121000000D01*
X121499999Y-36099999D02*
X121499999Y-33040506D01*
X161659998Y-66040507D02*
X159499999Y-66040506D01*
X82246361Y-70885644D02*
X80086362Y-70885645D01*
X141034999Y-71990507D02*
X141800000Y-71225506D01*
X160800000Y-89800000D02*
X159500000Y-88500000D01*
X82246361Y-51885646D02*
X80086362Y-51885647D01*
X81140991Y-53094102D02*
X79817408Y-51770519D01*
X63246362Y-132885644D02*
X61086363Y-132885645D01*
X189400000Y-120445148D02*
X189400000Y-112098640D01*
X142659997Y-98040507D02*
X140499998Y-98040506D01*
X122800000Y-101600000D02*
X122800000Y-91315001D01*
X104659999Y-117040507D02*
X102500000Y-117040506D01*
X141600000Y-90425507D02*
X141035000Y-90990507D01*
X182241306Y-131704801D02*
X180950331Y-131704801D01*
X141800000Y-66600000D02*
X140499999Y-65299999D01*
X81409944Y-101527248D02*
X81409944Y-91242249D01*
X159500000Y-106100000D02*
X159500000Y-104040505D01*
X180211570Y-135288430D02*
X178800000Y-136700000D01*
X103600000Y-121000000D02*
X102500000Y-119900000D01*
X162571151Y-125281650D02*
X161208148Y-125281650D01*
X160800000Y-107400000D02*
X159500000Y-106100000D01*
X136034998Y-129990506D02*
X136600000Y-129425504D01*
X122600000Y-53140507D02*
X121500000Y-52040507D01*
X62309944Y-144427248D02*
X62309944Y-134142249D01*
X62409944Y-58242249D02*
X61086361Y-56918666D01*
X103600000Y-99315001D02*
X102500000Y-98215001D01*
X103600000Y-52400000D02*
X103600000Y-42115001D01*
X102500000Y-119900000D02*
X102500000Y-117040506D01*
X61086361Y-56918666D02*
X61086361Y-56885645D01*
X161208148Y-125281650D02*
X160522772Y-124596274D01*
X180950331Y-131704801D02*
X180211570Y-130966040D01*
X62409944Y-77242249D02*
X61086361Y-75918666D01*
X81409944Y-91242249D02*
X80086361Y-89918666D01*
X63246360Y-94885646D02*
X61086361Y-94885647D01*
X159500000Y-54500000D02*
X160035000Y-55035000D01*
X82246363Y-89885646D02*
X80086364Y-89885647D01*
X63246360Y-56885644D02*
X61086361Y-56885645D01*
X122600000Y-72315001D02*
X121500000Y-71215001D01*
X123659998Y-33040507D02*
X121499999Y-33040506D01*
X62209944Y-125327248D02*
X62209944Y-115042249D01*
X81409944Y-82527248D02*
X81409944Y-72242249D01*
X160800000Y-96225506D02*
X160800000Y-89800000D01*
X103600000Y-42115001D02*
X102500000Y-41015001D01*
X189400000Y-112098640D02*
X190411900Y-111086740D01*
X122600000Y-63425506D02*
X122600000Y-53140507D01*
X141800000Y-71225506D02*
X141800000Y-66600000D01*
X160250000Y-68750000D02*
X159499999Y-67999999D01*
X63246362Y-75885645D02*
X61086363Y-75885646D01*
X159200000Y-134232216D02*
X159200000Y-125919046D01*
X141034999Y-109990507D02*
X141600000Y-109425506D01*
X62209944Y-106327248D02*
X62209944Y-96042249D01*
X137659998Y-118040505D02*
X135499999Y-118040504D01*
X62209944Y-96042249D02*
X60886361Y-94718666D01*
X81209944Y-120327248D02*
X81209944Y-110042249D01*
X104659999Y-98040508D02*
X102500000Y-98040507D01*
X184010001Y-53940506D02*
X184010000Y-56140507D01*
X187227960Y-122617188D02*
X189400000Y-120445148D01*
X142659998Y-60040507D02*
X140499999Y-60040506D01*
X135499999Y-121099999D02*
X135499999Y-118040504D01*
X141600000Y-86200000D02*
X141600000Y-90425507D01*
X161659999Y-104040506D02*
X159500000Y-104040505D01*
X104659997Y-41040507D02*
X102499998Y-41040506D01*
X140499999Y-65299999D02*
X140499999Y-60040506D01*
X192466182Y-111754215D02*
X191079375Y-111754215D01*
X161659999Y-85040507D02*
X159500000Y-85040506D01*
%TO.N,inner_num*%
X167120000Y-47040506D02*
X164960001Y-47040505D01*
X87628393Y-51812940D02*
X87706360Y-51885646D01*
X126960000Y-33040505D02*
X129119999Y-33040506D01*
X66546361Y-56885644D02*
X68628393Y-56812938D01*
X68628393Y-56812938D02*
X68706361Y-56885645D01*
X107959999Y-41040505D02*
X110119998Y-41040506D01*
X85546361Y-51885645D02*
X87628393Y-51812940D01*
X145959999Y-41040505D02*
X148119998Y-41040506D01*
%TO.N,pinky_home*%
X114584999Y-50790505D02*
X114584999Y-51815001D01*
X114585001Y-126790506D02*
X120794495Y-133000000D01*
X116400000Y-69800000D02*
X116400000Y-88800000D01*
X182800000Y-96660000D02*
X177847127Y-101612873D01*
X116400000Y-124975507D02*
X114585001Y-126790506D01*
X134000000Y-133000000D02*
X120794495Y-133000000D01*
X114585000Y-69790507D02*
X114585000Y-70815000D01*
X114585001Y-126790506D02*
X114585001Y-128014999D01*
X114584999Y-107790506D02*
X116390506Y-107790506D01*
X114585001Y-88790505D02*
X116390505Y-88790505D01*
X116390507Y-69790507D02*
X116400000Y-69800000D01*
X114584999Y-50790505D02*
X116400000Y-52605506D01*
X116390505Y-88790505D02*
X116400000Y-88800000D01*
X116400000Y-52605506D02*
X116400000Y-69800000D01*
X116390506Y-107790506D02*
X116400000Y-107800000D01*
X114585001Y-88790505D02*
X114585001Y-89814999D01*
X166134184Y-143524043D02*
X160532665Y-143524043D01*
X116400000Y-107800000D02*
X116400000Y-124975507D01*
X116400000Y-88800000D02*
X116400000Y-107800000D01*
X114585000Y-69790507D02*
X116390507Y-69790507D01*
X160532665Y-143524043D02*
X136486283Y-135486283D01*
X114585001Y-128014999D02*
X113000000Y-129600000D01*
X114584999Y-107790506D02*
X114584999Y-108815001D01*
X114585000Y-70815000D02*
X112800000Y-72600000D01*
X177847127Y-101612873D02*
X177847127Y-131811100D01*
X114584999Y-108815001D02*
X112800000Y-110600000D01*
X114584999Y-51815001D02*
X112800000Y-53600000D01*
X114585001Y-89814999D02*
X112800000Y-91600000D01*
X177847127Y-131811100D02*
X166134184Y-143524043D01*
X136486283Y-135486283D02*
X134000000Y-133000000D01*
%TO.N,pinky_top*%
X154600000Y-122600000D02*
X149409495Y-127790505D01*
X152585000Y-50790507D02*
X154600000Y-52805507D01*
X152585000Y-69790506D02*
X152585000Y-70815000D01*
X149409495Y-127790505D02*
X147584999Y-127790505D01*
X154600000Y-69800000D02*
X154600000Y-88600000D01*
X152585001Y-89814999D02*
X150800000Y-91600000D01*
X152585000Y-69790506D02*
X154590506Y-69790506D01*
X152585000Y-70815000D02*
X150800000Y-72600000D01*
X154590506Y-107790506D02*
X154600000Y-107800000D01*
X154600000Y-107800000D02*
X154600000Y-122600000D01*
X152585000Y-107790506D02*
X154590506Y-107790506D01*
X150800000Y-110600000D02*
X152585000Y-108815000D01*
X152585000Y-108815000D02*
X152585000Y-107790506D01*
X154600000Y-52805507D02*
X154600000Y-69800000D01*
X154409494Y-88790506D02*
X154600000Y-88600000D01*
X152585001Y-88790506D02*
X152585001Y-89814999D01*
X154590506Y-69790506D02*
X154600000Y-69800000D01*
X152585000Y-52015000D02*
X152585000Y-50790507D01*
X154600000Y-88600000D02*
X154600000Y-107800000D01*
X152585001Y-88790506D02*
X154409494Y-88790506D01*
X151000000Y-53600000D02*
X152585000Y-52015000D01*
%TO.N,inner_bottom*%
X66546362Y-113885645D02*
X68628394Y-113812938D01*
X107960001Y-98040506D02*
X110120000Y-98040507D01*
X164960001Y-104040504D02*
X167120000Y-104040505D01*
X87628394Y-108812939D02*
X87706361Y-108885646D01*
X68628394Y-113812938D02*
X68706363Y-113885646D01*
X196991475Y-112773971D02*
X197658950Y-113441446D01*
X126960000Y-90040505D02*
X129119999Y-90040506D01*
X145959999Y-98040505D02*
X148119998Y-98040506D01*
X195604668Y-112773971D02*
X196991475Y-112773971D01*
X85546361Y-108885645D02*
X87628394Y-108812939D01*
%TO.N,inner_home*%
X85546362Y-89885644D02*
X87628394Y-89812938D01*
X68628393Y-94812939D02*
X68706361Y-94885645D01*
X126959999Y-71040505D02*
X129119998Y-71040506D01*
X87628394Y-89812938D02*
X87706363Y-89885644D01*
X164960001Y-85040505D02*
X167120000Y-85040506D01*
X107960000Y-79040504D02*
X110119999Y-79040505D01*
X66546361Y-94885645D02*
X68628393Y-94812939D01*
X145960000Y-79040505D02*
X148119999Y-79040506D01*
%TO.N,thumb_bottom*%
X199924185Y-101084185D02*
X198040000Y-99200000D01*
X188245742Y-144315825D02*
X186161567Y-146400000D01*
X186161567Y-146400000D02*
X185600000Y-146400000D01*
X199924185Y-123062324D02*
X199924185Y-101084185D01*
X198892499Y-124094010D02*
X198305990Y-124094010D01*
X198892499Y-124094010D02*
X199924185Y-123062324D01*
X198892499Y-133669068D02*
X198892499Y-124094010D01*
X198305990Y-124094010D02*
X196400000Y-126000000D01*
X188245742Y-144315825D02*
X198892499Y-133669068D01*
%TO.N,pinky_frow*%
X133585000Y-99790506D02*
X133585000Y-100815000D01*
X157500000Y-45313006D02*
X151686994Y-39500000D01*
X133585000Y-100815000D02*
X131800000Y-102600000D01*
X135800000Y-45005508D02*
X135800000Y-61800000D01*
X133585000Y-62815000D02*
X131800000Y-64600000D01*
X135790506Y-80790506D02*
X135800000Y-80800000D01*
X133585001Y-82014999D02*
X132000000Y-83600000D01*
X133584999Y-42790507D02*
X133584999Y-44015001D01*
X194500000Y-61463604D02*
X178349402Y-45313006D01*
X201050000Y-68750000D02*
X195050000Y-62750000D01*
X178349402Y-45313006D02*
X157500000Y-45313006D01*
X135800000Y-61800000D02*
X135800000Y-80800000D01*
X135800000Y-97575506D02*
X133585000Y-99790506D01*
X133585001Y-80790506D02*
X135790506Y-80790506D01*
X201050000Y-83490000D02*
X201050000Y-68750000D01*
X133584999Y-42790507D02*
X135800000Y-45005508D01*
X133584999Y-44015001D02*
X132000000Y-45600000D01*
X133585000Y-61790506D02*
X135790506Y-61790506D01*
X136875506Y-39500000D02*
X133584999Y-42790507D01*
X133585000Y-61790506D02*
X133585000Y-62815000D01*
X135800000Y-80800000D02*
X135800000Y-97575506D01*
X151686994Y-39500000D02*
X136875506Y-39500000D01*
X135790506Y-61790506D02*
X135800000Y-61800000D01*
X133585001Y-80790506D02*
X133585001Y-82014999D01*
X198040000Y-86500000D02*
X201050000Y-83490000D01*
%TO.N,outer_frow*%
X87628393Y-127812940D02*
X87706363Y-127885645D01*
X165700621Y-126328756D02*
X167063624Y-126328756D01*
X185342292Y-132833467D02*
X186633267Y-132833467D01*
X66546361Y-132885643D02*
X68628392Y-132812938D01*
X186633267Y-132833467D02*
X187372028Y-133572228D01*
X107960001Y-117040505D02*
X110120000Y-117040506D01*
X167063624Y-126328756D02*
X167749000Y-127014132D01*
X85546362Y-127885645D02*
X87628393Y-127812940D01*
X68628392Y-132812938D02*
X68706361Y-132885645D01*
X140960000Y-118040503D02*
X143119999Y-118040504D01*
%TO.N,home_default*%
X169800000Y-96575506D02*
X169800000Y-97600000D01*
X174600000Y-94750000D02*
X175230000Y-94120000D01*
X174600000Y-94750000D02*
X174600000Y-113750000D01*
X171585000Y-94790506D02*
X174559494Y-94790506D01*
X174600000Y-113750000D02*
X174600000Y-131973577D01*
X171585001Y-76814999D02*
X169800000Y-78600000D01*
X171585001Y-75790506D02*
X174559494Y-75790506D01*
X175230000Y-94120000D02*
X182800000Y-94120000D01*
X174600000Y-75750000D02*
X174600000Y-94750000D01*
X171585001Y-57714999D02*
X169650000Y-59650000D01*
X174600000Y-131973577D02*
X168938865Y-137634712D01*
X171585000Y-113790506D02*
X171585000Y-114415000D01*
X171585001Y-56790506D02*
X171585001Y-57714999D01*
X174559494Y-113790506D02*
X174600000Y-113750000D01*
X174600000Y-59805505D02*
X174600000Y-75750000D01*
X171585000Y-94790506D02*
X169800000Y-96575506D01*
X171585000Y-113790506D02*
X174559494Y-113790506D01*
X171585001Y-75790506D02*
X171585001Y-76814999D01*
X171585001Y-56790506D02*
X174600000Y-59805505D01*
X174559494Y-94790506D02*
X174600000Y-94750000D01*
X174559494Y-75790506D02*
X174600000Y-75750000D01*
X171585000Y-114415000D02*
X169600000Y-116400000D01*
%TO.N,outer_default*%
X73171362Y-104635646D02*
X73193421Y-105267328D01*
X73171363Y-104635643D02*
X75603338Y-104635643D01*
X75603339Y-85635644D02*
X75609944Y-85642249D01*
X75609944Y-69842249D02*
X73171361Y-67403666D01*
X166506976Y-144424043D02*
X160386225Y-144424043D01*
X83763633Y-143600000D02*
X92871276Y-140956507D01*
X73171361Y-66635645D02*
X74212361Y-67606393D01*
X73198631Y-143416566D02*
X71410544Y-145334055D01*
X74135719Y-143600000D02*
X83763633Y-143600000D01*
X73197795Y-86392585D02*
X71420055Y-88298978D01*
X98327783Y-135500000D02*
X98400000Y-135500000D01*
X75609944Y-123442249D02*
X75609944Y-140197063D01*
X134869431Y-135894781D02*
X134474650Y-135500000D01*
X190750000Y-103650000D02*
X186400000Y-103650000D01*
X75609944Y-140197063D02*
X73171363Y-142635644D01*
X178747127Y-111252873D02*
X178747127Y-132183892D01*
X73196026Y-124341947D02*
X71347089Y-126324690D01*
X160386225Y-144424043D02*
X134869431Y-135894781D01*
X186375000Y-103625000D02*
X195880000Y-94120000D01*
X195880000Y-94120000D02*
X198040000Y-94120000D01*
X186375000Y-103625000D02*
X178747127Y-111252873D01*
X75609944Y-104642249D02*
X75609944Y-123442249D01*
X75609944Y-85642249D02*
X75609944Y-69842249D01*
X73171361Y-142635646D02*
X73198631Y-143416566D01*
X73171362Y-123635645D02*
X73196026Y-124341947D01*
X92871276Y-140956507D02*
X98327783Y-135500000D01*
X73171362Y-85635646D02*
X73197795Y-86392585D01*
X75416549Y-123635644D02*
X75609944Y-123442249D01*
X134474650Y-135500000D02*
X98400000Y-135500000D01*
X73171361Y-67403666D02*
X73171361Y-66635643D01*
X186400000Y-103650000D02*
X186375000Y-103625000D01*
X73171364Y-85635644D02*
X75603339Y-85635644D01*
X75609944Y-85642249D02*
X75609944Y-104642249D01*
X73193421Y-105267328D02*
X71283633Y-107315323D01*
X73195189Y-67317968D02*
X71356598Y-69289614D01*
X178747127Y-132183892D02*
X166506976Y-144424043D01*
X75603338Y-104635643D02*
X75609944Y-104642249D01*
X73171363Y-142635644D02*
X74135719Y-143600000D01*
X73171361Y-66635645D02*
X73195189Y-67317968D01*
X73171363Y-123635644D02*
X75416549Y-123635644D01*
%TO.N,inner_top*%
X141034999Y-52990508D02*
X141500000Y-52525507D01*
X87628393Y-70812939D02*
X87706361Y-70885644D01*
X68628395Y-75812938D02*
X68706362Y-75885646D01*
X126960001Y-52040506D02*
X129120000Y-52040507D01*
X145960000Y-60040505D02*
X148119999Y-60040506D01*
X140499998Y-52455507D02*
X141034999Y-52990508D01*
X141500000Y-45100000D02*
X140499998Y-44099998D01*
X142659997Y-41040507D02*
X140499998Y-41040506D01*
X164960000Y-66040505D02*
X167119999Y-66040506D01*
X141500000Y-52525507D02*
X141500000Y-45100000D01*
X107960000Y-60040505D02*
X110119999Y-60040506D01*
X85546362Y-70885645D02*
X87628393Y-70812939D01*
X66546361Y-75885644D02*
X68628395Y-75812938D01*
X140499998Y-44099998D02*
X140499998Y-41040506D01*
%TO.N,pinky_num*%
X166320580Y-143974043D02*
X160459445Y-143974043D01*
X178297127Y-131997496D02*
X166320580Y-143974043D01*
X181000000Y-104950000D02*
X181000000Y-108363604D01*
X178297127Y-111066477D02*
X178297127Y-131997496D01*
X95409944Y-118642249D02*
X95409944Y-99842249D01*
X92171361Y-118635645D02*
X92198502Y-119412843D01*
X92171361Y-80635643D02*
X92200271Y-81463483D01*
X92198502Y-119412843D02*
X90385325Y-121357238D01*
X92200271Y-81463483D02*
X90458291Y-83331528D01*
X95409944Y-134457751D02*
X95409944Y-118642249D01*
X92171361Y-80635644D02*
X95403339Y-80635644D01*
X92171362Y-118635644D02*
X95403339Y-118635644D01*
X95409944Y-64774359D02*
X95409944Y-99842249D01*
X90498264Y-64418611D02*
X92204644Y-62588742D01*
X92171363Y-137635644D02*
X92171363Y-138644022D01*
X95452193Y-134500000D02*
X95409944Y-134457751D01*
X92171363Y-137635646D02*
X92201108Y-138487462D01*
X187500000Y-101863604D02*
X187500000Y-93740000D01*
X95409944Y-134457751D02*
X92232051Y-137635644D01*
X134500000Y-134500000D02*
X95452193Y-134500000D01*
X95403339Y-118635644D02*
X95409944Y-118642249D01*
X92171360Y-61635646D02*
X93651222Y-63015637D01*
X92204644Y-62588742D02*
X92171360Y-61635646D01*
X181000000Y-108363604D02*
X187500000Y-101863604D01*
X181000000Y-108363604D02*
X178297127Y-111066477D01*
X135696896Y-135696896D02*
X134500000Y-134500000D01*
X187500000Y-93740000D02*
X182800000Y-89040000D01*
X92232051Y-137635644D02*
X92171363Y-137635644D01*
X160459445Y-143974043D02*
X135696896Y-135696896D01*
X92171363Y-138644022D02*
X90448781Y-140366604D01*
X93651222Y-63015637D02*
X95409944Y-64774359D01*
%TO.N,VCC*%
X179560000Y-57115506D02*
X191174494Y-68730000D01*
X191174494Y-68730000D02*
X198040000Y-68730000D01*
%TO.N,GND*%
X182800000Y-68720000D02*
X182800000Y-66530509D01*
X178060000Y-61790509D02*
X178309996Y-62040505D01*
X178060000Y-57115506D02*
X178060000Y-61790509D01*
X178309996Y-62040505D02*
X179500000Y-63230509D01*
X182800000Y-66530509D02*
X178309996Y-62040505D01*
%TO.N,RAW*%
X177384999Y-55365506D02*
X178019493Y-56000000D01*
X175835000Y-61565505D02*
X175834999Y-55365506D01*
X175834999Y-55365506D02*
X177384999Y-55365506D01*
X178310000Y-64040505D02*
X175835000Y-61565505D01*
X181444494Y-56000000D02*
X182560000Y-57115506D01*
X178019493Y-56000000D02*
X181444494Y-56000000D01*
%TD*%
M02*
