%TF.GenerationSoftware,KiCad,Pcbnew,10.0.0*%
%TF.CreationDate,2026-04-15T13:23:26+03:00*%
%TF.ProjectId,my_left,6d795f6c-6566-4742-9e6b-696361645f70,v1.0.0*%
%TF.SameCoordinates,Original*%
%TF.FileFunction,AssemblyDrawing,Top*%
%FSLAX46Y46*%
G04 Gerber Fmt 4.6, Leading zero omitted, Abs format (unit mm)*
G04 Created by KiCad (PCBNEW 10.0.0) date 2026-04-15 13:23:26*
%MOMM*%
%LPD*%
G01*
G04 APERTURE LIST*
%ADD10C,0.150000*%
G04 APERTURE END LIST*
D10*
X138666667Y-33454819D02*
X138666667Y-32454819D01*
X138666667Y-32454819D02*
X139000000Y-33169104D01*
X139000000Y-33169104D02*
X139333333Y-32454819D01*
X139333333Y-32454819D02*
X139333333Y-33454819D01*
X139809524Y-33454819D02*
X139809524Y-32454819D01*
X139809524Y-32931009D02*
X140380952Y-32931009D01*
X140380952Y-33454819D02*
X140380952Y-32454819D01*
X140809524Y-32550057D02*
X140857143Y-32502438D01*
X140857143Y-32502438D02*
X140952381Y-32454819D01*
X140952381Y-32454819D02*
X141190476Y-32454819D01*
X141190476Y-32454819D02*
X141285714Y-32502438D01*
X141285714Y-32502438D02*
X141333333Y-32550057D01*
X141333333Y-32550057D02*
X141380952Y-32645295D01*
X141380952Y-32645295D02*
X141380952Y-32740533D01*
X141380952Y-32740533D02*
X141333333Y-32883390D01*
X141333333Y-32883390D02*
X140761905Y-33454819D01*
X140761905Y-33454819D02*
X141380952Y-33454819D01*
X93293296Y-47343323D02*
X93258396Y-46343932D01*
X93258396Y-46343932D02*
X93616455Y-47046150D01*
X93616455Y-47046150D02*
X93924657Y-46320666D01*
X93924657Y-46320666D02*
X93959556Y-47320057D01*
X94435457Y-47303438D02*
X94400557Y-46304047D01*
X94417176Y-46779948D02*
X94988257Y-46760005D01*
X95006537Y-47283495D02*
X94971638Y-46284105D01*
X96005928Y-47248596D02*
X95434848Y-47268538D01*
X95720388Y-47258567D02*
X95685488Y-46259176D01*
X95685488Y-46259176D02*
X95595294Y-46405270D01*
X95595294Y-46405270D02*
X95503437Y-46503774D01*
X95503437Y-46503774D02*
X95409919Y-46554688D01*
X122566667Y-119654819D02*
X122566667Y-118654819D01*
X122566667Y-118654819D02*
X122900000Y-119369104D01*
X122900000Y-119369104D02*
X123233333Y-118654819D01*
X123233333Y-118654819D02*
X123233333Y-119654819D01*
X123709524Y-119654819D02*
X123709524Y-118654819D01*
X123709524Y-119131009D02*
X124280952Y-119131009D01*
X124280952Y-119654819D02*
X124280952Y-118654819D01*
X125185714Y-118988152D02*
X125185714Y-119654819D01*
X124947619Y-118607200D02*
X124709524Y-119321485D01*
X124709524Y-119321485D02*
X125328571Y-119321485D01*
X201316667Y-64454819D02*
X201316667Y-63454819D01*
X201316667Y-63454819D02*
X201650000Y-64169104D01*
X201650000Y-64169104D02*
X201983333Y-63454819D01*
X201983333Y-63454819D02*
X201983333Y-64454819D01*
X202459524Y-64454819D02*
X202459524Y-63454819D01*
X202459524Y-63931009D02*
X203030952Y-63931009D01*
X203030952Y-64454819D02*
X203030952Y-63454819D01*
X203411905Y-63454819D02*
X204030952Y-63454819D01*
X204030952Y-63454819D02*
X203697619Y-63835771D01*
X203697619Y-63835771D02*
X203840476Y-63835771D01*
X203840476Y-63835771D02*
X203935714Y-63883390D01*
X203935714Y-63883390D02*
X203983333Y-63931009D01*
X203983333Y-63931009D02*
X204030952Y-64026247D01*
X204030952Y-64026247D02*
X204030952Y-64264342D01*
X204030952Y-64264342D02*
X203983333Y-64359580D01*
X203983333Y-64359580D02*
X203935714Y-64407200D01*
X203935714Y-64407200D02*
X203840476Y-64454819D01*
X203840476Y-64454819D02*
X203554762Y-64454819D01*
X203554762Y-64454819D02*
X203459524Y-64407200D01*
X203459524Y-64407200D02*
X203411905Y-64359580D01*
M02*
