%TF.GenerationSoftware,KiCad,Pcbnew,10.0.0*%
%TF.CreationDate,2026-04-15T13:23:26+03:00*%
%TF.ProjectId,my_left,6d795f6c-6566-4742-9e6b-696361645f70,v1.0.0*%
%TF.SameCoordinates,Original*%
%TF.FileFunction,Legend,Top*%
%TF.FilePolarity,Positive*%
%FSLAX46Y46*%
G04 Gerber Fmt 4.6, Leading zero omitted, Abs format (unit mm)*
G04 Created by KiCad (PCBNEW 10.0.0) date 2026-04-15 13:23:26*
%MOMM*%
%LPD*%
G01*
G04 APERTURE LIST*
%ADD10C,0.150000*%
%ADD11C,0.100000*%
%ADD12C,0.381000*%
%ADD13C,1.752600*%
G04 APERTURE END LIST*
D10*
X138666667Y-29454819D02*
X138666667Y-28454819D01*
X138666667Y-28454819D02*
X139000000Y-29169104D01*
X139000000Y-29169104D02*
X139333333Y-28454819D01*
X139333333Y-28454819D02*
X139333333Y-29454819D01*
X139809524Y-29454819D02*
X139809524Y-28454819D01*
X139809524Y-28931009D02*
X140380952Y-28931009D01*
X140380952Y-29454819D02*
X140380952Y-28454819D01*
X140809524Y-28550057D02*
X140857143Y-28502438D01*
X140857143Y-28502438D02*
X140952381Y-28454819D01*
X140952381Y-28454819D02*
X141190476Y-28454819D01*
X141190476Y-28454819D02*
X141285714Y-28502438D01*
X141285714Y-28502438D02*
X141333333Y-28550057D01*
X141333333Y-28550057D02*
X141380952Y-28645295D01*
X141380952Y-28645295D02*
X141380952Y-28740533D01*
X141380952Y-28740533D02*
X141333333Y-28883390D01*
X141333333Y-28883390D02*
X140761905Y-29454819D01*
X140761905Y-29454819D02*
X141380952Y-29454819D01*
X184444714Y-68663247D02*
X184559000Y-68701342D01*
X184559000Y-68701342D02*
X184597095Y-68739438D01*
X184597095Y-68739438D02*
X184635191Y-68815628D01*
X184635191Y-68815628D02*
X184635191Y-68929914D01*
X184635191Y-68929914D02*
X184597095Y-69006104D01*
X184597095Y-69006104D02*
X184559000Y-69044200D01*
X184559000Y-69044200D02*
X184482810Y-69082295D01*
X184482810Y-69082295D02*
X184178048Y-69082295D01*
X184178048Y-69082295D02*
X184178048Y-68282295D01*
X184178048Y-68282295D02*
X184444714Y-68282295D01*
X184444714Y-68282295D02*
X184520905Y-68320390D01*
X184520905Y-68320390D02*
X184559000Y-68358485D01*
X184559000Y-68358485D02*
X184597095Y-68434676D01*
X184597095Y-68434676D02*
X184597095Y-68510866D01*
X184597095Y-68510866D02*
X184559000Y-68587057D01*
X184559000Y-68587057D02*
X184520905Y-68625152D01*
X184520905Y-68625152D02*
X184444714Y-68663247D01*
X184444714Y-68663247D02*
X184178048Y-68663247D01*
X184978048Y-68777533D02*
X185587572Y-68777533D01*
X184082810Y-70822295D02*
X184159000Y-70822295D01*
X184159000Y-70822295D02*
X184235191Y-70860390D01*
X184235191Y-70860390D02*
X184273286Y-70898485D01*
X184273286Y-70898485D02*
X184311381Y-70974676D01*
X184311381Y-70974676D02*
X184349476Y-71127057D01*
X184349476Y-71127057D02*
X184349476Y-71317533D01*
X184349476Y-71317533D02*
X184311381Y-71469914D01*
X184311381Y-71469914D02*
X184273286Y-71546104D01*
X184273286Y-71546104D02*
X184235191Y-71584200D01*
X184235191Y-71584200D02*
X184159000Y-71622295D01*
X184159000Y-71622295D02*
X184082810Y-71622295D01*
X184082810Y-71622295D02*
X184006619Y-71584200D01*
X184006619Y-71584200D02*
X183968524Y-71546104D01*
X183968524Y-71546104D02*
X183930429Y-71469914D01*
X183930429Y-71469914D02*
X183892333Y-71317533D01*
X183892333Y-71317533D02*
X183892333Y-71127057D01*
X183892333Y-71127057D02*
X183930429Y-70974676D01*
X183930429Y-70974676D02*
X183968524Y-70898485D01*
X183968524Y-70898485D02*
X184006619Y-70860390D01*
X184006619Y-70860390D02*
X184082810Y-70822295D01*
X184844715Y-70822295D02*
X184920905Y-70822295D01*
X184920905Y-70822295D02*
X184997096Y-70860390D01*
X184997096Y-70860390D02*
X185035191Y-70898485D01*
X185035191Y-70898485D02*
X185073286Y-70974676D01*
X185073286Y-70974676D02*
X185111381Y-71127057D01*
X185111381Y-71127057D02*
X185111381Y-71317533D01*
X185111381Y-71317533D02*
X185073286Y-71469914D01*
X185073286Y-71469914D02*
X185035191Y-71546104D01*
X185035191Y-71546104D02*
X184997096Y-71584200D01*
X184997096Y-71584200D02*
X184920905Y-71622295D01*
X184920905Y-71622295D02*
X184844715Y-71622295D01*
X184844715Y-71622295D02*
X184768524Y-71584200D01*
X184768524Y-71584200D02*
X184730429Y-71546104D01*
X184730429Y-71546104D02*
X184692334Y-71469914D01*
X184692334Y-71469914D02*
X184654238Y-71317533D01*
X184654238Y-71317533D02*
X184654238Y-71127057D01*
X184654238Y-71127057D02*
X184692334Y-70974676D01*
X184692334Y-70974676D02*
X184730429Y-70898485D01*
X184730429Y-70898485D02*
X184768524Y-70860390D01*
X184768524Y-70860390D02*
X184844715Y-70822295D01*
X185797096Y-70822295D02*
X185644715Y-70822295D01*
X185644715Y-70822295D02*
X185568524Y-70860390D01*
X185568524Y-70860390D02*
X185530429Y-70898485D01*
X185530429Y-70898485D02*
X185454239Y-71012771D01*
X185454239Y-71012771D02*
X185416143Y-71165152D01*
X185416143Y-71165152D02*
X185416143Y-71469914D01*
X185416143Y-71469914D02*
X185454239Y-71546104D01*
X185454239Y-71546104D02*
X185492334Y-71584200D01*
X185492334Y-71584200D02*
X185568524Y-71622295D01*
X185568524Y-71622295D02*
X185720905Y-71622295D01*
X185720905Y-71622295D02*
X185797096Y-71584200D01*
X185797096Y-71584200D02*
X185835191Y-71546104D01*
X185835191Y-71546104D02*
X185873286Y-71469914D01*
X185873286Y-71469914D02*
X185873286Y-71279438D01*
X185873286Y-71279438D02*
X185835191Y-71203247D01*
X185835191Y-71203247D02*
X185797096Y-71165152D01*
X185797096Y-71165152D02*
X185720905Y-71127057D01*
X185720905Y-71127057D02*
X185568524Y-71127057D01*
X185568524Y-71127057D02*
X185492334Y-71165152D01*
X185492334Y-71165152D02*
X185454239Y-71203247D01*
X185454239Y-71203247D02*
X185416143Y-71279438D01*
X184082810Y-73292295D02*
X184159000Y-73292295D01*
X184159000Y-73292295D02*
X184235191Y-73330390D01*
X184235191Y-73330390D02*
X184273286Y-73368485D01*
X184273286Y-73368485D02*
X184311381Y-73444676D01*
X184311381Y-73444676D02*
X184349476Y-73597057D01*
X184349476Y-73597057D02*
X184349476Y-73787533D01*
X184349476Y-73787533D02*
X184311381Y-73939914D01*
X184311381Y-73939914D02*
X184273286Y-74016104D01*
X184273286Y-74016104D02*
X184235191Y-74054200D01*
X184235191Y-74054200D02*
X184159000Y-74092295D01*
X184159000Y-74092295D02*
X184082810Y-74092295D01*
X184082810Y-74092295D02*
X184006619Y-74054200D01*
X184006619Y-74054200D02*
X183968524Y-74016104D01*
X183968524Y-74016104D02*
X183930429Y-73939914D01*
X183930429Y-73939914D02*
X183892333Y-73787533D01*
X183892333Y-73787533D02*
X183892333Y-73597057D01*
X183892333Y-73597057D02*
X183930429Y-73444676D01*
X183930429Y-73444676D02*
X183968524Y-73368485D01*
X183968524Y-73368485D02*
X184006619Y-73330390D01*
X184006619Y-73330390D02*
X184082810Y-73292295D01*
X184844715Y-73292295D02*
X184920905Y-73292295D01*
X184920905Y-73292295D02*
X184997096Y-73330390D01*
X184997096Y-73330390D02*
X185035191Y-73368485D01*
X185035191Y-73368485D02*
X185073286Y-73444676D01*
X185073286Y-73444676D02*
X185111381Y-73597057D01*
X185111381Y-73597057D02*
X185111381Y-73787533D01*
X185111381Y-73787533D02*
X185073286Y-73939914D01*
X185073286Y-73939914D02*
X185035191Y-74016104D01*
X185035191Y-74016104D02*
X184997096Y-74054200D01*
X184997096Y-74054200D02*
X184920905Y-74092295D01*
X184920905Y-74092295D02*
X184844715Y-74092295D01*
X184844715Y-74092295D02*
X184768524Y-74054200D01*
X184768524Y-74054200D02*
X184730429Y-74016104D01*
X184730429Y-74016104D02*
X184692334Y-73939914D01*
X184692334Y-73939914D02*
X184654238Y-73787533D01*
X184654238Y-73787533D02*
X184654238Y-73597057D01*
X184654238Y-73597057D02*
X184692334Y-73444676D01*
X184692334Y-73444676D02*
X184730429Y-73368485D01*
X184730429Y-73368485D02*
X184768524Y-73330390D01*
X184768524Y-73330390D02*
X184844715Y-73292295D01*
X185568524Y-73635152D02*
X185492334Y-73597057D01*
X185492334Y-73597057D02*
X185454239Y-73558961D01*
X185454239Y-73558961D02*
X185416143Y-73482771D01*
X185416143Y-73482771D02*
X185416143Y-73444676D01*
X185416143Y-73444676D02*
X185454239Y-73368485D01*
X185454239Y-73368485D02*
X185492334Y-73330390D01*
X185492334Y-73330390D02*
X185568524Y-73292295D01*
X185568524Y-73292295D02*
X185720905Y-73292295D01*
X185720905Y-73292295D02*
X185797096Y-73330390D01*
X185797096Y-73330390D02*
X185835191Y-73368485D01*
X185835191Y-73368485D02*
X185873286Y-73444676D01*
X185873286Y-73444676D02*
X185873286Y-73482771D01*
X185873286Y-73482771D02*
X185835191Y-73558961D01*
X185835191Y-73558961D02*
X185797096Y-73597057D01*
X185797096Y-73597057D02*
X185720905Y-73635152D01*
X185720905Y-73635152D02*
X185568524Y-73635152D01*
X185568524Y-73635152D02*
X185492334Y-73673247D01*
X185492334Y-73673247D02*
X185454239Y-73711342D01*
X185454239Y-73711342D02*
X185416143Y-73787533D01*
X185416143Y-73787533D02*
X185416143Y-73939914D01*
X185416143Y-73939914D02*
X185454239Y-74016104D01*
X185454239Y-74016104D02*
X185492334Y-74054200D01*
X185492334Y-74054200D02*
X185568524Y-74092295D01*
X185568524Y-74092295D02*
X185720905Y-74092295D01*
X185720905Y-74092295D02*
X185797096Y-74054200D01*
X185797096Y-74054200D02*
X185835191Y-74016104D01*
X185835191Y-74016104D02*
X185873286Y-73939914D01*
X185873286Y-73939914D02*
X185873286Y-73787533D01*
X185873286Y-73787533D02*
X185835191Y-73711342D01*
X185835191Y-73711342D02*
X185797096Y-73673247D01*
X185797096Y-73673247D02*
X185720905Y-73635152D01*
X184082810Y-80992295D02*
X184159000Y-80992295D01*
X184159000Y-80992295D02*
X184235191Y-81030390D01*
X184235191Y-81030390D02*
X184273286Y-81068485D01*
X184273286Y-81068485D02*
X184311381Y-81144676D01*
X184311381Y-81144676D02*
X184349476Y-81297057D01*
X184349476Y-81297057D02*
X184349476Y-81487533D01*
X184349476Y-81487533D02*
X184311381Y-81639914D01*
X184311381Y-81639914D02*
X184273286Y-81716104D01*
X184273286Y-81716104D02*
X184235191Y-81754200D01*
X184235191Y-81754200D02*
X184159000Y-81792295D01*
X184159000Y-81792295D02*
X184082810Y-81792295D01*
X184082810Y-81792295D02*
X184006619Y-81754200D01*
X184006619Y-81754200D02*
X183968524Y-81716104D01*
X183968524Y-81716104D02*
X183930429Y-81639914D01*
X183930429Y-81639914D02*
X183892333Y-81487533D01*
X183892333Y-81487533D02*
X183892333Y-81297057D01*
X183892333Y-81297057D02*
X183930429Y-81144676D01*
X183930429Y-81144676D02*
X183968524Y-81068485D01*
X183968524Y-81068485D02*
X184006619Y-81030390D01*
X184006619Y-81030390D02*
X184082810Y-80992295D01*
X185111381Y-81792295D02*
X184654238Y-81792295D01*
X184882810Y-81792295D02*
X184882810Y-80992295D01*
X184882810Y-80992295D02*
X184806619Y-81106580D01*
X184806619Y-81106580D02*
X184730429Y-81182771D01*
X184730429Y-81182771D02*
X184654238Y-81220866D01*
X185378048Y-80992295D02*
X185911382Y-80992295D01*
X185911382Y-80992295D02*
X185568524Y-81792295D01*
X184082810Y-83592295D02*
X184159000Y-83592295D01*
X184159000Y-83592295D02*
X184235191Y-83630390D01*
X184235191Y-83630390D02*
X184273286Y-83668485D01*
X184273286Y-83668485D02*
X184311381Y-83744676D01*
X184311381Y-83744676D02*
X184349476Y-83897057D01*
X184349476Y-83897057D02*
X184349476Y-84087533D01*
X184349476Y-84087533D02*
X184311381Y-84239914D01*
X184311381Y-84239914D02*
X184273286Y-84316104D01*
X184273286Y-84316104D02*
X184235191Y-84354200D01*
X184235191Y-84354200D02*
X184159000Y-84392295D01*
X184159000Y-84392295D02*
X184082810Y-84392295D01*
X184082810Y-84392295D02*
X184006619Y-84354200D01*
X184006619Y-84354200D02*
X183968524Y-84316104D01*
X183968524Y-84316104D02*
X183930429Y-84239914D01*
X183930429Y-84239914D02*
X183892333Y-84087533D01*
X183892333Y-84087533D02*
X183892333Y-83897057D01*
X183892333Y-83897057D02*
X183930429Y-83744676D01*
X183930429Y-83744676D02*
X183968524Y-83668485D01*
X183968524Y-83668485D02*
X184006619Y-83630390D01*
X184006619Y-83630390D02*
X184082810Y-83592295D01*
X184654238Y-83668485D02*
X184692334Y-83630390D01*
X184692334Y-83630390D02*
X184768524Y-83592295D01*
X184768524Y-83592295D02*
X184959000Y-83592295D01*
X184959000Y-83592295D02*
X185035191Y-83630390D01*
X185035191Y-83630390D02*
X185073286Y-83668485D01*
X185073286Y-83668485D02*
X185111381Y-83744676D01*
X185111381Y-83744676D02*
X185111381Y-83820866D01*
X185111381Y-83820866D02*
X185073286Y-83935152D01*
X185073286Y-83935152D02*
X184616143Y-84392295D01*
X184616143Y-84392295D02*
X185111381Y-84392295D01*
X185606620Y-83592295D02*
X185682810Y-83592295D01*
X185682810Y-83592295D02*
X185759001Y-83630390D01*
X185759001Y-83630390D02*
X185797096Y-83668485D01*
X185797096Y-83668485D02*
X185835191Y-83744676D01*
X185835191Y-83744676D02*
X185873286Y-83897057D01*
X185873286Y-83897057D02*
X185873286Y-84087533D01*
X185873286Y-84087533D02*
X185835191Y-84239914D01*
X185835191Y-84239914D02*
X185797096Y-84316104D01*
X185797096Y-84316104D02*
X185759001Y-84354200D01*
X185759001Y-84354200D02*
X185682810Y-84392295D01*
X185682810Y-84392295D02*
X185606620Y-84392295D01*
X185606620Y-84392295D02*
X185530429Y-84354200D01*
X185530429Y-84354200D02*
X185492334Y-84316104D01*
X185492334Y-84316104D02*
X185454239Y-84239914D01*
X185454239Y-84239914D02*
X185416143Y-84087533D01*
X185416143Y-84087533D02*
X185416143Y-83897057D01*
X185416143Y-83897057D02*
X185454239Y-83744676D01*
X185454239Y-83744676D02*
X185492334Y-83668485D01*
X185492334Y-83668485D02*
X185530429Y-83630390D01*
X185530429Y-83630390D02*
X185606620Y-83592295D01*
X184082810Y-86092295D02*
X184159000Y-86092295D01*
X184159000Y-86092295D02*
X184235191Y-86130390D01*
X184235191Y-86130390D02*
X184273286Y-86168485D01*
X184273286Y-86168485D02*
X184311381Y-86244676D01*
X184311381Y-86244676D02*
X184349476Y-86397057D01*
X184349476Y-86397057D02*
X184349476Y-86587533D01*
X184349476Y-86587533D02*
X184311381Y-86739914D01*
X184311381Y-86739914D02*
X184273286Y-86816104D01*
X184273286Y-86816104D02*
X184235191Y-86854200D01*
X184235191Y-86854200D02*
X184159000Y-86892295D01*
X184159000Y-86892295D02*
X184082810Y-86892295D01*
X184082810Y-86892295D02*
X184006619Y-86854200D01*
X184006619Y-86854200D02*
X183968524Y-86816104D01*
X183968524Y-86816104D02*
X183930429Y-86739914D01*
X183930429Y-86739914D02*
X183892333Y-86587533D01*
X183892333Y-86587533D02*
X183892333Y-86397057D01*
X183892333Y-86397057D02*
X183930429Y-86244676D01*
X183930429Y-86244676D02*
X183968524Y-86168485D01*
X183968524Y-86168485D02*
X184006619Y-86130390D01*
X184006619Y-86130390D02*
X184082810Y-86092295D01*
X184654238Y-86168485D02*
X184692334Y-86130390D01*
X184692334Y-86130390D02*
X184768524Y-86092295D01*
X184768524Y-86092295D02*
X184959000Y-86092295D01*
X184959000Y-86092295D02*
X185035191Y-86130390D01*
X185035191Y-86130390D02*
X185073286Y-86168485D01*
X185073286Y-86168485D02*
X185111381Y-86244676D01*
X185111381Y-86244676D02*
X185111381Y-86320866D01*
X185111381Y-86320866D02*
X185073286Y-86435152D01*
X185073286Y-86435152D02*
X184616143Y-86892295D01*
X184616143Y-86892295D02*
X185111381Y-86892295D01*
X185416143Y-86168485D02*
X185454239Y-86130390D01*
X185454239Y-86130390D02*
X185530429Y-86092295D01*
X185530429Y-86092295D02*
X185720905Y-86092295D01*
X185720905Y-86092295D02*
X185797096Y-86130390D01*
X185797096Y-86130390D02*
X185835191Y-86168485D01*
X185835191Y-86168485D02*
X185873286Y-86244676D01*
X185873286Y-86244676D02*
X185873286Y-86320866D01*
X185873286Y-86320866D02*
X185835191Y-86435152D01*
X185835191Y-86435152D02*
X185378048Y-86892295D01*
X185378048Y-86892295D02*
X185873286Y-86892295D01*
X184082810Y-88602295D02*
X184159000Y-88602295D01*
X184159000Y-88602295D02*
X184235191Y-88640390D01*
X184235191Y-88640390D02*
X184273286Y-88678485D01*
X184273286Y-88678485D02*
X184311381Y-88754676D01*
X184311381Y-88754676D02*
X184349476Y-88907057D01*
X184349476Y-88907057D02*
X184349476Y-89097533D01*
X184349476Y-89097533D02*
X184311381Y-89249914D01*
X184311381Y-89249914D02*
X184273286Y-89326104D01*
X184273286Y-89326104D02*
X184235191Y-89364200D01*
X184235191Y-89364200D02*
X184159000Y-89402295D01*
X184159000Y-89402295D02*
X184082810Y-89402295D01*
X184082810Y-89402295D02*
X184006619Y-89364200D01*
X184006619Y-89364200D02*
X183968524Y-89326104D01*
X183968524Y-89326104D02*
X183930429Y-89249914D01*
X183930429Y-89249914D02*
X183892333Y-89097533D01*
X183892333Y-89097533D02*
X183892333Y-88907057D01*
X183892333Y-88907057D02*
X183930429Y-88754676D01*
X183930429Y-88754676D02*
X183968524Y-88678485D01*
X183968524Y-88678485D02*
X184006619Y-88640390D01*
X184006619Y-88640390D02*
X184082810Y-88602295D01*
X184654238Y-88678485D02*
X184692334Y-88640390D01*
X184692334Y-88640390D02*
X184768524Y-88602295D01*
X184768524Y-88602295D02*
X184959000Y-88602295D01*
X184959000Y-88602295D02*
X185035191Y-88640390D01*
X185035191Y-88640390D02*
X185073286Y-88678485D01*
X185073286Y-88678485D02*
X185111381Y-88754676D01*
X185111381Y-88754676D02*
X185111381Y-88830866D01*
X185111381Y-88830866D02*
X185073286Y-88945152D01*
X185073286Y-88945152D02*
X184616143Y-89402295D01*
X184616143Y-89402295D02*
X185111381Y-89402295D01*
X185797096Y-88868961D02*
X185797096Y-89402295D01*
X185606620Y-88564200D02*
X185416143Y-89135628D01*
X185416143Y-89135628D02*
X185911382Y-89135628D01*
X184349476Y-91942295D02*
X183892333Y-91942295D01*
X184120905Y-91942295D02*
X184120905Y-91142295D01*
X184120905Y-91142295D02*
X184044714Y-91256580D01*
X184044714Y-91256580D02*
X183968524Y-91332771D01*
X183968524Y-91332771D02*
X183892333Y-91370866D01*
X184844715Y-91142295D02*
X184920905Y-91142295D01*
X184920905Y-91142295D02*
X184997096Y-91180390D01*
X184997096Y-91180390D02*
X185035191Y-91218485D01*
X185035191Y-91218485D02*
X185073286Y-91294676D01*
X185073286Y-91294676D02*
X185111381Y-91447057D01*
X185111381Y-91447057D02*
X185111381Y-91637533D01*
X185111381Y-91637533D02*
X185073286Y-91789914D01*
X185073286Y-91789914D02*
X185035191Y-91866104D01*
X185035191Y-91866104D02*
X184997096Y-91904200D01*
X184997096Y-91904200D02*
X184920905Y-91942295D01*
X184920905Y-91942295D02*
X184844715Y-91942295D01*
X184844715Y-91942295D02*
X184768524Y-91904200D01*
X184768524Y-91904200D02*
X184730429Y-91866104D01*
X184730429Y-91866104D02*
X184692334Y-91789914D01*
X184692334Y-91789914D02*
X184654238Y-91637533D01*
X184654238Y-91637533D02*
X184654238Y-91447057D01*
X184654238Y-91447057D02*
X184692334Y-91294676D01*
X184692334Y-91294676D02*
X184730429Y-91218485D01*
X184730429Y-91218485D02*
X184768524Y-91180390D01*
X184768524Y-91180390D02*
X184844715Y-91142295D01*
X185606620Y-91142295D02*
X185682810Y-91142295D01*
X185682810Y-91142295D02*
X185759001Y-91180390D01*
X185759001Y-91180390D02*
X185797096Y-91218485D01*
X185797096Y-91218485D02*
X185835191Y-91294676D01*
X185835191Y-91294676D02*
X185873286Y-91447057D01*
X185873286Y-91447057D02*
X185873286Y-91637533D01*
X185873286Y-91637533D02*
X185835191Y-91789914D01*
X185835191Y-91789914D02*
X185797096Y-91866104D01*
X185797096Y-91866104D02*
X185759001Y-91904200D01*
X185759001Y-91904200D02*
X185682810Y-91942295D01*
X185682810Y-91942295D02*
X185606620Y-91942295D01*
X185606620Y-91942295D02*
X185530429Y-91904200D01*
X185530429Y-91904200D02*
X185492334Y-91866104D01*
X185492334Y-91866104D02*
X185454239Y-91789914D01*
X185454239Y-91789914D02*
X185416143Y-91637533D01*
X185416143Y-91637533D02*
X185416143Y-91447057D01*
X185416143Y-91447057D02*
X185454239Y-91294676D01*
X185454239Y-91294676D02*
X185492334Y-91218485D01*
X185492334Y-91218485D02*
X185530429Y-91180390D01*
X185530429Y-91180390D02*
X185606620Y-91142295D01*
X184349476Y-99462295D02*
X183892333Y-99462295D01*
X184120905Y-99462295D02*
X184120905Y-98662295D01*
X184120905Y-98662295D02*
X184044714Y-98776580D01*
X184044714Y-98776580D02*
X183968524Y-98852771D01*
X183968524Y-98852771D02*
X183892333Y-98890866D01*
X184844715Y-98662295D02*
X184920905Y-98662295D01*
X184920905Y-98662295D02*
X184997096Y-98700390D01*
X184997096Y-98700390D02*
X185035191Y-98738485D01*
X185035191Y-98738485D02*
X185073286Y-98814676D01*
X185073286Y-98814676D02*
X185111381Y-98967057D01*
X185111381Y-98967057D02*
X185111381Y-99157533D01*
X185111381Y-99157533D02*
X185073286Y-99309914D01*
X185073286Y-99309914D02*
X185035191Y-99386104D01*
X185035191Y-99386104D02*
X184997096Y-99424200D01*
X184997096Y-99424200D02*
X184920905Y-99462295D01*
X184920905Y-99462295D02*
X184844715Y-99462295D01*
X184844715Y-99462295D02*
X184768524Y-99424200D01*
X184768524Y-99424200D02*
X184730429Y-99386104D01*
X184730429Y-99386104D02*
X184692334Y-99309914D01*
X184692334Y-99309914D02*
X184654238Y-99157533D01*
X184654238Y-99157533D02*
X184654238Y-98967057D01*
X184654238Y-98967057D02*
X184692334Y-98814676D01*
X184692334Y-98814676D02*
X184730429Y-98738485D01*
X184730429Y-98738485D02*
X184768524Y-98700390D01*
X184768524Y-98700390D02*
X184844715Y-98662295D01*
X185797096Y-98662295D02*
X185644715Y-98662295D01*
X185644715Y-98662295D02*
X185568524Y-98700390D01*
X185568524Y-98700390D02*
X185530429Y-98738485D01*
X185530429Y-98738485D02*
X185454239Y-98852771D01*
X185454239Y-98852771D02*
X185416143Y-99005152D01*
X185416143Y-99005152D02*
X185416143Y-99309914D01*
X185416143Y-99309914D02*
X185454239Y-99386104D01*
X185454239Y-99386104D02*
X185492334Y-99424200D01*
X185492334Y-99424200D02*
X185568524Y-99462295D01*
X185568524Y-99462295D02*
X185720905Y-99462295D01*
X185720905Y-99462295D02*
X185797096Y-99424200D01*
X185797096Y-99424200D02*
X185835191Y-99386104D01*
X185835191Y-99386104D02*
X185873286Y-99309914D01*
X185873286Y-99309914D02*
X185873286Y-99119438D01*
X185873286Y-99119438D02*
X185835191Y-99043247D01*
X185835191Y-99043247D02*
X185797096Y-99005152D01*
X185797096Y-99005152D02*
X185720905Y-98967057D01*
X185720905Y-98967057D02*
X185568524Y-98967057D01*
X185568524Y-98967057D02*
X185492334Y-99005152D01*
X185492334Y-99005152D02*
X185454239Y-99043247D01*
X185454239Y-99043247D02*
X185416143Y-99119438D01*
X184090000Y-93622295D02*
X184166190Y-93622295D01*
X184166190Y-93622295D02*
X184242381Y-93660390D01*
X184242381Y-93660390D02*
X184280476Y-93698485D01*
X184280476Y-93698485D02*
X184318571Y-93774676D01*
X184318571Y-93774676D02*
X184356666Y-93927057D01*
X184356666Y-93927057D02*
X184356666Y-94117533D01*
X184356666Y-94117533D02*
X184318571Y-94269914D01*
X184318571Y-94269914D02*
X184280476Y-94346104D01*
X184280476Y-94346104D02*
X184242381Y-94384200D01*
X184242381Y-94384200D02*
X184166190Y-94422295D01*
X184166190Y-94422295D02*
X184090000Y-94422295D01*
X184090000Y-94422295D02*
X184013809Y-94384200D01*
X184013809Y-94384200D02*
X183975714Y-94346104D01*
X183975714Y-94346104D02*
X183937619Y-94269914D01*
X183937619Y-94269914D02*
X183899523Y-94117533D01*
X183899523Y-94117533D02*
X183899523Y-93927057D01*
X183899523Y-93927057D02*
X183937619Y-93774676D01*
X183937619Y-93774676D02*
X183975714Y-93698485D01*
X183975714Y-93698485D02*
X184013809Y-93660390D01*
X184013809Y-93660390D02*
X184090000Y-93622295D01*
X185118571Y-94422295D02*
X184661428Y-94422295D01*
X184890000Y-94422295D02*
X184890000Y-93622295D01*
X184890000Y-93622295D02*
X184813809Y-93736580D01*
X184813809Y-93736580D02*
X184737619Y-93812771D01*
X184737619Y-93812771D02*
X184661428Y-93850866D01*
X185880476Y-94422295D02*
X185423333Y-94422295D01*
X185651905Y-94422295D02*
X185651905Y-93622295D01*
X185651905Y-93622295D02*
X185575714Y-93736580D01*
X185575714Y-93736580D02*
X185499524Y-93812771D01*
X185499524Y-93812771D02*
X185423333Y-93850866D01*
X184349476Y-75940390D02*
X184273286Y-75902295D01*
X184273286Y-75902295D02*
X184159000Y-75902295D01*
X184159000Y-75902295D02*
X184044714Y-75940390D01*
X184044714Y-75940390D02*
X183968524Y-76016580D01*
X183968524Y-76016580D02*
X183930429Y-76092771D01*
X183930429Y-76092771D02*
X183892333Y-76245152D01*
X183892333Y-76245152D02*
X183892333Y-76359438D01*
X183892333Y-76359438D02*
X183930429Y-76511819D01*
X183930429Y-76511819D02*
X183968524Y-76588009D01*
X183968524Y-76588009D02*
X184044714Y-76664200D01*
X184044714Y-76664200D02*
X184159000Y-76702295D01*
X184159000Y-76702295D02*
X184235191Y-76702295D01*
X184235191Y-76702295D02*
X184349476Y-76664200D01*
X184349476Y-76664200D02*
X184387572Y-76626104D01*
X184387572Y-76626104D02*
X184387572Y-76359438D01*
X184387572Y-76359438D02*
X184235191Y-76359438D01*
X184730429Y-76702295D02*
X184730429Y-75902295D01*
X184730429Y-75902295D02*
X185187572Y-76702295D01*
X185187572Y-76702295D02*
X185187572Y-75902295D01*
X185568524Y-76702295D02*
X185568524Y-75902295D01*
X185568524Y-75902295D02*
X185759000Y-75902295D01*
X185759000Y-75902295D02*
X185873286Y-75940390D01*
X185873286Y-75940390D02*
X185949476Y-76016580D01*
X185949476Y-76016580D02*
X185987571Y-76092771D01*
X185987571Y-76092771D02*
X186025667Y-76245152D01*
X186025667Y-76245152D02*
X186025667Y-76359438D01*
X186025667Y-76359438D02*
X185987571Y-76511819D01*
X185987571Y-76511819D02*
X185949476Y-76588009D01*
X185949476Y-76588009D02*
X185873286Y-76664200D01*
X185873286Y-76664200D02*
X185759000Y-76702295D01*
X185759000Y-76702295D02*
X185568524Y-76702295D01*
X184349476Y-78480390D02*
X184273286Y-78442295D01*
X184273286Y-78442295D02*
X184159000Y-78442295D01*
X184159000Y-78442295D02*
X184044714Y-78480390D01*
X184044714Y-78480390D02*
X183968524Y-78556580D01*
X183968524Y-78556580D02*
X183930429Y-78632771D01*
X183930429Y-78632771D02*
X183892333Y-78785152D01*
X183892333Y-78785152D02*
X183892333Y-78899438D01*
X183892333Y-78899438D02*
X183930429Y-79051819D01*
X183930429Y-79051819D02*
X183968524Y-79128009D01*
X183968524Y-79128009D02*
X184044714Y-79204200D01*
X184044714Y-79204200D02*
X184159000Y-79242295D01*
X184159000Y-79242295D02*
X184235191Y-79242295D01*
X184235191Y-79242295D02*
X184349476Y-79204200D01*
X184349476Y-79204200D02*
X184387572Y-79166104D01*
X184387572Y-79166104D02*
X184387572Y-78899438D01*
X184387572Y-78899438D02*
X184235191Y-78899438D01*
X184730429Y-79242295D02*
X184730429Y-78442295D01*
X184730429Y-78442295D02*
X185187572Y-79242295D01*
X185187572Y-79242295D02*
X185187572Y-78442295D01*
X185568524Y-79242295D02*
X185568524Y-78442295D01*
X185568524Y-78442295D02*
X185759000Y-78442295D01*
X185759000Y-78442295D02*
X185873286Y-78480390D01*
X185873286Y-78480390D02*
X185949476Y-78556580D01*
X185949476Y-78556580D02*
X185987571Y-78632771D01*
X185987571Y-78632771D02*
X186025667Y-78785152D01*
X186025667Y-78785152D02*
X186025667Y-78899438D01*
X186025667Y-78899438D02*
X185987571Y-79051819D01*
X185987571Y-79051819D02*
X185949476Y-79128009D01*
X185949476Y-79128009D02*
X185873286Y-79204200D01*
X185873286Y-79204200D02*
X185759000Y-79242295D01*
X185759000Y-79242295D02*
X185568524Y-79242295D01*
X186198095Y-98268152D02*
X186198095Y-98934819D01*
X186198095Y-98363390D02*
X186245714Y-98315771D01*
X186245714Y-98315771D02*
X186340952Y-98268152D01*
X186340952Y-98268152D02*
X186483809Y-98268152D01*
X186483809Y-98268152D02*
X186579047Y-98315771D01*
X186579047Y-98315771D02*
X186626666Y-98411009D01*
X186626666Y-98411009D02*
X186626666Y-98934819D01*
X187102857Y-98934819D02*
X187102857Y-98268152D01*
X187102857Y-97934819D02*
X187055238Y-97982438D01*
X187055238Y-97982438D02*
X187102857Y-98030057D01*
X187102857Y-98030057D02*
X187150476Y-97982438D01*
X187150476Y-97982438D02*
X187102857Y-97934819D01*
X187102857Y-97934819D02*
X187102857Y-98030057D01*
X188007618Y-98887200D02*
X187912380Y-98934819D01*
X187912380Y-98934819D02*
X187721904Y-98934819D01*
X187721904Y-98934819D02*
X187626666Y-98887200D01*
X187626666Y-98887200D02*
X187579047Y-98839580D01*
X187579047Y-98839580D02*
X187531428Y-98744342D01*
X187531428Y-98744342D02*
X187531428Y-98458628D01*
X187531428Y-98458628D02*
X187579047Y-98363390D01*
X187579047Y-98363390D02*
X187626666Y-98315771D01*
X187626666Y-98315771D02*
X187721904Y-98268152D01*
X187721904Y-98268152D02*
X187912380Y-98268152D01*
X187912380Y-98268152D02*
X188007618Y-98315771D01*
X188817142Y-98887200D02*
X188721904Y-98934819D01*
X188721904Y-98934819D02*
X188531428Y-98934819D01*
X188531428Y-98934819D02*
X188436190Y-98887200D01*
X188436190Y-98887200D02*
X188388571Y-98791961D01*
X188388571Y-98791961D02*
X188388571Y-98411009D01*
X188388571Y-98411009D02*
X188436190Y-98315771D01*
X188436190Y-98315771D02*
X188531428Y-98268152D01*
X188531428Y-98268152D02*
X188721904Y-98268152D01*
X188721904Y-98268152D02*
X188817142Y-98315771D01*
X188817142Y-98315771D02*
X188864761Y-98411009D01*
X188864761Y-98411009D02*
X188864761Y-98506247D01*
X188864761Y-98506247D02*
X188388571Y-98601485D01*
X189293333Y-98839580D02*
X189340952Y-98887200D01*
X189340952Y-98887200D02*
X189293333Y-98934819D01*
X189293333Y-98934819D02*
X189245714Y-98887200D01*
X189245714Y-98887200D02*
X189293333Y-98839580D01*
X189293333Y-98839580D02*
X189293333Y-98934819D01*
X189293333Y-98553866D02*
X189245714Y-97982438D01*
X189245714Y-97982438D02*
X189293333Y-97934819D01*
X189293333Y-97934819D02*
X189340952Y-97982438D01*
X189340952Y-97982438D02*
X189293333Y-98553866D01*
X189293333Y-98553866D02*
X189293333Y-97934819D01*
X189769523Y-98268152D02*
X189769523Y-98934819D01*
X189769523Y-98363390D02*
X189817142Y-98315771D01*
X189817142Y-98315771D02*
X189912380Y-98268152D01*
X189912380Y-98268152D02*
X190055237Y-98268152D01*
X190055237Y-98268152D02*
X190150475Y-98315771D01*
X190150475Y-98315771D02*
X190198094Y-98411009D01*
X190198094Y-98411009D02*
X190198094Y-98934819D01*
X191102856Y-98934819D02*
X191102856Y-98411009D01*
X191102856Y-98411009D02*
X191055237Y-98315771D01*
X191055237Y-98315771D02*
X190959999Y-98268152D01*
X190959999Y-98268152D02*
X190769523Y-98268152D01*
X190769523Y-98268152D02*
X190674285Y-98315771D01*
X191102856Y-98887200D02*
X191007618Y-98934819D01*
X191007618Y-98934819D02*
X190769523Y-98934819D01*
X190769523Y-98934819D02*
X190674285Y-98887200D01*
X190674285Y-98887200D02*
X190626666Y-98791961D01*
X190626666Y-98791961D02*
X190626666Y-98696723D01*
X190626666Y-98696723D02*
X190674285Y-98601485D01*
X190674285Y-98601485D02*
X190769523Y-98553866D01*
X190769523Y-98553866D02*
X191007618Y-98553866D01*
X191007618Y-98553866D02*
X191102856Y-98506247D01*
X191579047Y-98268152D02*
X191579047Y-98934819D01*
X191579047Y-98363390D02*
X191626666Y-98315771D01*
X191626666Y-98315771D02*
X191721904Y-98268152D01*
X191721904Y-98268152D02*
X191864761Y-98268152D01*
X191864761Y-98268152D02*
X191959999Y-98315771D01*
X191959999Y-98315771D02*
X192007618Y-98411009D01*
X192007618Y-98411009D02*
X192007618Y-98934819D01*
X192626666Y-98934819D02*
X192531428Y-98887200D01*
X192531428Y-98887200D02*
X192483809Y-98839580D01*
X192483809Y-98839580D02*
X192436190Y-98744342D01*
X192436190Y-98744342D02*
X192436190Y-98458628D01*
X192436190Y-98458628D02*
X192483809Y-98363390D01*
X192483809Y-98363390D02*
X192531428Y-98315771D01*
X192531428Y-98315771D02*
X192626666Y-98268152D01*
X192626666Y-98268152D02*
X192769523Y-98268152D01*
X192769523Y-98268152D02*
X192864761Y-98315771D01*
X192864761Y-98315771D02*
X192912380Y-98363390D01*
X192912380Y-98363390D02*
X192959999Y-98458628D01*
X192959999Y-98458628D02*
X192959999Y-98744342D01*
X192959999Y-98744342D02*
X192912380Y-98839580D01*
X192912380Y-98839580D02*
X192864761Y-98887200D01*
X192864761Y-98887200D02*
X192769523Y-98934819D01*
X192769523Y-98934819D02*
X192626666Y-98934819D01*
X193245714Y-97934819D02*
X193579047Y-98934819D01*
X193579047Y-98934819D02*
X193912380Y-97934819D01*
X194198095Y-98030057D02*
X194245714Y-97982438D01*
X194245714Y-97982438D02*
X194340952Y-97934819D01*
X194340952Y-97934819D02*
X194579047Y-97934819D01*
X194579047Y-97934819D02*
X194674285Y-97982438D01*
X194674285Y-97982438D02*
X194721904Y-98030057D01*
X194721904Y-98030057D02*
X194769523Y-98125295D01*
X194769523Y-98125295D02*
X194769523Y-98220533D01*
X194769523Y-98220533D02*
X194721904Y-98363390D01*
X194721904Y-98363390D02*
X194150476Y-98934819D01*
X194150476Y-98934819D02*
X194769523Y-98934819D01*
X195060000Y-99102295D02*
X195136190Y-99102295D01*
X195136190Y-99102295D02*
X195212381Y-99140390D01*
X195212381Y-99140390D02*
X195250476Y-99178485D01*
X195250476Y-99178485D02*
X195288571Y-99254676D01*
X195288571Y-99254676D02*
X195326666Y-99407057D01*
X195326666Y-99407057D02*
X195326666Y-99597533D01*
X195326666Y-99597533D02*
X195288571Y-99749914D01*
X195288571Y-99749914D02*
X195250476Y-99826104D01*
X195250476Y-99826104D02*
X195212381Y-99864200D01*
X195212381Y-99864200D02*
X195136190Y-99902295D01*
X195136190Y-99902295D02*
X195060000Y-99902295D01*
X195060000Y-99902295D02*
X194983809Y-99864200D01*
X194983809Y-99864200D02*
X194945714Y-99826104D01*
X194945714Y-99826104D02*
X194907619Y-99749914D01*
X194907619Y-99749914D02*
X194869523Y-99597533D01*
X194869523Y-99597533D02*
X194869523Y-99407057D01*
X194869523Y-99407057D02*
X194907619Y-99254676D01*
X194907619Y-99254676D02*
X194945714Y-99178485D01*
X194945714Y-99178485D02*
X194983809Y-99140390D01*
X194983809Y-99140390D02*
X195060000Y-99102295D01*
X195821905Y-99102295D02*
X195898095Y-99102295D01*
X195898095Y-99102295D02*
X195974286Y-99140390D01*
X195974286Y-99140390D02*
X196012381Y-99178485D01*
X196012381Y-99178485D02*
X196050476Y-99254676D01*
X196050476Y-99254676D02*
X196088571Y-99407057D01*
X196088571Y-99407057D02*
X196088571Y-99597533D01*
X196088571Y-99597533D02*
X196050476Y-99749914D01*
X196050476Y-99749914D02*
X196012381Y-99826104D01*
X196012381Y-99826104D02*
X195974286Y-99864200D01*
X195974286Y-99864200D02*
X195898095Y-99902295D01*
X195898095Y-99902295D02*
X195821905Y-99902295D01*
X195821905Y-99902295D02*
X195745714Y-99864200D01*
X195745714Y-99864200D02*
X195707619Y-99826104D01*
X195707619Y-99826104D02*
X195669524Y-99749914D01*
X195669524Y-99749914D02*
X195631428Y-99597533D01*
X195631428Y-99597533D02*
X195631428Y-99407057D01*
X195631428Y-99407057D02*
X195669524Y-99254676D01*
X195669524Y-99254676D02*
X195707619Y-99178485D01*
X195707619Y-99178485D02*
X195745714Y-99140390D01*
X195745714Y-99140390D02*
X195821905Y-99102295D01*
X196469524Y-99902295D02*
X196621905Y-99902295D01*
X196621905Y-99902295D02*
X196698095Y-99864200D01*
X196698095Y-99864200D02*
X196736191Y-99826104D01*
X196736191Y-99826104D02*
X196812381Y-99711819D01*
X196812381Y-99711819D02*
X196850476Y-99559438D01*
X196850476Y-99559438D02*
X196850476Y-99254676D01*
X196850476Y-99254676D02*
X196812381Y-99178485D01*
X196812381Y-99178485D02*
X196774286Y-99140390D01*
X196774286Y-99140390D02*
X196698095Y-99102295D01*
X196698095Y-99102295D02*
X196545714Y-99102295D01*
X196545714Y-99102295D02*
X196469524Y-99140390D01*
X196469524Y-99140390D02*
X196431429Y-99178485D01*
X196431429Y-99178485D02*
X196393333Y-99254676D01*
X196393333Y-99254676D02*
X196393333Y-99445152D01*
X196393333Y-99445152D02*
X196431429Y-99521342D01*
X196431429Y-99521342D02*
X196469524Y-99559438D01*
X196469524Y-99559438D02*
X196545714Y-99597533D01*
X196545714Y-99597533D02*
X196698095Y-99597533D01*
X196698095Y-99597533D02*
X196774286Y-99559438D01*
X196774286Y-99559438D02*
X196812381Y-99521342D01*
X196812381Y-99521342D02*
X196850476Y-99445152D01*
X195265143Y-73400390D02*
X195188953Y-73362295D01*
X195188953Y-73362295D02*
X195074667Y-73362295D01*
X195074667Y-73362295D02*
X194960381Y-73400390D01*
X194960381Y-73400390D02*
X194884191Y-73476580D01*
X194884191Y-73476580D02*
X194846096Y-73552771D01*
X194846096Y-73552771D02*
X194808000Y-73705152D01*
X194808000Y-73705152D02*
X194808000Y-73819438D01*
X194808000Y-73819438D02*
X194846096Y-73971819D01*
X194846096Y-73971819D02*
X194884191Y-74048009D01*
X194884191Y-74048009D02*
X194960381Y-74124200D01*
X194960381Y-74124200D02*
X195074667Y-74162295D01*
X195074667Y-74162295D02*
X195150858Y-74162295D01*
X195150858Y-74162295D02*
X195265143Y-74124200D01*
X195265143Y-74124200D02*
X195303239Y-74086104D01*
X195303239Y-74086104D02*
X195303239Y-73819438D01*
X195303239Y-73819438D02*
X195150858Y-73819438D01*
X195646096Y-74162295D02*
X195646096Y-73362295D01*
X195646096Y-73362295D02*
X196103239Y-74162295D01*
X196103239Y-74162295D02*
X196103239Y-73362295D01*
X196484191Y-74162295D02*
X196484191Y-73362295D01*
X196484191Y-73362295D02*
X196674667Y-73362295D01*
X196674667Y-73362295D02*
X196788953Y-73400390D01*
X196788953Y-73400390D02*
X196865143Y-73476580D01*
X196865143Y-73476580D02*
X196903238Y-73552771D01*
X196903238Y-73552771D02*
X196941334Y-73705152D01*
X196941334Y-73705152D02*
X196941334Y-73819438D01*
X196941334Y-73819438D02*
X196903238Y-73971819D01*
X196903238Y-73971819D02*
X196865143Y-74048009D01*
X196865143Y-74048009D02*
X196788953Y-74124200D01*
X196788953Y-74124200D02*
X196674667Y-74162295D01*
X196674667Y-74162295D02*
X196484191Y-74162295D01*
X195455619Y-68673247D02*
X195569905Y-68711342D01*
X195569905Y-68711342D02*
X195608000Y-68749438D01*
X195608000Y-68749438D02*
X195646096Y-68825628D01*
X195646096Y-68825628D02*
X195646096Y-68939914D01*
X195646096Y-68939914D02*
X195608000Y-69016104D01*
X195608000Y-69016104D02*
X195569905Y-69054200D01*
X195569905Y-69054200D02*
X195493715Y-69092295D01*
X195493715Y-69092295D02*
X195188953Y-69092295D01*
X195188953Y-69092295D02*
X195188953Y-68292295D01*
X195188953Y-68292295D02*
X195455619Y-68292295D01*
X195455619Y-68292295D02*
X195531810Y-68330390D01*
X195531810Y-68330390D02*
X195569905Y-68368485D01*
X195569905Y-68368485D02*
X195608000Y-68444676D01*
X195608000Y-68444676D02*
X195608000Y-68520866D01*
X195608000Y-68520866D02*
X195569905Y-68597057D01*
X195569905Y-68597057D02*
X195531810Y-68635152D01*
X195531810Y-68635152D02*
X195455619Y-68673247D01*
X195455619Y-68673247D02*
X195188953Y-68673247D01*
X195988953Y-68787533D02*
X196598477Y-68787533D01*
X196293715Y-69092295D02*
X196293715Y-68482771D01*
X195341334Y-71622295D02*
X195074667Y-71241342D01*
X194884191Y-71622295D02*
X194884191Y-70822295D01*
X194884191Y-70822295D02*
X195188953Y-70822295D01*
X195188953Y-70822295D02*
X195265143Y-70860390D01*
X195265143Y-70860390D02*
X195303238Y-70898485D01*
X195303238Y-70898485D02*
X195341334Y-70974676D01*
X195341334Y-70974676D02*
X195341334Y-71088961D01*
X195341334Y-71088961D02*
X195303238Y-71165152D01*
X195303238Y-71165152D02*
X195265143Y-71203247D01*
X195265143Y-71203247D02*
X195188953Y-71241342D01*
X195188953Y-71241342D02*
X194884191Y-71241342D01*
X195646095Y-71393723D02*
X196027048Y-71393723D01*
X195569905Y-71622295D02*
X195836572Y-70822295D01*
X195836572Y-70822295D02*
X196103238Y-71622295D01*
X196293714Y-70822295D02*
X196484190Y-71622295D01*
X196484190Y-71622295D02*
X196636571Y-71050866D01*
X196636571Y-71050866D02*
X196788952Y-71622295D01*
X196788952Y-71622295D02*
X196979429Y-70822295D01*
X194890524Y-78442295D02*
X195157191Y-79242295D01*
X195157191Y-79242295D02*
X195423857Y-78442295D01*
X196147667Y-79166104D02*
X196109571Y-79204200D01*
X196109571Y-79204200D02*
X195995286Y-79242295D01*
X195995286Y-79242295D02*
X195919095Y-79242295D01*
X195919095Y-79242295D02*
X195804809Y-79204200D01*
X195804809Y-79204200D02*
X195728619Y-79128009D01*
X195728619Y-79128009D02*
X195690524Y-79051819D01*
X195690524Y-79051819D02*
X195652428Y-78899438D01*
X195652428Y-78899438D02*
X195652428Y-78785152D01*
X195652428Y-78785152D02*
X195690524Y-78632771D01*
X195690524Y-78632771D02*
X195728619Y-78556580D01*
X195728619Y-78556580D02*
X195804809Y-78480390D01*
X195804809Y-78480390D02*
X195919095Y-78442295D01*
X195919095Y-78442295D02*
X195995286Y-78442295D01*
X195995286Y-78442295D02*
X196109571Y-78480390D01*
X196109571Y-78480390D02*
X196147667Y-78518485D01*
X196947667Y-79166104D02*
X196909571Y-79204200D01*
X196909571Y-79204200D02*
X196795286Y-79242295D01*
X196795286Y-79242295D02*
X196719095Y-79242295D01*
X196719095Y-79242295D02*
X196604809Y-79204200D01*
X196604809Y-79204200D02*
X196528619Y-79128009D01*
X196528619Y-79128009D02*
X196490524Y-79051819D01*
X196490524Y-79051819D02*
X196452428Y-78899438D01*
X196452428Y-78899438D02*
X196452428Y-78785152D01*
X196452428Y-78785152D02*
X196490524Y-78632771D01*
X196490524Y-78632771D02*
X196528619Y-78556580D01*
X196528619Y-78556580D02*
X196604809Y-78480390D01*
X196604809Y-78480390D02*
X196719095Y-78442295D01*
X196719095Y-78442295D02*
X196795286Y-78442295D01*
X196795286Y-78442295D02*
X196909571Y-78480390D01*
X196909571Y-78480390D02*
X196947667Y-78518485D01*
X195157191Y-80982295D02*
X195233381Y-80982295D01*
X195233381Y-80982295D02*
X195309572Y-81020390D01*
X195309572Y-81020390D02*
X195347667Y-81058485D01*
X195347667Y-81058485D02*
X195385762Y-81134676D01*
X195385762Y-81134676D02*
X195423857Y-81287057D01*
X195423857Y-81287057D02*
X195423857Y-81477533D01*
X195423857Y-81477533D02*
X195385762Y-81629914D01*
X195385762Y-81629914D02*
X195347667Y-81706104D01*
X195347667Y-81706104D02*
X195309572Y-81744200D01*
X195309572Y-81744200D02*
X195233381Y-81782295D01*
X195233381Y-81782295D02*
X195157191Y-81782295D01*
X195157191Y-81782295D02*
X195081000Y-81744200D01*
X195081000Y-81744200D02*
X195042905Y-81706104D01*
X195042905Y-81706104D02*
X195004810Y-81629914D01*
X195004810Y-81629914D02*
X194966714Y-81477533D01*
X194966714Y-81477533D02*
X194966714Y-81287057D01*
X194966714Y-81287057D02*
X195004810Y-81134676D01*
X195004810Y-81134676D02*
X195042905Y-81058485D01*
X195042905Y-81058485D02*
X195081000Y-81020390D01*
X195081000Y-81020390D02*
X195157191Y-80982295D01*
X195690524Y-80982295D02*
X196185762Y-80982295D01*
X196185762Y-80982295D02*
X195919096Y-81287057D01*
X195919096Y-81287057D02*
X196033381Y-81287057D01*
X196033381Y-81287057D02*
X196109572Y-81325152D01*
X196109572Y-81325152D02*
X196147667Y-81363247D01*
X196147667Y-81363247D02*
X196185762Y-81439438D01*
X196185762Y-81439438D02*
X196185762Y-81629914D01*
X196185762Y-81629914D02*
X196147667Y-81706104D01*
X196147667Y-81706104D02*
X196109572Y-81744200D01*
X196109572Y-81744200D02*
X196033381Y-81782295D01*
X196033381Y-81782295D02*
X195804810Y-81782295D01*
X195804810Y-81782295D02*
X195728619Y-81744200D01*
X195728619Y-81744200D02*
X195690524Y-81706104D01*
X196947667Y-81782295D02*
X196490524Y-81782295D01*
X196719096Y-81782295D02*
X196719096Y-80982295D01*
X196719096Y-80982295D02*
X196642905Y-81096580D01*
X196642905Y-81096580D02*
X196566715Y-81172771D01*
X196566715Y-81172771D02*
X196490524Y-81210866D01*
X195157191Y-83522295D02*
X195233381Y-83522295D01*
X195233381Y-83522295D02*
X195309572Y-83560390D01*
X195309572Y-83560390D02*
X195347667Y-83598485D01*
X195347667Y-83598485D02*
X195385762Y-83674676D01*
X195385762Y-83674676D02*
X195423857Y-83827057D01*
X195423857Y-83827057D02*
X195423857Y-84017533D01*
X195423857Y-84017533D02*
X195385762Y-84169914D01*
X195385762Y-84169914D02*
X195347667Y-84246104D01*
X195347667Y-84246104D02*
X195309572Y-84284200D01*
X195309572Y-84284200D02*
X195233381Y-84322295D01*
X195233381Y-84322295D02*
X195157191Y-84322295D01*
X195157191Y-84322295D02*
X195081000Y-84284200D01*
X195081000Y-84284200D02*
X195042905Y-84246104D01*
X195042905Y-84246104D02*
X195004810Y-84169914D01*
X195004810Y-84169914D02*
X194966714Y-84017533D01*
X194966714Y-84017533D02*
X194966714Y-83827057D01*
X194966714Y-83827057D02*
X195004810Y-83674676D01*
X195004810Y-83674676D02*
X195042905Y-83598485D01*
X195042905Y-83598485D02*
X195081000Y-83560390D01*
X195081000Y-83560390D02*
X195157191Y-83522295D01*
X195728619Y-83598485D02*
X195766715Y-83560390D01*
X195766715Y-83560390D02*
X195842905Y-83522295D01*
X195842905Y-83522295D02*
X196033381Y-83522295D01*
X196033381Y-83522295D02*
X196109572Y-83560390D01*
X196109572Y-83560390D02*
X196147667Y-83598485D01*
X196147667Y-83598485D02*
X196185762Y-83674676D01*
X196185762Y-83674676D02*
X196185762Y-83750866D01*
X196185762Y-83750866D02*
X196147667Y-83865152D01*
X196147667Y-83865152D02*
X195690524Y-84322295D01*
X195690524Y-84322295D02*
X196185762Y-84322295D01*
X196566715Y-84322295D02*
X196719096Y-84322295D01*
X196719096Y-84322295D02*
X196795286Y-84284200D01*
X196795286Y-84284200D02*
X196833382Y-84246104D01*
X196833382Y-84246104D02*
X196909572Y-84131819D01*
X196909572Y-84131819D02*
X196947667Y-83979438D01*
X196947667Y-83979438D02*
X196947667Y-83674676D01*
X196947667Y-83674676D02*
X196909572Y-83598485D01*
X196909572Y-83598485D02*
X196871477Y-83560390D01*
X196871477Y-83560390D02*
X196795286Y-83522295D01*
X196795286Y-83522295D02*
X196642905Y-83522295D01*
X196642905Y-83522295D02*
X196566715Y-83560390D01*
X196566715Y-83560390D02*
X196528620Y-83598485D01*
X196528620Y-83598485D02*
X196490524Y-83674676D01*
X196490524Y-83674676D02*
X196490524Y-83865152D01*
X196490524Y-83865152D02*
X196528620Y-83941342D01*
X196528620Y-83941342D02*
X196566715Y-83979438D01*
X196566715Y-83979438D02*
X196642905Y-84017533D01*
X196642905Y-84017533D02*
X196795286Y-84017533D01*
X196795286Y-84017533D02*
X196871477Y-83979438D01*
X196871477Y-83979438D02*
X196909572Y-83941342D01*
X196909572Y-83941342D02*
X196947667Y-83865152D01*
X195157191Y-86062295D02*
X195233381Y-86062295D01*
X195233381Y-86062295D02*
X195309572Y-86100390D01*
X195309572Y-86100390D02*
X195347667Y-86138485D01*
X195347667Y-86138485D02*
X195385762Y-86214676D01*
X195385762Y-86214676D02*
X195423857Y-86367057D01*
X195423857Y-86367057D02*
X195423857Y-86557533D01*
X195423857Y-86557533D02*
X195385762Y-86709914D01*
X195385762Y-86709914D02*
X195347667Y-86786104D01*
X195347667Y-86786104D02*
X195309572Y-86824200D01*
X195309572Y-86824200D02*
X195233381Y-86862295D01*
X195233381Y-86862295D02*
X195157191Y-86862295D01*
X195157191Y-86862295D02*
X195081000Y-86824200D01*
X195081000Y-86824200D02*
X195042905Y-86786104D01*
X195042905Y-86786104D02*
X195004810Y-86709914D01*
X195004810Y-86709914D02*
X194966714Y-86557533D01*
X194966714Y-86557533D02*
X194966714Y-86367057D01*
X194966714Y-86367057D02*
X195004810Y-86214676D01*
X195004810Y-86214676D02*
X195042905Y-86138485D01*
X195042905Y-86138485D02*
X195081000Y-86100390D01*
X195081000Y-86100390D02*
X195157191Y-86062295D01*
X195919096Y-86062295D02*
X195995286Y-86062295D01*
X195995286Y-86062295D02*
X196071477Y-86100390D01*
X196071477Y-86100390D02*
X196109572Y-86138485D01*
X196109572Y-86138485D02*
X196147667Y-86214676D01*
X196147667Y-86214676D02*
X196185762Y-86367057D01*
X196185762Y-86367057D02*
X196185762Y-86557533D01*
X196185762Y-86557533D02*
X196147667Y-86709914D01*
X196147667Y-86709914D02*
X196109572Y-86786104D01*
X196109572Y-86786104D02*
X196071477Y-86824200D01*
X196071477Y-86824200D02*
X195995286Y-86862295D01*
X195995286Y-86862295D02*
X195919096Y-86862295D01*
X195919096Y-86862295D02*
X195842905Y-86824200D01*
X195842905Y-86824200D02*
X195804810Y-86786104D01*
X195804810Y-86786104D02*
X195766715Y-86709914D01*
X195766715Y-86709914D02*
X195728619Y-86557533D01*
X195728619Y-86557533D02*
X195728619Y-86367057D01*
X195728619Y-86367057D02*
X195766715Y-86214676D01*
X195766715Y-86214676D02*
X195804810Y-86138485D01*
X195804810Y-86138485D02*
X195842905Y-86100390D01*
X195842905Y-86100390D02*
X195919096Y-86062295D01*
X196490524Y-86138485D02*
X196528620Y-86100390D01*
X196528620Y-86100390D02*
X196604810Y-86062295D01*
X196604810Y-86062295D02*
X196795286Y-86062295D01*
X196795286Y-86062295D02*
X196871477Y-86100390D01*
X196871477Y-86100390D02*
X196909572Y-86138485D01*
X196909572Y-86138485D02*
X196947667Y-86214676D01*
X196947667Y-86214676D02*
X196947667Y-86290866D01*
X196947667Y-86290866D02*
X196909572Y-86405152D01*
X196909572Y-86405152D02*
X196452429Y-86862295D01*
X196452429Y-86862295D02*
X196947667Y-86862295D01*
X195423857Y-89402295D02*
X194966714Y-89402295D01*
X195195286Y-89402295D02*
X195195286Y-88602295D01*
X195195286Y-88602295D02*
X195119095Y-88716580D01*
X195119095Y-88716580D02*
X195042905Y-88792771D01*
X195042905Y-88792771D02*
X194966714Y-88830866D01*
X196185762Y-89402295D02*
X195728619Y-89402295D01*
X195957191Y-89402295D02*
X195957191Y-88602295D01*
X195957191Y-88602295D02*
X195881000Y-88716580D01*
X195881000Y-88716580D02*
X195804810Y-88792771D01*
X195804810Y-88792771D02*
X195728619Y-88830866D01*
X196909572Y-88602295D02*
X196528620Y-88602295D01*
X196528620Y-88602295D02*
X196490524Y-88983247D01*
X196490524Y-88983247D02*
X196528620Y-88945152D01*
X196528620Y-88945152D02*
X196604810Y-88907057D01*
X196604810Y-88907057D02*
X196795286Y-88907057D01*
X196795286Y-88907057D02*
X196871477Y-88945152D01*
X196871477Y-88945152D02*
X196909572Y-88983247D01*
X196909572Y-88983247D02*
X196947667Y-89059438D01*
X196947667Y-89059438D02*
X196947667Y-89249914D01*
X196947667Y-89249914D02*
X196909572Y-89326104D01*
X196909572Y-89326104D02*
X196871477Y-89364200D01*
X196871477Y-89364200D02*
X196795286Y-89402295D01*
X196795286Y-89402295D02*
X196604810Y-89402295D01*
X196604810Y-89402295D02*
X196528620Y-89364200D01*
X196528620Y-89364200D02*
X196490524Y-89326104D01*
X195423857Y-91942295D02*
X194966714Y-91942295D01*
X195195286Y-91942295D02*
X195195286Y-91142295D01*
X195195286Y-91142295D02*
X195119095Y-91256580D01*
X195119095Y-91256580D02*
X195042905Y-91332771D01*
X195042905Y-91332771D02*
X194966714Y-91370866D01*
X196185762Y-91942295D02*
X195728619Y-91942295D01*
X195957191Y-91942295D02*
X195957191Y-91142295D01*
X195957191Y-91142295D02*
X195881000Y-91256580D01*
X195881000Y-91256580D02*
X195804810Y-91332771D01*
X195804810Y-91332771D02*
X195728619Y-91370866D01*
X196452429Y-91142295D02*
X196947667Y-91142295D01*
X196947667Y-91142295D02*
X196681001Y-91447057D01*
X196681001Y-91447057D02*
X196795286Y-91447057D01*
X196795286Y-91447057D02*
X196871477Y-91485152D01*
X196871477Y-91485152D02*
X196909572Y-91523247D01*
X196909572Y-91523247D02*
X196947667Y-91599438D01*
X196947667Y-91599438D02*
X196947667Y-91789914D01*
X196947667Y-91789914D02*
X196909572Y-91866104D01*
X196909572Y-91866104D02*
X196871477Y-91904200D01*
X196871477Y-91904200D02*
X196795286Y-91942295D01*
X196795286Y-91942295D02*
X196566715Y-91942295D01*
X196566715Y-91942295D02*
X196490524Y-91904200D01*
X196490524Y-91904200D02*
X196452429Y-91866104D01*
X195423857Y-94482295D02*
X194966714Y-94482295D01*
X195195286Y-94482295D02*
X195195286Y-93682295D01*
X195195286Y-93682295D02*
X195119095Y-93796580D01*
X195119095Y-93796580D02*
X195042905Y-93872771D01*
X195042905Y-93872771D02*
X194966714Y-93910866D01*
X196185762Y-94482295D02*
X195728619Y-94482295D01*
X195957191Y-94482295D02*
X195957191Y-93682295D01*
X195957191Y-93682295D02*
X195881000Y-93796580D01*
X195881000Y-93796580D02*
X195804810Y-93872771D01*
X195804810Y-93872771D02*
X195728619Y-93910866D01*
X196947667Y-94482295D02*
X196490524Y-94482295D01*
X196719096Y-94482295D02*
X196719096Y-93682295D01*
X196719096Y-93682295D02*
X196642905Y-93796580D01*
X196642905Y-93796580D02*
X196566715Y-93872771D01*
X196566715Y-93872771D02*
X196490524Y-93910866D01*
X195157191Y-96222295D02*
X195233381Y-96222295D01*
X195233381Y-96222295D02*
X195309572Y-96260390D01*
X195309572Y-96260390D02*
X195347667Y-96298485D01*
X195347667Y-96298485D02*
X195385762Y-96374676D01*
X195385762Y-96374676D02*
X195423857Y-96527057D01*
X195423857Y-96527057D02*
X195423857Y-96717533D01*
X195423857Y-96717533D02*
X195385762Y-96869914D01*
X195385762Y-96869914D02*
X195347667Y-96946104D01*
X195347667Y-96946104D02*
X195309572Y-96984200D01*
X195309572Y-96984200D02*
X195233381Y-97022295D01*
X195233381Y-97022295D02*
X195157191Y-97022295D01*
X195157191Y-97022295D02*
X195081000Y-96984200D01*
X195081000Y-96984200D02*
X195042905Y-96946104D01*
X195042905Y-96946104D02*
X195004810Y-96869914D01*
X195004810Y-96869914D02*
X194966714Y-96717533D01*
X194966714Y-96717533D02*
X194966714Y-96527057D01*
X194966714Y-96527057D02*
X195004810Y-96374676D01*
X195004810Y-96374676D02*
X195042905Y-96298485D01*
X195042905Y-96298485D02*
X195081000Y-96260390D01*
X195081000Y-96260390D02*
X195157191Y-96222295D01*
X196185762Y-97022295D02*
X195728619Y-97022295D01*
X195957191Y-97022295D02*
X195957191Y-96222295D01*
X195957191Y-96222295D02*
X195881000Y-96336580D01*
X195881000Y-96336580D02*
X195804810Y-96412771D01*
X195804810Y-96412771D02*
X195728619Y-96450866D01*
X196681001Y-96222295D02*
X196757191Y-96222295D01*
X196757191Y-96222295D02*
X196833382Y-96260390D01*
X196833382Y-96260390D02*
X196871477Y-96298485D01*
X196871477Y-96298485D02*
X196909572Y-96374676D01*
X196909572Y-96374676D02*
X196947667Y-96527057D01*
X196947667Y-96527057D02*
X196947667Y-96717533D01*
X196947667Y-96717533D02*
X196909572Y-96869914D01*
X196909572Y-96869914D02*
X196871477Y-96946104D01*
X196871477Y-96946104D02*
X196833382Y-96984200D01*
X196833382Y-96984200D02*
X196757191Y-97022295D01*
X196757191Y-97022295D02*
X196681001Y-97022295D01*
X196681001Y-97022295D02*
X196604810Y-96984200D01*
X196604810Y-96984200D02*
X196566715Y-96946104D01*
X196566715Y-96946104D02*
X196528620Y-96869914D01*
X196528620Y-96869914D02*
X196490524Y-96717533D01*
X196490524Y-96717533D02*
X196490524Y-96527057D01*
X196490524Y-96527057D02*
X196528620Y-96374676D01*
X196528620Y-96374676D02*
X196566715Y-96298485D01*
X196566715Y-96298485D02*
X196604810Y-96260390D01*
X196604810Y-96260390D02*
X196681001Y-96222295D01*
X195569905Y-76702295D02*
X195303238Y-76321342D01*
X195112762Y-76702295D02*
X195112762Y-75902295D01*
X195112762Y-75902295D02*
X195417524Y-75902295D01*
X195417524Y-75902295D02*
X195493714Y-75940390D01*
X195493714Y-75940390D02*
X195531809Y-75978485D01*
X195531809Y-75978485D02*
X195569905Y-76054676D01*
X195569905Y-76054676D02*
X195569905Y-76168961D01*
X195569905Y-76168961D02*
X195531809Y-76245152D01*
X195531809Y-76245152D02*
X195493714Y-76283247D01*
X195493714Y-76283247D02*
X195417524Y-76321342D01*
X195417524Y-76321342D02*
X195112762Y-76321342D01*
X195874666Y-76664200D02*
X195988952Y-76702295D01*
X195988952Y-76702295D02*
X196179428Y-76702295D01*
X196179428Y-76702295D02*
X196255619Y-76664200D01*
X196255619Y-76664200D02*
X196293714Y-76626104D01*
X196293714Y-76626104D02*
X196331809Y-76549914D01*
X196331809Y-76549914D02*
X196331809Y-76473723D01*
X196331809Y-76473723D02*
X196293714Y-76397533D01*
X196293714Y-76397533D02*
X196255619Y-76359438D01*
X196255619Y-76359438D02*
X196179428Y-76321342D01*
X196179428Y-76321342D02*
X196027047Y-76283247D01*
X196027047Y-76283247D02*
X195950857Y-76245152D01*
X195950857Y-76245152D02*
X195912762Y-76207057D01*
X195912762Y-76207057D02*
X195874666Y-76130866D01*
X195874666Y-76130866D02*
X195874666Y-76054676D01*
X195874666Y-76054676D02*
X195912762Y-75978485D01*
X195912762Y-75978485D02*
X195950857Y-75940390D01*
X195950857Y-75940390D02*
X196027047Y-75902295D01*
X196027047Y-75902295D02*
X196217524Y-75902295D01*
X196217524Y-75902295D02*
X196331809Y-75940390D01*
X196560381Y-75902295D02*
X197017524Y-75902295D01*
X196788952Y-76702295D02*
X196788952Y-75902295D01*
X93153698Y-43345765D02*
X93118798Y-42346374D01*
X93118798Y-42346374D02*
X93476857Y-43048592D01*
X93476857Y-43048592D02*
X93785059Y-42323108D01*
X93785059Y-42323108D02*
X93819958Y-43322499D01*
X94295859Y-43305880D02*
X94260959Y-42306489D01*
X94277578Y-42782390D02*
X94848659Y-42762447D01*
X94866939Y-43285937D02*
X94832040Y-42286547D01*
X95866330Y-43251038D02*
X95295250Y-43270980D01*
X95580790Y-43261009D02*
X95545890Y-42261618D01*
X95545890Y-42261618D02*
X95455696Y-42407712D01*
X95455696Y-42407712D02*
X95363839Y-42506216D01*
X95363839Y-42506216D02*
X95270321Y-42557130D01*
X122566667Y-115654819D02*
X122566667Y-114654819D01*
X122566667Y-114654819D02*
X122900000Y-115369104D01*
X122900000Y-115369104D02*
X123233333Y-114654819D01*
X123233333Y-114654819D02*
X123233333Y-115654819D01*
X123709524Y-115654819D02*
X123709524Y-114654819D01*
X123709524Y-115131009D02*
X124280952Y-115131009D01*
X124280952Y-115654819D02*
X124280952Y-114654819D01*
X125185714Y-114988152D02*
X125185714Y-115654819D01*
X124947619Y-114607200D02*
X124709524Y-115321485D01*
X124709524Y-115321485D02*
X125328571Y-115321485D01*
X201316667Y-60454819D02*
X201316667Y-59454819D01*
X201316667Y-59454819D02*
X201650000Y-60169104D01*
X201650000Y-60169104D02*
X201983333Y-59454819D01*
X201983333Y-59454819D02*
X201983333Y-60454819D01*
X202459524Y-60454819D02*
X202459524Y-59454819D01*
X202459524Y-59931009D02*
X203030952Y-59931009D01*
X203030952Y-60454819D02*
X203030952Y-59454819D01*
X203411905Y-59454819D02*
X204030952Y-59454819D01*
X204030952Y-59454819D02*
X203697619Y-59835771D01*
X203697619Y-59835771D02*
X203840476Y-59835771D01*
X203840476Y-59835771D02*
X203935714Y-59883390D01*
X203935714Y-59883390D02*
X203983333Y-59931009D01*
X203983333Y-59931009D02*
X204030952Y-60026247D01*
X204030952Y-60026247D02*
X204030952Y-60264342D01*
X204030952Y-60264342D02*
X203983333Y-60359580D01*
X203983333Y-60359580D02*
X203935714Y-60407200D01*
X203935714Y-60407200D02*
X203840476Y-60454819D01*
X203840476Y-60454819D02*
X203554762Y-60454819D01*
X203554762Y-60454819D02*
X203459524Y-60407200D01*
X203459524Y-60407200D02*
X203411905Y-60359580D01*
%TO.C,D27*%
D11*
X163059999Y-47440506D02*
X163060000Y-46640506D01*
X163060000Y-46640506D02*
X163660000Y-47040505D01*
X163060000Y-47040506D02*
X162560000Y-47040507D01*
X163660000Y-47040505D02*
X163059999Y-47440506D01*
X163660000Y-47040505D02*
X163659999Y-47590506D01*
X163660000Y-47040505D02*
X163660001Y-46490506D01*
X164060000Y-47040505D02*
X163660000Y-47040505D01*
%TO.C,D16*%
X125059998Y-89640506D02*
X125059999Y-90440506D01*
X125059999Y-90040506D02*
X124559999Y-90040505D01*
X125059999Y-90440506D02*
X125659999Y-90040507D01*
X125659999Y-90040507D02*
X125059998Y-89640506D01*
X125659999Y-90040507D02*
X125659998Y-89490506D01*
X125659999Y-90040507D02*
X125660000Y-90590506D01*
X126059999Y-90040507D02*
X125659999Y-90040507D01*
%TO.C,D13*%
X106059998Y-78640505D02*
X106059999Y-79440505D01*
X106059999Y-79040505D02*
X105559999Y-79040504D01*
X106059999Y-79440505D02*
X106659999Y-79040506D01*
X106659999Y-79040506D02*
X106059998Y-78640505D01*
X106659999Y-79040506D02*
X106659998Y-78490505D01*
X106659999Y-79040506D02*
X106660000Y-79590505D01*
X107059999Y-79040506D02*
X106659999Y-79040506D01*
%TO.C,D28*%
X183420068Y-132559507D02*
X184120691Y-132388841D01*
X183556876Y-132183629D02*
X183087030Y-132012619D01*
X183693684Y-131807752D02*
X183420068Y-132559507D01*
X184120691Y-132388841D02*
X183693684Y-131807752D01*
X184120691Y-132388841D02*
X183932579Y-132905672D01*
X184120691Y-132388841D02*
X184308802Y-131872010D01*
X184496568Y-132525649D02*
X184120691Y-132388841D01*
%TO.C,D5*%
X64646354Y-56485644D02*
X64646360Y-57285644D01*
X64646360Y-56885644D02*
X64146360Y-56885644D01*
X64646360Y-57285644D02*
X65246360Y-56885645D01*
X65246360Y-56885645D02*
X64646354Y-56485644D01*
X65246360Y-56885645D02*
X65246359Y-56335644D01*
X65246360Y-56885645D02*
X65246361Y-57435644D01*
X65646360Y-56885644D02*
X65246360Y-56885645D01*
%TO.C,D7*%
X83646355Y-108485645D02*
X83646361Y-109285645D01*
X83646361Y-108885645D02*
X83146361Y-108885645D01*
X83646361Y-109285645D02*
X84246361Y-108885646D01*
X84246361Y-108885646D02*
X83646355Y-108485645D01*
X84246361Y-108885646D02*
X84246360Y-108335645D01*
X84246361Y-108885646D02*
X84246362Y-109435645D01*
X84646361Y-108885645D02*
X84246361Y-108885646D01*
%TO.C,D23*%
X144059997Y-40640506D02*
X144059998Y-41440506D01*
X144059998Y-41040506D02*
X143559998Y-41040505D01*
X144059998Y-41440506D02*
X144659998Y-41040507D01*
X144659998Y-41040507D02*
X144059997Y-40640506D01*
X144659998Y-41040507D02*
X144659997Y-40490506D01*
X144659998Y-41040507D02*
X144659999Y-41590506D01*
X145059998Y-41040507D02*
X144659998Y-41040507D01*
%TO.C,D10*%
X83646355Y-51485646D02*
X83646361Y-52285646D01*
X83646361Y-51885646D02*
X83146361Y-51885646D01*
X83646361Y-52285646D02*
X84246361Y-51885647D01*
X84246361Y-51885647D02*
X83646355Y-51485646D01*
X84246361Y-51885647D02*
X84246360Y-51335646D01*
X84246361Y-51885647D02*
X84246362Y-52435646D01*
X84646361Y-51885646D02*
X84246361Y-51885647D01*
%TO.C,D17*%
X125059997Y-70640506D02*
X125059998Y-71440506D01*
X125059998Y-71040506D02*
X124559998Y-71040505D01*
X125059998Y-71440506D02*
X125659998Y-71040507D01*
X125659998Y-71040507D02*
X125059997Y-70640506D01*
X125659998Y-71040507D02*
X125659997Y-70490506D01*
X125659998Y-71040507D02*
X125659999Y-71590506D01*
X126059998Y-71040507D02*
X125659998Y-71040507D01*
%TO.C,D18*%
X125059999Y-51640507D02*
X125060000Y-52440507D01*
X125060000Y-52040507D02*
X124560000Y-52040506D01*
X125060000Y-52440507D02*
X125660000Y-52040508D01*
X125660000Y-52040508D02*
X125059999Y-51640507D01*
X125660000Y-52040508D02*
X125659999Y-51490507D01*
X125660000Y-52040508D02*
X125660001Y-52590507D01*
X126060000Y-52040508D02*
X125660000Y-52040508D01*
%TO.C,D1*%
X64546362Y-132485644D02*
X64546368Y-133285644D01*
X64546368Y-132885644D02*
X64046368Y-132885644D01*
X64546368Y-133285644D02*
X65146368Y-132885645D01*
X65146368Y-132885645D02*
X64546362Y-132485644D01*
X65146368Y-132885645D02*
X65146367Y-132335644D01*
X65146368Y-132885645D02*
X65146369Y-133435644D01*
X65546368Y-132885644D02*
X65146368Y-132885645D01*
%TO.C,D20*%
X144059997Y-97640506D02*
X144059998Y-98440506D01*
X144059998Y-98040506D02*
X143559998Y-98040505D01*
X144059998Y-98440506D02*
X144659998Y-98040507D01*
X144659998Y-98040507D02*
X144059997Y-97640506D01*
X144659998Y-98040507D02*
X144659997Y-97490506D01*
X144659998Y-98040507D02*
X144659999Y-98590506D01*
X145059998Y-98040507D02*
X144659998Y-98040507D01*
%TO.C,D14*%
X106059998Y-59640506D02*
X106059999Y-60440506D01*
X106059999Y-60040506D02*
X105559999Y-60040505D01*
X106059999Y-60440506D02*
X106659999Y-60040507D01*
X106659999Y-60040507D02*
X106059998Y-59640506D01*
X106659999Y-60040507D02*
X106659998Y-59490506D01*
X106659999Y-60040507D02*
X106660000Y-60590506D01*
X107059999Y-60040507D02*
X106659999Y-60040507D01*
%TO.C,MCU1*%
D12*
X181530000Y-67450000D02*
X181530000Y-100470000D01*
X181530000Y-100470000D02*
X199310000Y-100470000D01*
X199310000Y-67450000D02*
X181530000Y-67450000D01*
X199310000Y-100470000D02*
X199310000Y-67450000D01*
%TO.C,D3*%
D11*
X64646354Y-94485646D02*
X64646360Y-95285646D01*
X64646360Y-94885646D02*
X64146360Y-94885646D01*
X64646360Y-95285646D02*
X65246360Y-94885647D01*
X65246360Y-94885647D02*
X64646354Y-94485646D01*
X65246360Y-94885647D02*
X65246359Y-94335646D01*
X65246360Y-94885647D02*
X65246361Y-95435646D01*
X65646360Y-94885646D02*
X65246360Y-94885647D01*
%TO.C,D24*%
X139059998Y-117640504D02*
X139059999Y-118440504D01*
X139059999Y-118040504D02*
X138559999Y-118040503D01*
X139059999Y-118440504D02*
X139659999Y-118040505D01*
X139659999Y-118040505D02*
X139059998Y-117640504D01*
X139659999Y-118040505D02*
X139659998Y-117490504D01*
X139659999Y-118040505D02*
X139660000Y-118590504D01*
X140059999Y-118040505D02*
X139659999Y-118040505D01*
%TO.C,D6*%
X83646356Y-127485646D02*
X83646362Y-128285646D01*
X83646362Y-127885646D02*
X83146362Y-127885646D01*
X83646362Y-128285646D02*
X84246362Y-127885647D01*
X84246362Y-127885647D02*
X83646356Y-127485646D01*
X84246362Y-127885647D02*
X84246361Y-127335646D01*
X84246362Y-127885647D02*
X84246363Y-128435646D01*
X84646362Y-127885646D02*
X84246362Y-127885647D01*
%TO.C,D24*%
X163059999Y-103640505D02*
X163060000Y-104440505D01*
X163060000Y-104040505D02*
X162560000Y-104040504D01*
X163060000Y-104440505D02*
X163660000Y-104040506D01*
X163660000Y-104040506D02*
X163059999Y-103640505D01*
X163660000Y-104040506D02*
X163659999Y-103490505D01*
X163660000Y-104040506D02*
X163660001Y-104590505D01*
X164060000Y-104040506D02*
X163660000Y-104040506D01*
%TO.C,D1*%
X64646356Y-114285645D02*
X64646362Y-113485645D01*
X64646362Y-113485645D02*
X65246362Y-113885644D01*
X64646362Y-113885645D02*
X64146362Y-113885645D01*
X65246362Y-113885644D02*
X64646356Y-114285645D01*
X65246362Y-113885644D02*
X65246361Y-114435645D01*
X65246362Y-113885644D02*
X65246363Y-113335645D01*
X65646362Y-113885645D02*
X65246362Y-113885644D01*
%TO.C,D26*%
X163059998Y-65640506D02*
X163059999Y-66440506D01*
X163059999Y-66040506D02*
X162559999Y-66040505D01*
X163059999Y-66440506D02*
X163659999Y-66040507D01*
X163659999Y-66040507D02*
X163059998Y-65640506D01*
X163659999Y-66040507D02*
X163659998Y-65490506D01*
X163659999Y-66040507D02*
X163660000Y-66590506D01*
X164059999Y-66040507D02*
X163659999Y-66040507D01*
%TO.C,D25*%
X163059999Y-84640506D02*
X163060000Y-85440506D01*
X163060000Y-85040506D02*
X162560000Y-85040505D01*
X163060000Y-85440506D02*
X163660000Y-85040507D01*
X163660000Y-85040507D02*
X163059999Y-84640506D01*
X163660000Y-85040507D02*
X163659999Y-84490506D01*
X163660000Y-85040507D02*
X163660001Y-85590506D01*
X164060000Y-85040507D02*
X163660000Y-85040507D01*
%TO.C,D8*%
X83646357Y-89485646D02*
X83646363Y-90285646D01*
X83646363Y-89885646D02*
X83146363Y-89885646D01*
X83646363Y-90285646D02*
X84246363Y-89885647D01*
X84246363Y-89885647D02*
X83646357Y-89485646D01*
X84246363Y-89885647D02*
X84246362Y-89335646D01*
X84246363Y-89885647D02*
X84246364Y-90435646D01*
X84646363Y-89885646D02*
X84246363Y-89885647D01*
%TO.C,D22*%
X144059998Y-59640506D02*
X144059999Y-60440506D01*
X144059999Y-60040506D02*
X143559999Y-60040505D01*
X144059999Y-60440506D02*
X144659999Y-60040507D01*
X144659999Y-60040507D02*
X144059998Y-59640506D01*
X144659999Y-60040507D02*
X144659998Y-59490506D01*
X144659999Y-60040507D02*
X144660000Y-60590506D01*
X145059999Y-60040507D02*
X144659999Y-60040507D01*
%TO.C,D15*%
X106059997Y-40640506D02*
X106059998Y-41440506D01*
X106059998Y-41040506D02*
X105559998Y-41040505D01*
X106059998Y-41440506D02*
X106659998Y-41040507D01*
X106659998Y-41040507D02*
X106059997Y-40640506D01*
X106659998Y-41040507D02*
X106659997Y-40490506D01*
X106659998Y-41040507D02*
X106659999Y-41590506D01*
X107059998Y-41040507D02*
X106659998Y-41040507D01*
%TO.C,D4*%
X64646356Y-76285645D02*
X64646362Y-75485645D01*
X64646362Y-75485645D02*
X65246362Y-75885644D01*
X64646362Y-75885645D02*
X64146362Y-75885645D01*
X65246362Y-75885644D02*
X64646356Y-76285645D01*
X65246362Y-75885644D02*
X65246361Y-76435645D01*
X65246362Y-75885644D02*
X65246363Y-75335645D01*
X65646362Y-75885645D02*
X65246362Y-75885644D01*
%TO.C,D28*%
X163771884Y-126105208D02*
X164467799Y-125916261D01*
X163898805Y-125725877D02*
X163424644Y-125567226D01*
X164025729Y-125346549D02*
X163771884Y-126105208D01*
X164467799Y-125916261D02*
X164025729Y-125346549D01*
X164467799Y-125916261D02*
X164293281Y-126437840D01*
X164467799Y-125916261D02*
X164642316Y-125394681D01*
X164847128Y-126043180D02*
X164467799Y-125916261D01*
%TO.C,D12*%
X106059999Y-97640507D02*
X106060000Y-98440507D01*
X106060000Y-98040507D02*
X105560000Y-98040506D01*
X106060000Y-98440507D02*
X106660000Y-98040508D01*
X106660000Y-98040508D02*
X106059999Y-97640507D01*
X106660000Y-98040508D02*
X106659999Y-97490507D01*
X106660000Y-98040508D02*
X106660001Y-98590507D01*
X107060000Y-98040508D02*
X106660000Y-98040508D01*
%TO.C,D21*%
X144059998Y-78640506D02*
X144059999Y-79440506D01*
X144059999Y-79040506D02*
X143559999Y-79040505D01*
X144059999Y-79440506D02*
X144659999Y-79040507D01*
X144659999Y-79040507D02*
X144059998Y-78640506D01*
X144659999Y-79040507D02*
X144659998Y-78490506D01*
X144659999Y-79040507D02*
X144660000Y-79590506D01*
X145059999Y-79040507D02*
X144659999Y-79040507D01*
%TO.C,D28*%
X193674055Y-112567263D02*
X194368294Y-112372249D01*
X193797661Y-112186839D02*
X193322132Y-112032330D01*
X193921268Y-111806416D02*
X193674055Y-112567263D01*
X194368294Y-112372249D02*
X193921268Y-111806416D01*
X194368294Y-112372249D02*
X194198334Y-112895330D01*
X194368294Y-112372249D02*
X194538254Y-111849168D01*
X194748718Y-112495856D02*
X194368294Y-112372249D01*
%TO.C,D11*%
X106059999Y-116640506D02*
X106060000Y-117440506D01*
X106060000Y-117040506D02*
X105560000Y-117040505D01*
X106060000Y-117440506D02*
X106660000Y-117040507D01*
X106660000Y-117040507D02*
X106059999Y-116640506D01*
X106660000Y-117040507D02*
X106659999Y-116490506D01*
X106660000Y-117040507D02*
X106660001Y-117590506D01*
X107060000Y-117040507D02*
X106660000Y-117040507D01*
%TO.C,D9*%
X83646355Y-70485644D02*
X83646361Y-71285644D01*
X83646361Y-70885644D02*
X83146361Y-70885644D01*
X83646361Y-71285644D02*
X84246361Y-70885645D01*
X84246361Y-70885645D02*
X83646355Y-70485644D01*
X84246361Y-70885645D02*
X84246360Y-70335644D01*
X84246361Y-70885645D02*
X84246362Y-71435644D01*
X84646361Y-70885644D02*
X84246361Y-70885645D01*
%TO.C,D19*%
X125059998Y-33440506D02*
X125059999Y-32640506D01*
X125059999Y-32640506D02*
X125659999Y-33040505D01*
X125059999Y-33040506D02*
X124559999Y-33040507D01*
X125659999Y-33040505D02*
X125059998Y-33440506D01*
X125659999Y-33040505D02*
X125659998Y-33590506D01*
X125659999Y-33040505D02*
X125660000Y-32490506D01*
X126059999Y-33040505D02*
X125659999Y-33040505D01*
%TO.C,T1*%
D10*
X177010000Y-56540506D02*
X177010000Y-53690506D01*
X178360001Y-53690506D02*
X182259999Y-53690506D01*
X180310000Y-53690504D02*
X177010000Y-53690506D01*
X180310000Y-53690504D02*
X183610000Y-53690505D01*
X183610000Y-53690505D02*
X183610000Y-56540508D01*
X183610000Y-56540508D02*
X177010000Y-56540506D01*
%TD*%
D13*
%TO.C,MCU1*%
X182800000Y-68720000D03*
X182800000Y-71260000D03*
X182800000Y-73800000D03*
X182800000Y-76340000D03*
X182800000Y-78880000D03*
X182800000Y-81420000D03*
X182800000Y-83960000D03*
X182800000Y-86500000D03*
X182800000Y-89040000D03*
X182800000Y-91580000D03*
X182800000Y-94120000D03*
X182800000Y-96660000D03*
X182800000Y-99200000D03*
X198040000Y-99200000D03*
X198040000Y-96660000D03*
X198040000Y-94120000D03*
X198040000Y-91580000D03*
X198040000Y-89040000D03*
X198040000Y-86500000D03*
X198040000Y-83960000D03*
X198040000Y-81420000D03*
X198040000Y-78880000D03*
X198040000Y-76340000D03*
X198040000Y-73800000D03*
X198040000Y-71260000D03*
X198040000Y-68730000D03*
X185340000Y-96660000D03*
X190420000Y-96660000D03*
%TD*%
M02*
