%TF.GenerationSoftware,KiCad,Pcbnew,10.0.0*%
%TF.CreationDate,2026-04-15T13:23:26+03:00*%
%TF.ProjectId,my_left,6d795f6c-6566-4742-9e6b-696361645f70,v1.0.0*%
%TF.SameCoordinates,Original*%
%TF.FileFunction,Legend,Bot*%
%TF.FilePolarity,Positive*%
%FSLAX46Y46*%
G04 Gerber Fmt 4.6, Leading zero omitted, Abs format (unit mm)*
G04 Created by KiCad (PCBNEW 10.0.0) date 2026-04-15 13:23:26*
%MOMM*%
%LPD*%
G01*
G04 APERTURE LIST*
%ADD10C,0.150000*%
%ADD11C,0.100000*%
%ADD12C,0.381000*%
%ADD13C,1.752600*%
G04 APERTURE END LIST*
D10*
X185682809Y-70822295D02*
X185606619Y-70822295D01*
X185606619Y-70822295D02*
X185530428Y-70860390D01*
X185530428Y-70860390D02*
X185492333Y-70898485D01*
X185492333Y-70898485D02*
X185454238Y-70974676D01*
X185454238Y-70974676D02*
X185416143Y-71127057D01*
X185416143Y-71127057D02*
X185416143Y-71317533D01*
X185416143Y-71317533D02*
X185454238Y-71469914D01*
X185454238Y-71469914D02*
X185492333Y-71546104D01*
X185492333Y-71546104D02*
X185530428Y-71584200D01*
X185530428Y-71584200D02*
X185606619Y-71622295D01*
X185606619Y-71622295D02*
X185682809Y-71622295D01*
X185682809Y-71622295D02*
X185759000Y-71584200D01*
X185759000Y-71584200D02*
X185797095Y-71546104D01*
X185797095Y-71546104D02*
X185835190Y-71469914D01*
X185835190Y-71469914D02*
X185873286Y-71317533D01*
X185873286Y-71317533D02*
X185873286Y-71127057D01*
X185873286Y-71127057D02*
X185835190Y-70974676D01*
X185835190Y-70974676D02*
X185797095Y-70898485D01*
X185797095Y-70898485D02*
X185759000Y-70860390D01*
X185759000Y-70860390D02*
X185682809Y-70822295D01*
X184920904Y-70822295D02*
X184844714Y-70822295D01*
X184844714Y-70822295D02*
X184768523Y-70860390D01*
X184768523Y-70860390D02*
X184730428Y-70898485D01*
X184730428Y-70898485D02*
X184692333Y-70974676D01*
X184692333Y-70974676D02*
X184654238Y-71127057D01*
X184654238Y-71127057D02*
X184654238Y-71317533D01*
X184654238Y-71317533D02*
X184692333Y-71469914D01*
X184692333Y-71469914D02*
X184730428Y-71546104D01*
X184730428Y-71546104D02*
X184768523Y-71584200D01*
X184768523Y-71584200D02*
X184844714Y-71622295D01*
X184844714Y-71622295D02*
X184920904Y-71622295D01*
X184920904Y-71622295D02*
X184997095Y-71584200D01*
X184997095Y-71584200D02*
X185035190Y-71546104D01*
X185035190Y-71546104D02*
X185073285Y-71469914D01*
X185073285Y-71469914D02*
X185111381Y-71317533D01*
X185111381Y-71317533D02*
X185111381Y-71127057D01*
X185111381Y-71127057D02*
X185073285Y-70974676D01*
X185073285Y-70974676D02*
X185035190Y-70898485D01*
X185035190Y-70898485D02*
X184997095Y-70860390D01*
X184997095Y-70860390D02*
X184920904Y-70822295D01*
X183968523Y-70822295D02*
X184120904Y-70822295D01*
X184120904Y-70822295D02*
X184197095Y-70860390D01*
X184197095Y-70860390D02*
X184235190Y-70898485D01*
X184235190Y-70898485D02*
X184311380Y-71012771D01*
X184311380Y-71012771D02*
X184349476Y-71165152D01*
X184349476Y-71165152D02*
X184349476Y-71469914D01*
X184349476Y-71469914D02*
X184311380Y-71546104D01*
X184311380Y-71546104D02*
X184273285Y-71584200D01*
X184273285Y-71584200D02*
X184197095Y-71622295D01*
X184197095Y-71622295D02*
X184044714Y-71622295D01*
X184044714Y-71622295D02*
X183968523Y-71584200D01*
X183968523Y-71584200D02*
X183930428Y-71546104D01*
X183930428Y-71546104D02*
X183892333Y-71469914D01*
X183892333Y-71469914D02*
X183892333Y-71279438D01*
X183892333Y-71279438D02*
X183930428Y-71203247D01*
X183930428Y-71203247D02*
X183968523Y-71165152D01*
X183968523Y-71165152D02*
X184044714Y-71127057D01*
X184044714Y-71127057D02*
X184197095Y-71127057D01*
X184197095Y-71127057D02*
X184273285Y-71165152D01*
X184273285Y-71165152D02*
X184311380Y-71203247D01*
X184311380Y-71203247D02*
X184349476Y-71279438D01*
X185682809Y-73292295D02*
X185606619Y-73292295D01*
X185606619Y-73292295D02*
X185530428Y-73330390D01*
X185530428Y-73330390D02*
X185492333Y-73368485D01*
X185492333Y-73368485D02*
X185454238Y-73444676D01*
X185454238Y-73444676D02*
X185416143Y-73597057D01*
X185416143Y-73597057D02*
X185416143Y-73787533D01*
X185416143Y-73787533D02*
X185454238Y-73939914D01*
X185454238Y-73939914D02*
X185492333Y-74016104D01*
X185492333Y-74016104D02*
X185530428Y-74054200D01*
X185530428Y-74054200D02*
X185606619Y-74092295D01*
X185606619Y-74092295D02*
X185682809Y-74092295D01*
X185682809Y-74092295D02*
X185759000Y-74054200D01*
X185759000Y-74054200D02*
X185797095Y-74016104D01*
X185797095Y-74016104D02*
X185835190Y-73939914D01*
X185835190Y-73939914D02*
X185873286Y-73787533D01*
X185873286Y-73787533D02*
X185873286Y-73597057D01*
X185873286Y-73597057D02*
X185835190Y-73444676D01*
X185835190Y-73444676D02*
X185797095Y-73368485D01*
X185797095Y-73368485D02*
X185759000Y-73330390D01*
X185759000Y-73330390D02*
X185682809Y-73292295D01*
X184920904Y-73292295D02*
X184844714Y-73292295D01*
X184844714Y-73292295D02*
X184768523Y-73330390D01*
X184768523Y-73330390D02*
X184730428Y-73368485D01*
X184730428Y-73368485D02*
X184692333Y-73444676D01*
X184692333Y-73444676D02*
X184654238Y-73597057D01*
X184654238Y-73597057D02*
X184654238Y-73787533D01*
X184654238Y-73787533D02*
X184692333Y-73939914D01*
X184692333Y-73939914D02*
X184730428Y-74016104D01*
X184730428Y-74016104D02*
X184768523Y-74054200D01*
X184768523Y-74054200D02*
X184844714Y-74092295D01*
X184844714Y-74092295D02*
X184920904Y-74092295D01*
X184920904Y-74092295D02*
X184997095Y-74054200D01*
X184997095Y-74054200D02*
X185035190Y-74016104D01*
X185035190Y-74016104D02*
X185073285Y-73939914D01*
X185073285Y-73939914D02*
X185111381Y-73787533D01*
X185111381Y-73787533D02*
X185111381Y-73597057D01*
X185111381Y-73597057D02*
X185073285Y-73444676D01*
X185073285Y-73444676D02*
X185035190Y-73368485D01*
X185035190Y-73368485D02*
X184997095Y-73330390D01*
X184997095Y-73330390D02*
X184920904Y-73292295D01*
X184197095Y-73635152D02*
X184273285Y-73597057D01*
X184273285Y-73597057D02*
X184311380Y-73558961D01*
X184311380Y-73558961D02*
X184349476Y-73482771D01*
X184349476Y-73482771D02*
X184349476Y-73444676D01*
X184349476Y-73444676D02*
X184311380Y-73368485D01*
X184311380Y-73368485D02*
X184273285Y-73330390D01*
X184273285Y-73330390D02*
X184197095Y-73292295D01*
X184197095Y-73292295D02*
X184044714Y-73292295D01*
X184044714Y-73292295D02*
X183968523Y-73330390D01*
X183968523Y-73330390D02*
X183930428Y-73368485D01*
X183930428Y-73368485D02*
X183892333Y-73444676D01*
X183892333Y-73444676D02*
X183892333Y-73482771D01*
X183892333Y-73482771D02*
X183930428Y-73558961D01*
X183930428Y-73558961D02*
X183968523Y-73597057D01*
X183968523Y-73597057D02*
X184044714Y-73635152D01*
X184044714Y-73635152D02*
X184197095Y-73635152D01*
X184197095Y-73635152D02*
X184273285Y-73673247D01*
X184273285Y-73673247D02*
X184311380Y-73711342D01*
X184311380Y-73711342D02*
X184349476Y-73787533D01*
X184349476Y-73787533D02*
X184349476Y-73939914D01*
X184349476Y-73939914D02*
X184311380Y-74016104D01*
X184311380Y-74016104D02*
X184273285Y-74054200D01*
X184273285Y-74054200D02*
X184197095Y-74092295D01*
X184197095Y-74092295D02*
X184044714Y-74092295D01*
X184044714Y-74092295D02*
X183968523Y-74054200D01*
X183968523Y-74054200D02*
X183930428Y-74016104D01*
X183930428Y-74016104D02*
X183892333Y-73939914D01*
X183892333Y-73939914D02*
X183892333Y-73787533D01*
X183892333Y-73787533D02*
X183930428Y-73711342D01*
X183930428Y-73711342D02*
X183968523Y-73673247D01*
X183968523Y-73673247D02*
X184044714Y-73635152D01*
X185682809Y-80992295D02*
X185606619Y-80992295D01*
X185606619Y-80992295D02*
X185530428Y-81030390D01*
X185530428Y-81030390D02*
X185492333Y-81068485D01*
X185492333Y-81068485D02*
X185454238Y-81144676D01*
X185454238Y-81144676D02*
X185416143Y-81297057D01*
X185416143Y-81297057D02*
X185416143Y-81487533D01*
X185416143Y-81487533D02*
X185454238Y-81639914D01*
X185454238Y-81639914D02*
X185492333Y-81716104D01*
X185492333Y-81716104D02*
X185530428Y-81754200D01*
X185530428Y-81754200D02*
X185606619Y-81792295D01*
X185606619Y-81792295D02*
X185682809Y-81792295D01*
X185682809Y-81792295D02*
X185759000Y-81754200D01*
X185759000Y-81754200D02*
X185797095Y-81716104D01*
X185797095Y-81716104D02*
X185835190Y-81639914D01*
X185835190Y-81639914D02*
X185873286Y-81487533D01*
X185873286Y-81487533D02*
X185873286Y-81297057D01*
X185873286Y-81297057D02*
X185835190Y-81144676D01*
X185835190Y-81144676D02*
X185797095Y-81068485D01*
X185797095Y-81068485D02*
X185759000Y-81030390D01*
X185759000Y-81030390D02*
X185682809Y-80992295D01*
X184654238Y-81792295D02*
X185111381Y-81792295D01*
X184882809Y-81792295D02*
X184882809Y-80992295D01*
X184882809Y-80992295D02*
X184959000Y-81106580D01*
X184959000Y-81106580D02*
X185035190Y-81182771D01*
X185035190Y-81182771D02*
X185111381Y-81220866D01*
X184387571Y-80992295D02*
X183854237Y-80992295D01*
X183854237Y-80992295D02*
X184197095Y-81792295D01*
X185682809Y-83592295D02*
X185606619Y-83592295D01*
X185606619Y-83592295D02*
X185530428Y-83630390D01*
X185530428Y-83630390D02*
X185492333Y-83668485D01*
X185492333Y-83668485D02*
X185454238Y-83744676D01*
X185454238Y-83744676D02*
X185416143Y-83897057D01*
X185416143Y-83897057D02*
X185416143Y-84087533D01*
X185416143Y-84087533D02*
X185454238Y-84239914D01*
X185454238Y-84239914D02*
X185492333Y-84316104D01*
X185492333Y-84316104D02*
X185530428Y-84354200D01*
X185530428Y-84354200D02*
X185606619Y-84392295D01*
X185606619Y-84392295D02*
X185682809Y-84392295D01*
X185682809Y-84392295D02*
X185759000Y-84354200D01*
X185759000Y-84354200D02*
X185797095Y-84316104D01*
X185797095Y-84316104D02*
X185835190Y-84239914D01*
X185835190Y-84239914D02*
X185873286Y-84087533D01*
X185873286Y-84087533D02*
X185873286Y-83897057D01*
X185873286Y-83897057D02*
X185835190Y-83744676D01*
X185835190Y-83744676D02*
X185797095Y-83668485D01*
X185797095Y-83668485D02*
X185759000Y-83630390D01*
X185759000Y-83630390D02*
X185682809Y-83592295D01*
X185111381Y-83668485D02*
X185073285Y-83630390D01*
X185073285Y-83630390D02*
X184997095Y-83592295D01*
X184997095Y-83592295D02*
X184806619Y-83592295D01*
X184806619Y-83592295D02*
X184730428Y-83630390D01*
X184730428Y-83630390D02*
X184692333Y-83668485D01*
X184692333Y-83668485D02*
X184654238Y-83744676D01*
X184654238Y-83744676D02*
X184654238Y-83820866D01*
X184654238Y-83820866D02*
X184692333Y-83935152D01*
X184692333Y-83935152D02*
X185149476Y-84392295D01*
X185149476Y-84392295D02*
X184654238Y-84392295D01*
X184158999Y-83592295D02*
X184082809Y-83592295D01*
X184082809Y-83592295D02*
X184006618Y-83630390D01*
X184006618Y-83630390D02*
X183968523Y-83668485D01*
X183968523Y-83668485D02*
X183930428Y-83744676D01*
X183930428Y-83744676D02*
X183892333Y-83897057D01*
X183892333Y-83897057D02*
X183892333Y-84087533D01*
X183892333Y-84087533D02*
X183930428Y-84239914D01*
X183930428Y-84239914D02*
X183968523Y-84316104D01*
X183968523Y-84316104D02*
X184006618Y-84354200D01*
X184006618Y-84354200D02*
X184082809Y-84392295D01*
X184082809Y-84392295D02*
X184158999Y-84392295D01*
X184158999Y-84392295D02*
X184235190Y-84354200D01*
X184235190Y-84354200D02*
X184273285Y-84316104D01*
X184273285Y-84316104D02*
X184311380Y-84239914D01*
X184311380Y-84239914D02*
X184349476Y-84087533D01*
X184349476Y-84087533D02*
X184349476Y-83897057D01*
X184349476Y-83897057D02*
X184311380Y-83744676D01*
X184311380Y-83744676D02*
X184273285Y-83668485D01*
X184273285Y-83668485D02*
X184235190Y-83630390D01*
X184235190Y-83630390D02*
X184158999Y-83592295D01*
X185682809Y-86092295D02*
X185606619Y-86092295D01*
X185606619Y-86092295D02*
X185530428Y-86130390D01*
X185530428Y-86130390D02*
X185492333Y-86168485D01*
X185492333Y-86168485D02*
X185454238Y-86244676D01*
X185454238Y-86244676D02*
X185416143Y-86397057D01*
X185416143Y-86397057D02*
X185416143Y-86587533D01*
X185416143Y-86587533D02*
X185454238Y-86739914D01*
X185454238Y-86739914D02*
X185492333Y-86816104D01*
X185492333Y-86816104D02*
X185530428Y-86854200D01*
X185530428Y-86854200D02*
X185606619Y-86892295D01*
X185606619Y-86892295D02*
X185682809Y-86892295D01*
X185682809Y-86892295D02*
X185759000Y-86854200D01*
X185759000Y-86854200D02*
X185797095Y-86816104D01*
X185797095Y-86816104D02*
X185835190Y-86739914D01*
X185835190Y-86739914D02*
X185873286Y-86587533D01*
X185873286Y-86587533D02*
X185873286Y-86397057D01*
X185873286Y-86397057D02*
X185835190Y-86244676D01*
X185835190Y-86244676D02*
X185797095Y-86168485D01*
X185797095Y-86168485D02*
X185759000Y-86130390D01*
X185759000Y-86130390D02*
X185682809Y-86092295D01*
X185111381Y-86168485D02*
X185073285Y-86130390D01*
X185073285Y-86130390D02*
X184997095Y-86092295D01*
X184997095Y-86092295D02*
X184806619Y-86092295D01*
X184806619Y-86092295D02*
X184730428Y-86130390D01*
X184730428Y-86130390D02*
X184692333Y-86168485D01*
X184692333Y-86168485D02*
X184654238Y-86244676D01*
X184654238Y-86244676D02*
X184654238Y-86320866D01*
X184654238Y-86320866D02*
X184692333Y-86435152D01*
X184692333Y-86435152D02*
X185149476Y-86892295D01*
X185149476Y-86892295D02*
X184654238Y-86892295D01*
X184349476Y-86168485D02*
X184311380Y-86130390D01*
X184311380Y-86130390D02*
X184235190Y-86092295D01*
X184235190Y-86092295D02*
X184044714Y-86092295D01*
X184044714Y-86092295D02*
X183968523Y-86130390D01*
X183968523Y-86130390D02*
X183930428Y-86168485D01*
X183930428Y-86168485D02*
X183892333Y-86244676D01*
X183892333Y-86244676D02*
X183892333Y-86320866D01*
X183892333Y-86320866D02*
X183930428Y-86435152D01*
X183930428Y-86435152D02*
X184387571Y-86892295D01*
X184387571Y-86892295D02*
X183892333Y-86892295D01*
X185682809Y-88602295D02*
X185606619Y-88602295D01*
X185606619Y-88602295D02*
X185530428Y-88640390D01*
X185530428Y-88640390D02*
X185492333Y-88678485D01*
X185492333Y-88678485D02*
X185454238Y-88754676D01*
X185454238Y-88754676D02*
X185416143Y-88907057D01*
X185416143Y-88907057D02*
X185416143Y-89097533D01*
X185416143Y-89097533D02*
X185454238Y-89249914D01*
X185454238Y-89249914D02*
X185492333Y-89326104D01*
X185492333Y-89326104D02*
X185530428Y-89364200D01*
X185530428Y-89364200D02*
X185606619Y-89402295D01*
X185606619Y-89402295D02*
X185682809Y-89402295D01*
X185682809Y-89402295D02*
X185759000Y-89364200D01*
X185759000Y-89364200D02*
X185797095Y-89326104D01*
X185797095Y-89326104D02*
X185835190Y-89249914D01*
X185835190Y-89249914D02*
X185873286Y-89097533D01*
X185873286Y-89097533D02*
X185873286Y-88907057D01*
X185873286Y-88907057D02*
X185835190Y-88754676D01*
X185835190Y-88754676D02*
X185797095Y-88678485D01*
X185797095Y-88678485D02*
X185759000Y-88640390D01*
X185759000Y-88640390D02*
X185682809Y-88602295D01*
X185111381Y-88678485D02*
X185073285Y-88640390D01*
X185073285Y-88640390D02*
X184997095Y-88602295D01*
X184997095Y-88602295D02*
X184806619Y-88602295D01*
X184806619Y-88602295D02*
X184730428Y-88640390D01*
X184730428Y-88640390D02*
X184692333Y-88678485D01*
X184692333Y-88678485D02*
X184654238Y-88754676D01*
X184654238Y-88754676D02*
X184654238Y-88830866D01*
X184654238Y-88830866D02*
X184692333Y-88945152D01*
X184692333Y-88945152D02*
X185149476Y-89402295D01*
X185149476Y-89402295D02*
X184654238Y-89402295D01*
X183968523Y-88868961D02*
X183968523Y-89402295D01*
X184158999Y-88564200D02*
X184349476Y-89135628D01*
X184349476Y-89135628D02*
X183854237Y-89135628D01*
X185416143Y-91942295D02*
X185873286Y-91942295D01*
X185644714Y-91942295D02*
X185644714Y-91142295D01*
X185644714Y-91142295D02*
X185720905Y-91256580D01*
X185720905Y-91256580D02*
X185797095Y-91332771D01*
X185797095Y-91332771D02*
X185873286Y-91370866D01*
X184920904Y-91142295D02*
X184844714Y-91142295D01*
X184844714Y-91142295D02*
X184768523Y-91180390D01*
X184768523Y-91180390D02*
X184730428Y-91218485D01*
X184730428Y-91218485D02*
X184692333Y-91294676D01*
X184692333Y-91294676D02*
X184654238Y-91447057D01*
X184654238Y-91447057D02*
X184654238Y-91637533D01*
X184654238Y-91637533D02*
X184692333Y-91789914D01*
X184692333Y-91789914D02*
X184730428Y-91866104D01*
X184730428Y-91866104D02*
X184768523Y-91904200D01*
X184768523Y-91904200D02*
X184844714Y-91942295D01*
X184844714Y-91942295D02*
X184920904Y-91942295D01*
X184920904Y-91942295D02*
X184997095Y-91904200D01*
X184997095Y-91904200D02*
X185035190Y-91866104D01*
X185035190Y-91866104D02*
X185073285Y-91789914D01*
X185073285Y-91789914D02*
X185111381Y-91637533D01*
X185111381Y-91637533D02*
X185111381Y-91447057D01*
X185111381Y-91447057D02*
X185073285Y-91294676D01*
X185073285Y-91294676D02*
X185035190Y-91218485D01*
X185035190Y-91218485D02*
X184997095Y-91180390D01*
X184997095Y-91180390D02*
X184920904Y-91142295D01*
X184158999Y-91142295D02*
X184082809Y-91142295D01*
X184082809Y-91142295D02*
X184006618Y-91180390D01*
X184006618Y-91180390D02*
X183968523Y-91218485D01*
X183968523Y-91218485D02*
X183930428Y-91294676D01*
X183930428Y-91294676D02*
X183892333Y-91447057D01*
X183892333Y-91447057D02*
X183892333Y-91637533D01*
X183892333Y-91637533D02*
X183930428Y-91789914D01*
X183930428Y-91789914D02*
X183968523Y-91866104D01*
X183968523Y-91866104D02*
X184006618Y-91904200D01*
X184006618Y-91904200D02*
X184082809Y-91942295D01*
X184082809Y-91942295D02*
X184158999Y-91942295D01*
X184158999Y-91942295D02*
X184235190Y-91904200D01*
X184235190Y-91904200D02*
X184273285Y-91866104D01*
X184273285Y-91866104D02*
X184311380Y-91789914D01*
X184311380Y-91789914D02*
X184349476Y-91637533D01*
X184349476Y-91637533D02*
X184349476Y-91447057D01*
X184349476Y-91447057D02*
X184311380Y-91294676D01*
X184311380Y-91294676D02*
X184273285Y-91218485D01*
X184273285Y-91218485D02*
X184235190Y-91180390D01*
X184235190Y-91180390D02*
X184158999Y-91142295D01*
X185416143Y-97022295D02*
X185873286Y-97022295D01*
X185644714Y-97022295D02*
X185644714Y-96222295D01*
X185644714Y-96222295D02*
X185720905Y-96336580D01*
X185720905Y-96336580D02*
X185797095Y-96412771D01*
X185797095Y-96412771D02*
X185873286Y-96450866D01*
X184920904Y-96222295D02*
X184844714Y-96222295D01*
X184844714Y-96222295D02*
X184768523Y-96260390D01*
X184768523Y-96260390D02*
X184730428Y-96298485D01*
X184730428Y-96298485D02*
X184692333Y-96374676D01*
X184692333Y-96374676D02*
X184654238Y-96527057D01*
X184654238Y-96527057D02*
X184654238Y-96717533D01*
X184654238Y-96717533D02*
X184692333Y-96869914D01*
X184692333Y-96869914D02*
X184730428Y-96946104D01*
X184730428Y-96946104D02*
X184768523Y-96984200D01*
X184768523Y-96984200D02*
X184844714Y-97022295D01*
X184844714Y-97022295D02*
X184920904Y-97022295D01*
X184920904Y-97022295D02*
X184997095Y-96984200D01*
X184997095Y-96984200D02*
X185035190Y-96946104D01*
X185035190Y-96946104D02*
X185073285Y-96869914D01*
X185073285Y-96869914D02*
X185111381Y-96717533D01*
X185111381Y-96717533D02*
X185111381Y-96527057D01*
X185111381Y-96527057D02*
X185073285Y-96374676D01*
X185073285Y-96374676D02*
X185035190Y-96298485D01*
X185035190Y-96298485D02*
X184997095Y-96260390D01*
X184997095Y-96260390D02*
X184920904Y-96222295D01*
X183968523Y-96488961D02*
X183968523Y-97022295D01*
X184158999Y-96184200D02*
X184349476Y-96755628D01*
X184349476Y-96755628D02*
X183854237Y-96755628D01*
X185568523Y-75940390D02*
X185644713Y-75902295D01*
X185644713Y-75902295D02*
X185758999Y-75902295D01*
X185758999Y-75902295D02*
X185873285Y-75940390D01*
X185873285Y-75940390D02*
X185949475Y-76016580D01*
X185949475Y-76016580D02*
X185987570Y-76092771D01*
X185987570Y-76092771D02*
X186025666Y-76245152D01*
X186025666Y-76245152D02*
X186025666Y-76359438D01*
X186025666Y-76359438D02*
X185987570Y-76511819D01*
X185987570Y-76511819D02*
X185949475Y-76588009D01*
X185949475Y-76588009D02*
X185873285Y-76664200D01*
X185873285Y-76664200D02*
X185758999Y-76702295D01*
X185758999Y-76702295D02*
X185682808Y-76702295D01*
X185682808Y-76702295D02*
X185568523Y-76664200D01*
X185568523Y-76664200D02*
X185530427Y-76626104D01*
X185530427Y-76626104D02*
X185530427Y-76359438D01*
X185530427Y-76359438D02*
X185682808Y-76359438D01*
X185187570Y-76702295D02*
X185187570Y-75902295D01*
X185187570Y-75902295D02*
X184730427Y-76702295D01*
X184730427Y-76702295D02*
X184730427Y-75902295D01*
X184349475Y-76702295D02*
X184349475Y-75902295D01*
X184349475Y-75902295D02*
X184158999Y-75902295D01*
X184158999Y-75902295D02*
X184044713Y-75940390D01*
X184044713Y-75940390D02*
X183968523Y-76016580D01*
X183968523Y-76016580D02*
X183930428Y-76092771D01*
X183930428Y-76092771D02*
X183892332Y-76245152D01*
X183892332Y-76245152D02*
X183892332Y-76359438D01*
X183892332Y-76359438D02*
X183930428Y-76511819D01*
X183930428Y-76511819D02*
X183968523Y-76588009D01*
X183968523Y-76588009D02*
X184044713Y-76664200D01*
X184044713Y-76664200D02*
X184158999Y-76702295D01*
X184158999Y-76702295D02*
X184349475Y-76702295D01*
X185568523Y-78480390D02*
X185644713Y-78442295D01*
X185644713Y-78442295D02*
X185758999Y-78442295D01*
X185758999Y-78442295D02*
X185873285Y-78480390D01*
X185873285Y-78480390D02*
X185949475Y-78556580D01*
X185949475Y-78556580D02*
X185987570Y-78632771D01*
X185987570Y-78632771D02*
X186025666Y-78785152D01*
X186025666Y-78785152D02*
X186025666Y-78899438D01*
X186025666Y-78899438D02*
X185987570Y-79051819D01*
X185987570Y-79051819D02*
X185949475Y-79128009D01*
X185949475Y-79128009D02*
X185873285Y-79204200D01*
X185873285Y-79204200D02*
X185758999Y-79242295D01*
X185758999Y-79242295D02*
X185682808Y-79242295D01*
X185682808Y-79242295D02*
X185568523Y-79204200D01*
X185568523Y-79204200D02*
X185530427Y-79166104D01*
X185530427Y-79166104D02*
X185530427Y-78899438D01*
X185530427Y-78899438D02*
X185682808Y-78899438D01*
X185187570Y-79242295D02*
X185187570Y-78442295D01*
X185187570Y-78442295D02*
X184730427Y-79242295D01*
X184730427Y-79242295D02*
X184730427Y-78442295D01*
X184349475Y-79242295D02*
X184349475Y-78442295D01*
X184349475Y-78442295D02*
X184158999Y-78442295D01*
X184158999Y-78442295D02*
X184044713Y-78480390D01*
X184044713Y-78480390D02*
X183968523Y-78556580D01*
X183968523Y-78556580D02*
X183930428Y-78632771D01*
X183930428Y-78632771D02*
X183892332Y-78785152D01*
X183892332Y-78785152D02*
X183892332Y-78899438D01*
X183892332Y-78899438D02*
X183930428Y-79051819D01*
X183930428Y-79051819D02*
X183968523Y-79128009D01*
X183968523Y-79128009D02*
X184044713Y-79204200D01*
X184044713Y-79204200D02*
X184158999Y-79242295D01*
X184158999Y-79242295D02*
X184349475Y-79242295D01*
X196484190Y-73400390D02*
X196560380Y-73362295D01*
X196560380Y-73362295D02*
X196674666Y-73362295D01*
X196674666Y-73362295D02*
X196788952Y-73400390D01*
X196788952Y-73400390D02*
X196865142Y-73476580D01*
X196865142Y-73476580D02*
X196903237Y-73552771D01*
X196903237Y-73552771D02*
X196941333Y-73705152D01*
X196941333Y-73705152D02*
X196941333Y-73819438D01*
X196941333Y-73819438D02*
X196903237Y-73971819D01*
X196903237Y-73971819D02*
X196865142Y-74048009D01*
X196865142Y-74048009D02*
X196788952Y-74124200D01*
X196788952Y-74124200D02*
X196674666Y-74162295D01*
X196674666Y-74162295D02*
X196598475Y-74162295D01*
X196598475Y-74162295D02*
X196484190Y-74124200D01*
X196484190Y-74124200D02*
X196446094Y-74086104D01*
X196446094Y-74086104D02*
X196446094Y-73819438D01*
X196446094Y-73819438D02*
X196598475Y-73819438D01*
X196103237Y-74162295D02*
X196103237Y-73362295D01*
X196103237Y-73362295D02*
X195646094Y-74162295D01*
X195646094Y-74162295D02*
X195646094Y-73362295D01*
X195265142Y-74162295D02*
X195265142Y-73362295D01*
X195265142Y-73362295D02*
X195074666Y-73362295D01*
X195074666Y-73362295D02*
X194960380Y-73400390D01*
X194960380Y-73400390D02*
X194884190Y-73476580D01*
X194884190Y-73476580D02*
X194846095Y-73552771D01*
X194846095Y-73552771D02*
X194807999Y-73705152D01*
X194807999Y-73705152D02*
X194807999Y-73819438D01*
X194807999Y-73819438D02*
X194846095Y-73971819D01*
X194846095Y-73971819D02*
X194884190Y-74048009D01*
X194884190Y-74048009D02*
X194960380Y-74124200D01*
X194960380Y-74124200D02*
X195074666Y-74162295D01*
X195074666Y-74162295D02*
X195265142Y-74162295D01*
X196446095Y-71622295D02*
X196712762Y-71241342D01*
X196903238Y-71622295D02*
X196903238Y-70822295D01*
X196903238Y-70822295D02*
X196598476Y-70822295D01*
X196598476Y-70822295D02*
X196522286Y-70860390D01*
X196522286Y-70860390D02*
X196484191Y-70898485D01*
X196484191Y-70898485D02*
X196446095Y-70974676D01*
X196446095Y-70974676D02*
X196446095Y-71088961D01*
X196446095Y-71088961D02*
X196484191Y-71165152D01*
X196484191Y-71165152D02*
X196522286Y-71203247D01*
X196522286Y-71203247D02*
X196598476Y-71241342D01*
X196598476Y-71241342D02*
X196903238Y-71241342D01*
X196141334Y-71393723D02*
X195760381Y-71393723D01*
X196217524Y-71622295D02*
X195950857Y-70822295D01*
X195950857Y-70822295D02*
X195684191Y-71622295D01*
X195493715Y-70822295D02*
X195303239Y-71622295D01*
X195303239Y-71622295D02*
X195150858Y-71050866D01*
X195150858Y-71050866D02*
X194998477Y-71622295D01*
X194998477Y-71622295D02*
X194808001Y-70822295D01*
X197023857Y-78442295D02*
X196757190Y-79242295D01*
X196757190Y-79242295D02*
X196490524Y-78442295D01*
X195766714Y-79166104D02*
X195804810Y-79204200D01*
X195804810Y-79204200D02*
X195919095Y-79242295D01*
X195919095Y-79242295D02*
X195995286Y-79242295D01*
X195995286Y-79242295D02*
X196109572Y-79204200D01*
X196109572Y-79204200D02*
X196185762Y-79128009D01*
X196185762Y-79128009D02*
X196223857Y-79051819D01*
X196223857Y-79051819D02*
X196261953Y-78899438D01*
X196261953Y-78899438D02*
X196261953Y-78785152D01*
X196261953Y-78785152D02*
X196223857Y-78632771D01*
X196223857Y-78632771D02*
X196185762Y-78556580D01*
X196185762Y-78556580D02*
X196109572Y-78480390D01*
X196109572Y-78480390D02*
X195995286Y-78442295D01*
X195995286Y-78442295D02*
X195919095Y-78442295D01*
X195919095Y-78442295D02*
X195804810Y-78480390D01*
X195804810Y-78480390D02*
X195766714Y-78518485D01*
X194966714Y-79166104D02*
X195004810Y-79204200D01*
X195004810Y-79204200D02*
X195119095Y-79242295D01*
X195119095Y-79242295D02*
X195195286Y-79242295D01*
X195195286Y-79242295D02*
X195309572Y-79204200D01*
X195309572Y-79204200D02*
X195385762Y-79128009D01*
X195385762Y-79128009D02*
X195423857Y-79051819D01*
X195423857Y-79051819D02*
X195461953Y-78899438D01*
X195461953Y-78899438D02*
X195461953Y-78785152D01*
X195461953Y-78785152D02*
X195423857Y-78632771D01*
X195423857Y-78632771D02*
X195385762Y-78556580D01*
X195385762Y-78556580D02*
X195309572Y-78480390D01*
X195309572Y-78480390D02*
X195195286Y-78442295D01*
X195195286Y-78442295D02*
X195119095Y-78442295D01*
X195119095Y-78442295D02*
X195004810Y-78480390D01*
X195004810Y-78480390D02*
X194966714Y-78518485D01*
X196757190Y-80982295D02*
X196681000Y-80982295D01*
X196681000Y-80982295D02*
X196604809Y-81020390D01*
X196604809Y-81020390D02*
X196566714Y-81058485D01*
X196566714Y-81058485D02*
X196528619Y-81134676D01*
X196528619Y-81134676D02*
X196490524Y-81287057D01*
X196490524Y-81287057D02*
X196490524Y-81477533D01*
X196490524Y-81477533D02*
X196528619Y-81629914D01*
X196528619Y-81629914D02*
X196566714Y-81706104D01*
X196566714Y-81706104D02*
X196604809Y-81744200D01*
X196604809Y-81744200D02*
X196681000Y-81782295D01*
X196681000Y-81782295D02*
X196757190Y-81782295D01*
X196757190Y-81782295D02*
X196833381Y-81744200D01*
X196833381Y-81744200D02*
X196871476Y-81706104D01*
X196871476Y-81706104D02*
X196909571Y-81629914D01*
X196909571Y-81629914D02*
X196947667Y-81477533D01*
X196947667Y-81477533D02*
X196947667Y-81287057D01*
X196947667Y-81287057D02*
X196909571Y-81134676D01*
X196909571Y-81134676D02*
X196871476Y-81058485D01*
X196871476Y-81058485D02*
X196833381Y-81020390D01*
X196833381Y-81020390D02*
X196757190Y-80982295D01*
X196223857Y-80982295D02*
X195728619Y-80982295D01*
X195728619Y-80982295D02*
X195995285Y-81287057D01*
X195995285Y-81287057D02*
X195881000Y-81287057D01*
X195881000Y-81287057D02*
X195804809Y-81325152D01*
X195804809Y-81325152D02*
X195766714Y-81363247D01*
X195766714Y-81363247D02*
X195728619Y-81439438D01*
X195728619Y-81439438D02*
X195728619Y-81629914D01*
X195728619Y-81629914D02*
X195766714Y-81706104D01*
X195766714Y-81706104D02*
X195804809Y-81744200D01*
X195804809Y-81744200D02*
X195881000Y-81782295D01*
X195881000Y-81782295D02*
X196109571Y-81782295D01*
X196109571Y-81782295D02*
X196185762Y-81744200D01*
X196185762Y-81744200D02*
X196223857Y-81706104D01*
X194966714Y-81782295D02*
X195423857Y-81782295D01*
X195195285Y-81782295D02*
X195195285Y-80982295D01*
X195195285Y-80982295D02*
X195271476Y-81096580D01*
X195271476Y-81096580D02*
X195347666Y-81172771D01*
X195347666Y-81172771D02*
X195423857Y-81210866D01*
X196757190Y-83522295D02*
X196681000Y-83522295D01*
X196681000Y-83522295D02*
X196604809Y-83560390D01*
X196604809Y-83560390D02*
X196566714Y-83598485D01*
X196566714Y-83598485D02*
X196528619Y-83674676D01*
X196528619Y-83674676D02*
X196490524Y-83827057D01*
X196490524Y-83827057D02*
X196490524Y-84017533D01*
X196490524Y-84017533D02*
X196528619Y-84169914D01*
X196528619Y-84169914D02*
X196566714Y-84246104D01*
X196566714Y-84246104D02*
X196604809Y-84284200D01*
X196604809Y-84284200D02*
X196681000Y-84322295D01*
X196681000Y-84322295D02*
X196757190Y-84322295D01*
X196757190Y-84322295D02*
X196833381Y-84284200D01*
X196833381Y-84284200D02*
X196871476Y-84246104D01*
X196871476Y-84246104D02*
X196909571Y-84169914D01*
X196909571Y-84169914D02*
X196947667Y-84017533D01*
X196947667Y-84017533D02*
X196947667Y-83827057D01*
X196947667Y-83827057D02*
X196909571Y-83674676D01*
X196909571Y-83674676D02*
X196871476Y-83598485D01*
X196871476Y-83598485D02*
X196833381Y-83560390D01*
X196833381Y-83560390D02*
X196757190Y-83522295D01*
X196185762Y-83598485D02*
X196147666Y-83560390D01*
X196147666Y-83560390D02*
X196071476Y-83522295D01*
X196071476Y-83522295D02*
X195881000Y-83522295D01*
X195881000Y-83522295D02*
X195804809Y-83560390D01*
X195804809Y-83560390D02*
X195766714Y-83598485D01*
X195766714Y-83598485D02*
X195728619Y-83674676D01*
X195728619Y-83674676D02*
X195728619Y-83750866D01*
X195728619Y-83750866D02*
X195766714Y-83865152D01*
X195766714Y-83865152D02*
X196223857Y-84322295D01*
X196223857Y-84322295D02*
X195728619Y-84322295D01*
X195347666Y-84322295D02*
X195195285Y-84322295D01*
X195195285Y-84322295D02*
X195119095Y-84284200D01*
X195119095Y-84284200D02*
X195080999Y-84246104D01*
X195080999Y-84246104D02*
X195004809Y-84131819D01*
X195004809Y-84131819D02*
X194966714Y-83979438D01*
X194966714Y-83979438D02*
X194966714Y-83674676D01*
X194966714Y-83674676D02*
X195004809Y-83598485D01*
X195004809Y-83598485D02*
X195042904Y-83560390D01*
X195042904Y-83560390D02*
X195119095Y-83522295D01*
X195119095Y-83522295D02*
X195271476Y-83522295D01*
X195271476Y-83522295D02*
X195347666Y-83560390D01*
X195347666Y-83560390D02*
X195385761Y-83598485D01*
X195385761Y-83598485D02*
X195423857Y-83674676D01*
X195423857Y-83674676D02*
X195423857Y-83865152D01*
X195423857Y-83865152D02*
X195385761Y-83941342D01*
X195385761Y-83941342D02*
X195347666Y-83979438D01*
X195347666Y-83979438D02*
X195271476Y-84017533D01*
X195271476Y-84017533D02*
X195119095Y-84017533D01*
X195119095Y-84017533D02*
X195042904Y-83979438D01*
X195042904Y-83979438D02*
X195004809Y-83941342D01*
X195004809Y-83941342D02*
X194966714Y-83865152D01*
X196757190Y-86062295D02*
X196681000Y-86062295D01*
X196681000Y-86062295D02*
X196604809Y-86100390D01*
X196604809Y-86100390D02*
X196566714Y-86138485D01*
X196566714Y-86138485D02*
X196528619Y-86214676D01*
X196528619Y-86214676D02*
X196490524Y-86367057D01*
X196490524Y-86367057D02*
X196490524Y-86557533D01*
X196490524Y-86557533D02*
X196528619Y-86709914D01*
X196528619Y-86709914D02*
X196566714Y-86786104D01*
X196566714Y-86786104D02*
X196604809Y-86824200D01*
X196604809Y-86824200D02*
X196681000Y-86862295D01*
X196681000Y-86862295D02*
X196757190Y-86862295D01*
X196757190Y-86862295D02*
X196833381Y-86824200D01*
X196833381Y-86824200D02*
X196871476Y-86786104D01*
X196871476Y-86786104D02*
X196909571Y-86709914D01*
X196909571Y-86709914D02*
X196947667Y-86557533D01*
X196947667Y-86557533D02*
X196947667Y-86367057D01*
X196947667Y-86367057D02*
X196909571Y-86214676D01*
X196909571Y-86214676D02*
X196871476Y-86138485D01*
X196871476Y-86138485D02*
X196833381Y-86100390D01*
X196833381Y-86100390D02*
X196757190Y-86062295D01*
X195995285Y-86062295D02*
X195919095Y-86062295D01*
X195919095Y-86062295D02*
X195842904Y-86100390D01*
X195842904Y-86100390D02*
X195804809Y-86138485D01*
X195804809Y-86138485D02*
X195766714Y-86214676D01*
X195766714Y-86214676D02*
X195728619Y-86367057D01*
X195728619Y-86367057D02*
X195728619Y-86557533D01*
X195728619Y-86557533D02*
X195766714Y-86709914D01*
X195766714Y-86709914D02*
X195804809Y-86786104D01*
X195804809Y-86786104D02*
X195842904Y-86824200D01*
X195842904Y-86824200D02*
X195919095Y-86862295D01*
X195919095Y-86862295D02*
X195995285Y-86862295D01*
X195995285Y-86862295D02*
X196071476Y-86824200D01*
X196071476Y-86824200D02*
X196109571Y-86786104D01*
X196109571Y-86786104D02*
X196147666Y-86709914D01*
X196147666Y-86709914D02*
X196185762Y-86557533D01*
X196185762Y-86557533D02*
X196185762Y-86367057D01*
X196185762Y-86367057D02*
X196147666Y-86214676D01*
X196147666Y-86214676D02*
X196109571Y-86138485D01*
X196109571Y-86138485D02*
X196071476Y-86100390D01*
X196071476Y-86100390D02*
X195995285Y-86062295D01*
X195423857Y-86138485D02*
X195385761Y-86100390D01*
X195385761Y-86100390D02*
X195309571Y-86062295D01*
X195309571Y-86062295D02*
X195119095Y-86062295D01*
X195119095Y-86062295D02*
X195042904Y-86100390D01*
X195042904Y-86100390D02*
X195004809Y-86138485D01*
X195004809Y-86138485D02*
X194966714Y-86214676D01*
X194966714Y-86214676D02*
X194966714Y-86290866D01*
X194966714Y-86290866D02*
X195004809Y-86405152D01*
X195004809Y-86405152D02*
X195461952Y-86862295D01*
X195461952Y-86862295D02*
X194966714Y-86862295D01*
X196490524Y-89402295D02*
X196947667Y-89402295D01*
X196719095Y-89402295D02*
X196719095Y-88602295D01*
X196719095Y-88602295D02*
X196795286Y-88716580D01*
X196795286Y-88716580D02*
X196871476Y-88792771D01*
X196871476Y-88792771D02*
X196947667Y-88830866D01*
X195728619Y-89402295D02*
X196185762Y-89402295D01*
X195957190Y-89402295D02*
X195957190Y-88602295D01*
X195957190Y-88602295D02*
X196033381Y-88716580D01*
X196033381Y-88716580D02*
X196109571Y-88792771D01*
X196109571Y-88792771D02*
X196185762Y-88830866D01*
X195004809Y-88602295D02*
X195385761Y-88602295D01*
X195385761Y-88602295D02*
X195423857Y-88983247D01*
X195423857Y-88983247D02*
X195385761Y-88945152D01*
X195385761Y-88945152D02*
X195309571Y-88907057D01*
X195309571Y-88907057D02*
X195119095Y-88907057D01*
X195119095Y-88907057D02*
X195042904Y-88945152D01*
X195042904Y-88945152D02*
X195004809Y-88983247D01*
X195004809Y-88983247D02*
X194966714Y-89059438D01*
X194966714Y-89059438D02*
X194966714Y-89249914D01*
X194966714Y-89249914D02*
X195004809Y-89326104D01*
X195004809Y-89326104D02*
X195042904Y-89364200D01*
X195042904Y-89364200D02*
X195119095Y-89402295D01*
X195119095Y-89402295D02*
X195309571Y-89402295D01*
X195309571Y-89402295D02*
X195385761Y-89364200D01*
X195385761Y-89364200D02*
X195423857Y-89326104D01*
X196490524Y-91942295D02*
X196947667Y-91942295D01*
X196719095Y-91942295D02*
X196719095Y-91142295D01*
X196719095Y-91142295D02*
X196795286Y-91256580D01*
X196795286Y-91256580D02*
X196871476Y-91332771D01*
X196871476Y-91332771D02*
X196947667Y-91370866D01*
X195728619Y-91942295D02*
X196185762Y-91942295D01*
X195957190Y-91942295D02*
X195957190Y-91142295D01*
X195957190Y-91142295D02*
X196033381Y-91256580D01*
X196033381Y-91256580D02*
X196109571Y-91332771D01*
X196109571Y-91332771D02*
X196185762Y-91370866D01*
X195461952Y-91142295D02*
X194966714Y-91142295D01*
X194966714Y-91142295D02*
X195233380Y-91447057D01*
X195233380Y-91447057D02*
X195119095Y-91447057D01*
X195119095Y-91447057D02*
X195042904Y-91485152D01*
X195042904Y-91485152D02*
X195004809Y-91523247D01*
X195004809Y-91523247D02*
X194966714Y-91599438D01*
X194966714Y-91599438D02*
X194966714Y-91789914D01*
X194966714Y-91789914D02*
X195004809Y-91866104D01*
X195004809Y-91866104D02*
X195042904Y-91904200D01*
X195042904Y-91904200D02*
X195119095Y-91942295D01*
X195119095Y-91942295D02*
X195347666Y-91942295D01*
X195347666Y-91942295D02*
X195423857Y-91904200D01*
X195423857Y-91904200D02*
X195461952Y-91866104D01*
X196490524Y-94482295D02*
X196947667Y-94482295D01*
X196719095Y-94482295D02*
X196719095Y-93682295D01*
X196719095Y-93682295D02*
X196795286Y-93796580D01*
X196795286Y-93796580D02*
X196871476Y-93872771D01*
X196871476Y-93872771D02*
X196947667Y-93910866D01*
X195728619Y-94482295D02*
X196185762Y-94482295D01*
X195957190Y-94482295D02*
X195957190Y-93682295D01*
X195957190Y-93682295D02*
X196033381Y-93796580D01*
X196033381Y-93796580D02*
X196109571Y-93872771D01*
X196109571Y-93872771D02*
X196185762Y-93910866D01*
X194966714Y-94482295D02*
X195423857Y-94482295D01*
X195195285Y-94482295D02*
X195195285Y-93682295D01*
X195195285Y-93682295D02*
X195271476Y-93796580D01*
X195271476Y-93796580D02*
X195347666Y-93872771D01*
X195347666Y-93872771D02*
X195423857Y-93910866D01*
X196757190Y-96222295D02*
X196681000Y-96222295D01*
X196681000Y-96222295D02*
X196604809Y-96260390D01*
X196604809Y-96260390D02*
X196566714Y-96298485D01*
X196566714Y-96298485D02*
X196528619Y-96374676D01*
X196528619Y-96374676D02*
X196490524Y-96527057D01*
X196490524Y-96527057D02*
X196490524Y-96717533D01*
X196490524Y-96717533D02*
X196528619Y-96869914D01*
X196528619Y-96869914D02*
X196566714Y-96946104D01*
X196566714Y-96946104D02*
X196604809Y-96984200D01*
X196604809Y-96984200D02*
X196681000Y-97022295D01*
X196681000Y-97022295D02*
X196757190Y-97022295D01*
X196757190Y-97022295D02*
X196833381Y-96984200D01*
X196833381Y-96984200D02*
X196871476Y-96946104D01*
X196871476Y-96946104D02*
X196909571Y-96869914D01*
X196909571Y-96869914D02*
X196947667Y-96717533D01*
X196947667Y-96717533D02*
X196947667Y-96527057D01*
X196947667Y-96527057D02*
X196909571Y-96374676D01*
X196909571Y-96374676D02*
X196871476Y-96298485D01*
X196871476Y-96298485D02*
X196833381Y-96260390D01*
X196833381Y-96260390D02*
X196757190Y-96222295D01*
X195728619Y-97022295D02*
X196185762Y-97022295D01*
X195957190Y-97022295D02*
X195957190Y-96222295D01*
X195957190Y-96222295D02*
X196033381Y-96336580D01*
X196033381Y-96336580D02*
X196109571Y-96412771D01*
X196109571Y-96412771D02*
X196185762Y-96450866D01*
X195233380Y-96222295D02*
X195157190Y-96222295D01*
X195157190Y-96222295D02*
X195080999Y-96260390D01*
X195080999Y-96260390D02*
X195042904Y-96298485D01*
X195042904Y-96298485D02*
X195004809Y-96374676D01*
X195004809Y-96374676D02*
X194966714Y-96527057D01*
X194966714Y-96527057D02*
X194966714Y-96717533D01*
X194966714Y-96717533D02*
X195004809Y-96869914D01*
X195004809Y-96869914D02*
X195042904Y-96946104D01*
X195042904Y-96946104D02*
X195080999Y-96984200D01*
X195080999Y-96984200D02*
X195157190Y-97022295D01*
X195157190Y-97022295D02*
X195233380Y-97022295D01*
X195233380Y-97022295D02*
X195309571Y-96984200D01*
X195309571Y-96984200D02*
X195347666Y-96946104D01*
X195347666Y-96946104D02*
X195385761Y-96869914D01*
X195385761Y-96869914D02*
X195423857Y-96717533D01*
X195423857Y-96717533D02*
X195423857Y-96527057D01*
X195423857Y-96527057D02*
X195385761Y-96374676D01*
X195385761Y-96374676D02*
X195347666Y-96298485D01*
X195347666Y-96298485D02*
X195309571Y-96260390D01*
X195309571Y-96260390D02*
X195233380Y-96222295D01*
X196446094Y-76702295D02*
X196712761Y-76321342D01*
X196903237Y-76702295D02*
X196903237Y-75902295D01*
X196903237Y-75902295D02*
X196598475Y-75902295D01*
X196598475Y-75902295D02*
X196522285Y-75940390D01*
X196522285Y-75940390D02*
X196484190Y-75978485D01*
X196484190Y-75978485D02*
X196446094Y-76054676D01*
X196446094Y-76054676D02*
X196446094Y-76168961D01*
X196446094Y-76168961D02*
X196484190Y-76245152D01*
X196484190Y-76245152D02*
X196522285Y-76283247D01*
X196522285Y-76283247D02*
X196598475Y-76321342D01*
X196598475Y-76321342D02*
X196903237Y-76321342D01*
X196141333Y-76664200D02*
X196027047Y-76702295D01*
X196027047Y-76702295D02*
X195836571Y-76702295D01*
X195836571Y-76702295D02*
X195760380Y-76664200D01*
X195760380Y-76664200D02*
X195722285Y-76626104D01*
X195722285Y-76626104D02*
X195684190Y-76549914D01*
X195684190Y-76549914D02*
X195684190Y-76473723D01*
X195684190Y-76473723D02*
X195722285Y-76397533D01*
X195722285Y-76397533D02*
X195760380Y-76359438D01*
X195760380Y-76359438D02*
X195836571Y-76321342D01*
X195836571Y-76321342D02*
X195988952Y-76283247D01*
X195988952Y-76283247D02*
X196065142Y-76245152D01*
X196065142Y-76245152D02*
X196103237Y-76207057D01*
X196103237Y-76207057D02*
X196141333Y-76130866D01*
X196141333Y-76130866D02*
X196141333Y-76054676D01*
X196141333Y-76054676D02*
X196103237Y-75978485D01*
X196103237Y-75978485D02*
X196065142Y-75940390D01*
X196065142Y-75940390D02*
X195988952Y-75902295D01*
X195988952Y-75902295D02*
X195798475Y-75902295D01*
X195798475Y-75902295D02*
X195684190Y-75940390D01*
X195455618Y-75902295D02*
X194998475Y-75902295D01*
X195227047Y-76702295D02*
X195227047Y-75902295D01*
%TO.C,D27*%
D11*
X163059999Y-47440506D02*
X163060000Y-46640506D01*
X163060000Y-46640506D02*
X163660000Y-47040505D01*
X163060000Y-47040506D02*
X162560000Y-47040507D01*
X163660000Y-47040505D02*
X163059999Y-47440506D01*
X163660000Y-47040505D02*
X163659999Y-47590506D01*
X163660000Y-47040505D02*
X163660001Y-46490506D01*
X164060000Y-47040505D02*
X163660000Y-47040505D01*
%TO.C,D16*%
X125059998Y-89640506D02*
X125059999Y-90440506D01*
X125059999Y-90040506D02*
X124559999Y-90040505D01*
X125059999Y-90440506D02*
X125659999Y-90040507D01*
X125659999Y-90040507D02*
X125059998Y-89640506D01*
X125659999Y-90040507D02*
X125659998Y-89490506D01*
X125659999Y-90040507D02*
X125660000Y-90590506D01*
X126059999Y-90040507D02*
X125659999Y-90040507D01*
%TO.C,D13*%
X106059998Y-78640505D02*
X106059999Y-79440505D01*
X106059999Y-79040505D02*
X105559999Y-79040504D01*
X106059999Y-79440505D02*
X106659999Y-79040506D01*
X106659999Y-79040506D02*
X106059998Y-78640505D01*
X106659999Y-79040506D02*
X106659998Y-78490505D01*
X106659999Y-79040506D02*
X106660000Y-79590505D01*
X107059999Y-79040506D02*
X106659999Y-79040506D01*
%TO.C,D28*%
X183420068Y-132559507D02*
X184120691Y-132388841D01*
X183556876Y-132183629D02*
X183087030Y-132012619D01*
X183693684Y-131807752D02*
X183420068Y-132559507D01*
X184120691Y-132388841D02*
X183693684Y-131807752D01*
X184120691Y-132388841D02*
X183932579Y-132905672D01*
X184120691Y-132388841D02*
X184308802Y-131872010D01*
X184496568Y-132525649D02*
X184120691Y-132388841D01*
%TO.C,D5*%
X64646354Y-56485644D02*
X64646360Y-57285644D01*
X64646360Y-56885644D02*
X64146360Y-56885644D01*
X64646360Y-57285644D02*
X65246360Y-56885645D01*
X65246360Y-56885645D02*
X64646354Y-56485644D01*
X65246360Y-56885645D02*
X65246359Y-56335644D01*
X65246360Y-56885645D02*
X65246361Y-57435644D01*
X65646360Y-56885644D02*
X65246360Y-56885645D01*
%TO.C,D7*%
X83646355Y-108485645D02*
X83646361Y-109285645D01*
X83646361Y-108885645D02*
X83146361Y-108885645D01*
X83646361Y-109285645D02*
X84246361Y-108885646D01*
X84246361Y-108885646D02*
X83646355Y-108485645D01*
X84246361Y-108885646D02*
X84246360Y-108335645D01*
X84246361Y-108885646D02*
X84246362Y-109435645D01*
X84646361Y-108885645D02*
X84246361Y-108885646D01*
%TO.C,D23*%
X144059997Y-40640506D02*
X144059998Y-41440506D01*
X144059998Y-41040506D02*
X143559998Y-41040505D01*
X144059998Y-41440506D02*
X144659998Y-41040507D01*
X144659998Y-41040507D02*
X144059997Y-40640506D01*
X144659998Y-41040507D02*
X144659997Y-40490506D01*
X144659998Y-41040507D02*
X144659999Y-41590506D01*
X145059998Y-41040507D02*
X144659998Y-41040507D01*
%TO.C,D10*%
X83646355Y-51485646D02*
X83646361Y-52285646D01*
X83646361Y-51885646D02*
X83146361Y-51885646D01*
X83646361Y-52285646D02*
X84246361Y-51885647D01*
X84246361Y-51885647D02*
X83646355Y-51485646D01*
X84246361Y-51885647D02*
X84246360Y-51335646D01*
X84246361Y-51885647D02*
X84246362Y-52435646D01*
X84646361Y-51885646D02*
X84246361Y-51885647D01*
%TO.C,D17*%
X125059997Y-70640506D02*
X125059998Y-71440506D01*
X125059998Y-71040506D02*
X124559998Y-71040505D01*
X125059998Y-71440506D02*
X125659998Y-71040507D01*
X125659998Y-71040507D02*
X125059997Y-70640506D01*
X125659998Y-71040507D02*
X125659997Y-70490506D01*
X125659998Y-71040507D02*
X125659999Y-71590506D01*
X126059998Y-71040507D02*
X125659998Y-71040507D01*
%TO.C,D18*%
X125059999Y-51640507D02*
X125060000Y-52440507D01*
X125060000Y-52040507D02*
X124560000Y-52040506D01*
X125060000Y-52440507D02*
X125660000Y-52040508D01*
X125660000Y-52040508D02*
X125059999Y-51640507D01*
X125660000Y-52040508D02*
X125659999Y-51490507D01*
X125660000Y-52040508D02*
X125660001Y-52590507D01*
X126060000Y-52040508D02*
X125660000Y-52040508D01*
%TO.C,D1*%
X64546362Y-132485644D02*
X64546368Y-133285644D01*
X64546368Y-132885644D02*
X64046368Y-132885644D01*
X64546368Y-133285644D02*
X65146368Y-132885645D01*
X65146368Y-132885645D02*
X64546362Y-132485644D01*
X65146368Y-132885645D02*
X65146367Y-132335644D01*
X65146368Y-132885645D02*
X65146369Y-133435644D01*
X65546368Y-132885644D02*
X65146368Y-132885645D01*
%TO.C,D20*%
X144059997Y-97640506D02*
X144059998Y-98440506D01*
X144059998Y-98040506D02*
X143559998Y-98040505D01*
X144059998Y-98440506D02*
X144659998Y-98040507D01*
X144659998Y-98040507D02*
X144059997Y-97640506D01*
X144659998Y-98040507D02*
X144659997Y-97490506D01*
X144659998Y-98040507D02*
X144659999Y-98590506D01*
X145059998Y-98040507D02*
X144659998Y-98040507D01*
%TO.C,T1*%
D10*
X177000001Y-53699999D02*
X177000001Y-56550002D01*
X177000001Y-56550002D02*
X183600001Y-56550000D01*
X180300001Y-53699998D02*
X177000001Y-53699999D01*
X180300001Y-53699998D02*
X183600001Y-53700000D01*
X182250000Y-53700000D02*
X178350002Y-53700000D01*
X183600001Y-56550000D02*
X183600001Y-53700000D01*
%TO.C,D14*%
D11*
X106059998Y-59640506D02*
X106059999Y-60440506D01*
X106059999Y-60040506D02*
X105559999Y-60040505D01*
X106059999Y-60440506D02*
X106659999Y-60040507D01*
X106659999Y-60040507D02*
X106059998Y-59640506D01*
X106659999Y-60040507D02*
X106659998Y-59490506D01*
X106659999Y-60040507D02*
X106660000Y-60590506D01*
X107059999Y-60040507D02*
X106659999Y-60040507D01*
%TO.C,MCU1*%
D12*
X181530000Y-67450000D02*
X181530000Y-100470000D01*
X181530000Y-100470000D02*
X199310000Y-100470000D01*
X199310000Y-67450000D02*
X181530000Y-67450000D01*
X199310000Y-100470000D02*
X199310000Y-67450000D01*
%TO.C,D3*%
D11*
X64646354Y-94485646D02*
X64646360Y-95285646D01*
X64646360Y-94885646D02*
X64146360Y-94885646D01*
X64646360Y-95285646D02*
X65246360Y-94885647D01*
X65246360Y-94885647D02*
X64646354Y-94485646D01*
X65246360Y-94885647D02*
X65246359Y-94335646D01*
X65246360Y-94885647D02*
X65246361Y-95435646D01*
X65646360Y-94885646D02*
X65246360Y-94885647D01*
%TO.C,D24*%
X139059998Y-117640504D02*
X139059999Y-118440504D01*
X139059999Y-118040504D02*
X138559999Y-118040503D01*
X139059999Y-118440504D02*
X139659999Y-118040505D01*
X139659999Y-118040505D02*
X139059998Y-117640504D01*
X139659999Y-118040505D02*
X139659998Y-117490504D01*
X139659999Y-118040505D02*
X139660000Y-118590504D01*
X140059999Y-118040505D02*
X139659999Y-118040505D01*
%TO.C,D6*%
X83646356Y-127485646D02*
X83646362Y-128285646D01*
X83646362Y-127885646D02*
X83146362Y-127885646D01*
X83646362Y-128285646D02*
X84246362Y-127885647D01*
X84246362Y-127885647D02*
X83646356Y-127485646D01*
X84246362Y-127885647D02*
X84246361Y-127335646D01*
X84246362Y-127885647D02*
X84246363Y-128435646D01*
X84646362Y-127885646D02*
X84246362Y-127885647D01*
%TO.C,D24*%
X163059999Y-103640505D02*
X163060000Y-104440505D01*
X163060000Y-104040505D02*
X162560000Y-104040504D01*
X163060000Y-104440505D02*
X163660000Y-104040506D01*
X163660000Y-104040506D02*
X163059999Y-103640505D01*
X163660000Y-104040506D02*
X163659999Y-103490505D01*
X163660000Y-104040506D02*
X163660001Y-104590505D01*
X164060000Y-104040506D02*
X163660000Y-104040506D01*
%TO.C,D1*%
X64646356Y-114285645D02*
X64646362Y-113485645D01*
X64646362Y-113485645D02*
X65246362Y-113885644D01*
X64646362Y-113885645D02*
X64146362Y-113885645D01*
X65246362Y-113885644D02*
X64646356Y-114285645D01*
X65246362Y-113885644D02*
X65246361Y-114435645D01*
X65246362Y-113885644D02*
X65246363Y-113335645D01*
X65646362Y-113885645D02*
X65246362Y-113885644D01*
%TO.C,JST1*%
D10*
X176959997Y-60090505D02*
X176959998Y-60790505D01*
X176959998Y-60790505D02*
X178559998Y-60790504D01*
X176959998Y-65290504D02*
X176959998Y-65990506D01*
X176959998Y-65990506D02*
X184559998Y-65990505D01*
X178559998Y-60790504D02*
X178559998Y-65290505D01*
X178559998Y-65290505D02*
X176959998Y-65290504D01*
X179809998Y-64040505D02*
X180309998Y-64040505D01*
X180059998Y-64290505D02*
X180059996Y-63790505D01*
X184559997Y-60090506D02*
X176959997Y-60090505D01*
X184559998Y-65990505D02*
X184559997Y-60090506D01*
%TO.C,D26*%
D11*
X163059998Y-65640506D02*
X163059999Y-66440506D01*
X163059999Y-66040506D02*
X162559999Y-66040505D01*
X163059999Y-66440506D02*
X163659999Y-66040507D01*
X163659999Y-66040507D02*
X163059998Y-65640506D01*
X163659999Y-66040507D02*
X163659998Y-65490506D01*
X163659999Y-66040507D02*
X163660000Y-66590506D01*
X164059999Y-66040507D02*
X163659999Y-66040507D01*
%TO.C,D25*%
X163059999Y-84640506D02*
X163060000Y-85440506D01*
X163060000Y-85040506D02*
X162560000Y-85040505D01*
X163060000Y-85440506D02*
X163660000Y-85040507D01*
X163660000Y-85040507D02*
X163059999Y-84640506D01*
X163660000Y-85040507D02*
X163659999Y-84490506D01*
X163660000Y-85040507D02*
X163660001Y-85590506D01*
X164060000Y-85040507D02*
X163660000Y-85040507D01*
%TO.C,D8*%
X83646357Y-89485646D02*
X83646363Y-90285646D01*
X83646363Y-89885646D02*
X83146363Y-89885646D01*
X83646363Y-90285646D02*
X84246363Y-89885647D01*
X84246363Y-89885647D02*
X83646357Y-89485646D01*
X84246363Y-89885647D02*
X84246362Y-89335646D01*
X84246363Y-89885647D02*
X84246364Y-90435646D01*
X84646363Y-89885646D02*
X84246363Y-89885647D01*
%TO.C,D22*%
X144059998Y-59640506D02*
X144059999Y-60440506D01*
X144059999Y-60040506D02*
X143559999Y-60040505D01*
X144059999Y-60440506D02*
X144659999Y-60040507D01*
X144659999Y-60040507D02*
X144059998Y-59640506D01*
X144659999Y-60040507D02*
X144659998Y-59490506D01*
X144659999Y-60040507D02*
X144660000Y-60590506D01*
X145059999Y-60040507D02*
X144659999Y-60040507D01*
%TO.C,D15*%
X106059997Y-40640506D02*
X106059998Y-41440506D01*
X106059998Y-41040506D02*
X105559998Y-41040505D01*
X106059998Y-41440506D02*
X106659998Y-41040507D01*
X106659998Y-41040507D02*
X106059997Y-40640506D01*
X106659998Y-41040507D02*
X106659997Y-40490506D01*
X106659998Y-41040507D02*
X106659999Y-41590506D01*
X107059998Y-41040507D02*
X106659998Y-41040507D01*
%TO.C,D4*%
X64646356Y-76285645D02*
X64646362Y-75485645D01*
X64646362Y-75485645D02*
X65246362Y-75885644D01*
X64646362Y-75885645D02*
X64146362Y-75885645D01*
X65246362Y-75885644D02*
X64646356Y-76285645D01*
X65246362Y-75885644D02*
X65246361Y-76435645D01*
X65246362Y-75885644D02*
X65246363Y-75335645D01*
X65646362Y-75885645D02*
X65246362Y-75885644D01*
%TO.C,D28*%
X163771884Y-126105208D02*
X164467799Y-125916261D01*
X163898805Y-125725877D02*
X163424644Y-125567226D01*
X164025729Y-125346549D02*
X163771884Y-126105208D01*
X164467799Y-125916261D02*
X164025729Y-125346549D01*
X164467799Y-125916261D02*
X164293281Y-126437840D01*
X164467799Y-125916261D02*
X164642316Y-125394681D01*
X164847128Y-126043180D02*
X164467799Y-125916261D01*
%TO.C,D12*%
X106059999Y-97640507D02*
X106060000Y-98440507D01*
X106060000Y-98040507D02*
X105560000Y-98040506D01*
X106060000Y-98440507D02*
X106660000Y-98040508D01*
X106660000Y-98040508D02*
X106059999Y-97640507D01*
X106660000Y-98040508D02*
X106659999Y-97490507D01*
X106660000Y-98040508D02*
X106660001Y-98590507D01*
X107060000Y-98040508D02*
X106660000Y-98040508D01*
%TO.C,D21*%
X144059998Y-78640506D02*
X144059999Y-79440506D01*
X144059999Y-79040506D02*
X143559999Y-79040505D01*
X144059999Y-79440506D02*
X144659999Y-79040507D01*
X144659999Y-79040507D02*
X144059998Y-78640506D01*
X144659999Y-79040507D02*
X144659998Y-78490506D01*
X144659999Y-79040507D02*
X144660000Y-79590506D01*
X145059999Y-79040507D02*
X144659999Y-79040507D01*
%TO.C,D28*%
X193674055Y-112567263D02*
X194368294Y-112372249D01*
X193797661Y-112186839D02*
X193322132Y-112032330D01*
X193921268Y-111806416D02*
X193674055Y-112567263D01*
X194368294Y-112372249D02*
X193921268Y-111806416D01*
X194368294Y-112372249D02*
X194198334Y-112895330D01*
X194368294Y-112372249D02*
X194538254Y-111849168D01*
X194748718Y-112495856D02*
X194368294Y-112372249D01*
%TO.C,D11*%
X106059999Y-116640506D02*
X106060000Y-117440506D01*
X106060000Y-117040506D02*
X105560000Y-117040505D01*
X106060000Y-117440506D02*
X106660000Y-117040507D01*
X106660000Y-117040507D02*
X106059999Y-116640506D01*
X106660000Y-117040507D02*
X106659999Y-116490506D01*
X106660000Y-117040507D02*
X106660001Y-117590506D01*
X107060000Y-117040507D02*
X106660000Y-117040507D01*
%TO.C,D9*%
X83646355Y-70485644D02*
X83646361Y-71285644D01*
X83646361Y-70885644D02*
X83146361Y-70885644D01*
X83646361Y-71285644D02*
X84246361Y-70885645D01*
X84246361Y-70885645D02*
X83646355Y-70485644D01*
X84246361Y-70885645D02*
X84246360Y-70335644D01*
X84246361Y-70885645D02*
X84246362Y-71435644D01*
X84646361Y-70885644D02*
X84246361Y-70885645D01*
%TO.C,D19*%
X125059998Y-33440506D02*
X125059999Y-32640506D01*
X125059999Y-32640506D02*
X125659999Y-33040505D01*
X125059999Y-33040506D02*
X124559999Y-33040507D01*
X125659999Y-33040505D02*
X125059998Y-33440506D01*
X125659999Y-33040505D02*
X125659998Y-33590506D01*
X125659999Y-33040505D02*
X125660000Y-32490506D01*
X126059999Y-33040505D02*
X125659999Y-33040505D01*
%TD*%
D13*
%TO.C,MCU1*%
X182800000Y-68720000D03*
X182800000Y-71260000D03*
X182800000Y-73800000D03*
X182800000Y-76340000D03*
X182800000Y-78880000D03*
X182800000Y-81420000D03*
X182800000Y-83960000D03*
X182800000Y-86500000D03*
X182800000Y-89040000D03*
X182800000Y-91580000D03*
X182800000Y-94120000D03*
X182800000Y-96660000D03*
X182800000Y-99200000D03*
X198040000Y-99200000D03*
X198040000Y-96660000D03*
X198040000Y-94120000D03*
X198040000Y-91580000D03*
X198040000Y-89040000D03*
X198040000Y-86500000D03*
X198040000Y-83960000D03*
X198040000Y-81420000D03*
X198040000Y-78880000D03*
X198040000Y-76340000D03*
X198040000Y-73800000D03*
X198040000Y-71260000D03*
X198040000Y-68730000D03*
X185340000Y-96660000D03*
X190420000Y-96660000D03*
%TD*%
M02*
