%TF.GenerationSoftware,KiCad,Pcbnew,10.0.0*%
%TF.CreationDate,2026-04-15T13:23:26+03:00*%
%TF.ProjectId,my_left,6d795f6c-6566-4742-9e6b-696361645f70,v1.0.0*%
%TF.SameCoordinates,Original*%
%TF.FileFunction,Paste,Top*%
%TF.FilePolarity,Positive*%
%FSLAX46Y46*%
G04 Gerber Fmt 4.6, Leading zero omitted, Abs format (unit mm)*
G04 Created by KiCad (PCBNEW 10.0.0) date 2026-04-15 13:23:26*
%MOMM*%
%LPD*%
G01*
G04 APERTURE LIST*
G04 Aperture macros list*
%AMRotRect*
0 Rectangle, with rotation*
0 The origin of the aperture is its center*
0 $1 length*
0 $2 width*
0 $3 Rotation angle, in degrees counterclockwise*
0 Add horizontal line*
21,1,$1,$2,0,0,$3*%
G04 Aperture macros list end*
%ADD10R,0.900000X1.200000*%
%ADD11R,2.600000X2.600000*%
%ADD12RotRect,2.600000X2.600000X160.000000*%
%ADD13RotRect,0.900000X1.200000X340.000000*%
%ADD14RotRect,2.600000X2.600000X162.000000*%
%ADD15RotRect,0.900000X1.200000X341.500000*%
%ADD16RotRect,0.900000X1.200000X342.000000*%
%ADD17R,0.900000X0.900000*%
%ADD18R,0.900000X1.250000*%
G04 APERTURE END LIST*
D10*
%TO.C,D27*%
X161659999Y-47040507D03*
X164960001Y-47040505D03*
%TD*%
D11*
%TO.C,S14*%
X103034999Y-71990508D03*
X114585000Y-69790507D03*
%TD*%
%TO.C,*%
X189950000Y-61900000D03*
%TD*%
D10*
%TO.C,D16*%
X123659998Y-90040507D03*
X126960000Y-90040505D03*
%TD*%
%TO.C,D13*%
X104659998Y-79040506D03*
X107960000Y-79040504D03*
%TD*%
D12*
%TO.C,S31*%
X176639848Y-142432816D03*
X188245742Y-144315825D03*
%TD*%
D11*
%TO.C,S17*%
X122035000Y-82990507D03*
X133585001Y-80790506D03*
%TD*%
%TO.C,*%
X178850000Y-99900000D03*
%TD*%
D13*
%TO.C,D28*%
X182241306Y-131704801D03*
X185342292Y-132833467D03*
%TD*%
D10*
%TO.C,D5*%
X63246360Y-56885644D03*
X66546360Y-56885644D03*
%TD*%
%TO.C,D7*%
X82246361Y-108885645D03*
X85546361Y-108885645D03*
%TD*%
D14*
%TO.C,S30*%
X157274326Y-136157890D03*
X168938865Y-137634712D03*
%TD*%
D10*
%TO.C,D23*%
X142659997Y-41040507D03*
X145959999Y-41040505D03*
%TD*%
%TO.C,D10*%
X82246361Y-51885646D03*
X85546361Y-51885646D03*
%TD*%
%TO.C,D17*%
X123659997Y-71040507D03*
X126959999Y-71040505D03*
%TD*%
D11*
%TO.C,S2*%
X61621362Y-125835645D03*
X73171363Y-123635644D03*
%TD*%
D10*
%TO.C,D18*%
X123659999Y-52040508D03*
X126960001Y-52040506D03*
%TD*%
D11*
%TO.C,S7*%
X80621361Y-120835645D03*
X92171362Y-118635644D03*
%TD*%
%TO.C,S19*%
X122034998Y-44990508D03*
X133584999Y-42790507D03*
%TD*%
D10*
%TO.C,D1*%
X63246362Y-132885644D03*
X66546362Y-132885644D03*
%TD*%
D11*
%TO.C,*%
X190750000Y-103650000D03*
%TD*%
D10*
%TO.C,D20*%
X142659997Y-98040507D03*
X145959999Y-98040505D03*
%TD*%
%TO.C,D14*%
X104659998Y-60040507D03*
X107960000Y-60040505D03*
%TD*%
D11*
%TO.C,S23*%
X141034999Y-52990508D03*
X152585000Y-50790507D03*
%TD*%
%TO.C,S26*%
X160035000Y-77990507D03*
X171585001Y-75790506D03*
%TD*%
%TO.C,S10*%
X80621362Y-63835645D03*
X92171363Y-61635644D03*
%TD*%
D14*
%TO.C,S28*%
X187227960Y-122617188D03*
X198892499Y-124094010D03*
%TD*%
D10*
%TO.C,D3*%
X63246360Y-94885646D03*
X66546360Y-94885646D03*
%TD*%
%TO.C,D24*%
X137659998Y-118040505D03*
X140960000Y-118040503D03*
%TD*%
D11*
%TO.C,S24*%
X160034999Y-115990507D03*
X171585000Y-113790506D03*
%TD*%
%TO.C,S9*%
X80621360Y-82835645D03*
X92171361Y-80635644D03*
%TD*%
%TO.C,*%
X199924185Y-104713157D03*
%TD*%
D10*
%TO.C,D6*%
X82246362Y-127885646D03*
X85546362Y-127885646D03*
%TD*%
D11*
%TO.C,S25*%
X160034999Y-96990507D03*
X171585000Y-94790506D03*
%TD*%
D10*
%TO.C,D24*%
X161659999Y-104040506D03*
X164960001Y-104040504D03*
%TD*%
D11*
%TO.C,S29*%
X136034998Y-129990506D03*
X147584999Y-127790505D03*
%TD*%
%TO.C,S20*%
X141034999Y-109990507D03*
X152585000Y-107790506D03*
%TD*%
D10*
%TO.C,D1*%
X63246362Y-113885645D03*
X66546362Y-113885645D03*
%TD*%
D11*
%TO.C,S22*%
X141034999Y-71990507D03*
X152585000Y-69790506D03*
%TD*%
%TO.C,S11*%
X103035000Y-128990507D03*
X114585001Y-126790506D03*
%TD*%
%TO.C,*%
X195050000Y-62750000D03*
%TD*%
D10*
%TO.C,D26*%
X161659998Y-66040507D03*
X164960000Y-66040505D03*
%TD*%
D11*
%TO.C,S5*%
X61621360Y-68835644D03*
X73171361Y-66635643D03*
%TD*%
D10*
%TO.C,D25*%
X161659999Y-85040507D03*
X164960001Y-85040505D03*
%TD*%
D11*
%TO.C,S18*%
X122034999Y-63990507D03*
X133585000Y-61790506D03*
%TD*%
%TO.C,*%
X181000000Y-104950000D03*
%TD*%
D10*
%TO.C,D8*%
X82246363Y-89885646D03*
X85546363Y-89885646D03*
%TD*%
%TO.C,D22*%
X142659998Y-60040507D03*
X145960000Y-60040505D03*
%TD*%
D11*
%TO.C,S13*%
X103035000Y-90990506D03*
X114585001Y-88790505D03*
%TD*%
D10*
%TO.C,D15*%
X104659997Y-41040507D03*
X107959999Y-41040505D03*
%TD*%
%TO.C,D4*%
X63246362Y-75885645D03*
X66546362Y-75885645D03*
%TD*%
D11*
%TO.C,S12*%
X103034998Y-109990507D03*
X114584999Y-107790506D03*
%TD*%
D15*
%TO.C,D28*%
X162571151Y-125281650D03*
X165700621Y-126328756D03*
%TD*%
D11*
%TO.C,S15*%
X103034998Y-52990506D03*
X114584999Y-50790505D03*
%TD*%
%TO.C,S4*%
X61621363Y-87835645D03*
X73171364Y-85635644D03*
%TD*%
%TO.C,S6*%
X80621362Y-139835645D03*
X92171363Y-137635644D03*
%TD*%
D10*
%TO.C,D12*%
X104659999Y-98040508D03*
X107960001Y-98040506D03*
%TD*%
D11*
%TO.C,S3*%
X61621362Y-106835644D03*
X73171363Y-104635643D03*
%TD*%
D10*
%TO.C,D21*%
X142659998Y-79040507D03*
X145960000Y-79040505D03*
%TD*%
D16*
%TO.C,D28*%
X192466182Y-111754215D03*
X195604668Y-112773971D03*
%TD*%
D10*
%TO.C,D11*%
X104659999Y-117040507D03*
X107960001Y-117040505D03*
%TD*%
%TO.C,D9*%
X82246361Y-70885644D03*
X85546361Y-70885644D03*
%TD*%
D11*
%TO.C,S27*%
X160035000Y-58990507D03*
X171585001Y-56790506D03*
%TD*%
D10*
%TO.C,D19*%
X123659998Y-33040507D03*
X126960000Y-33040505D03*
%TD*%
D11*
%TO.C,S1*%
X61621362Y-144835645D03*
X73171363Y-142635644D03*
%TD*%
%TO.C,S8*%
X80621363Y-101835645D03*
X92171364Y-99635644D03*
%TD*%
%TO.C,S16*%
X122034999Y-101990507D03*
X133585000Y-99790506D03*
%TD*%
%TO.C,*%
X176800000Y-94550000D03*
%TD*%
%TO.C,S21*%
X141035000Y-90990507D03*
X152585001Y-88790506D03*
%TD*%
D17*
%TO.C,T1*%
X184010001Y-53940506D03*
X184010000Y-56140507D03*
X176610000Y-53940505D03*
X176609999Y-56140506D03*
D18*
X182560000Y-57115506D03*
X179560000Y-57115506D03*
X178060000Y-57115506D03*
%TD*%
M02*
