%TF.GenerationSoftware,KiCad,Pcbnew,10.0.0*%
%TF.CreationDate,2026-04-15T13:23:26+03:00*%
%TF.ProjectId,my_left,6d795f6c-6566-4742-9e6b-696361645f70,v1.0.0*%
%TF.SameCoordinates,Original*%
%TF.FileFunction,Paste,Bot*%
%TF.FilePolarity,Positive*%
%FSLAX46Y46*%
G04 Gerber Fmt 4.6, Leading zero omitted, Abs format (unit mm)*
G04 Created by KiCad (PCBNEW 10.0.0) date 2026-04-15 13:23:26*
%MOMM*%
%LPD*%
G01*
G04 APERTURE LIST*
G04 Aperture macros list*
%AMRotRect*
0 Rectangle, with rotation*
0 The origin of the aperture is its center*
0 $1 length*
0 $2 width*
0 $3 Rotation angle, in degrees counterclockwise*
0 Add horizontal line*
21,1,$1,$2,0,0,$3*%
G04 Aperture macros list end*
%ADD10R,0.900000X1.200000*%
%ADD11R,2.600000X2.600000*%
%ADD12RotRect,2.600000X2.600000X160.000000*%
%ADD13RotRect,0.900000X1.200000X340.000000*%
%ADD14RotRect,2.600000X2.600000X162.000000*%
%ADD15R,0.900000X0.900000*%
%ADD16R,0.900000X1.250000*%
%ADD17RotRect,0.900000X1.200000X341.500000*%
%ADD18RotRect,0.900000X1.200000X342.000000*%
G04 APERTURE END LIST*
D10*
%TO.C,D27*%
X161659999Y-47040507D03*
X164960001Y-47040505D03*
%TD*%
D11*
%TO.C,S14*%
X109584999Y-71990507D03*
X98034999Y-69790506D03*
%TD*%
D10*
%TO.C,D16*%
X123659998Y-90040507D03*
X126960000Y-90040505D03*
%TD*%
%TO.C,D13*%
X104659998Y-79040506D03*
X107960000Y-79040504D03*
%TD*%
D12*
%TO.C,S31*%
X182794835Y-144673050D03*
X172693829Y-138655393D03*
%TD*%
D11*
%TO.C,S17*%
X128585000Y-82990506D03*
X117035000Y-80790505D03*
%TD*%
D13*
%TO.C,D28*%
X182241306Y-131704801D03*
X185342292Y-132833467D03*
%TD*%
D10*
%TO.C,D5*%
X63246360Y-56885644D03*
X66546360Y-56885644D03*
%TD*%
%TO.C,D7*%
X82246361Y-108885645D03*
X85546361Y-108885645D03*
%TD*%
D11*
%TO.C,*%
X192650000Y-106000000D03*
%TD*%
D14*
%TO.C,S30*%
X163503746Y-138181951D03*
X153198881Y-132520480D03*
%TD*%
D10*
%TO.C,D23*%
X142659997Y-41040507D03*
X145959999Y-41040505D03*
%TD*%
D11*
%TO.C,*%
X174650000Y-85150000D03*
%TD*%
%TO.C,*%
X202700000Y-99750000D03*
%TD*%
D10*
%TO.C,D10*%
X82246361Y-51885646D03*
X85546361Y-51885646D03*
%TD*%
%TO.C,D17*%
X123659997Y-71040507D03*
X126959999Y-71040505D03*
%TD*%
D11*
%TO.C,S2*%
X68171362Y-125835645D03*
X56621362Y-123635645D03*
%TD*%
D10*
%TO.C,D18*%
X123659999Y-52040508D03*
X126960001Y-52040506D03*
%TD*%
D11*
%TO.C,S7*%
X87171361Y-120835645D03*
X75621361Y-118635645D03*
%TD*%
%TO.C,S19*%
X128584998Y-44990507D03*
X117034998Y-42790506D03*
%TD*%
D10*
%TO.C,D1*%
X63246362Y-132885644D03*
X66546362Y-132885644D03*
%TD*%
%TO.C,D20*%
X142659997Y-98040507D03*
X145959999Y-98040505D03*
%TD*%
D15*
%TO.C,T1*%
X176600000Y-53950000D03*
X176600001Y-56150001D03*
X184000001Y-53949999D03*
X184000002Y-56150000D03*
D16*
X178050001Y-57125000D03*
X181050001Y-57125000D03*
X182550001Y-57125000D03*
%TD*%
D10*
%TO.C,D14*%
X104659998Y-60040507D03*
X107960000Y-60040505D03*
%TD*%
D11*
%TO.C,S23*%
X147584999Y-52990507D03*
X136034999Y-50790506D03*
%TD*%
%TO.C,S26*%
X166585000Y-77990506D03*
X155035000Y-75790505D03*
%TD*%
%TO.C,S10*%
X87171362Y-63835645D03*
X75621362Y-61635645D03*
%TD*%
D14*
%TO.C,S28*%
X193457380Y-124641249D03*
X183152515Y-118979778D03*
%TD*%
D10*
%TO.C,D3*%
X63246360Y-94885646D03*
X66546360Y-94885646D03*
%TD*%
%TO.C,D24*%
X137659998Y-118040505D03*
X140960000Y-118040503D03*
%TD*%
D11*
%TO.C,S24*%
X166584999Y-115990506D03*
X155034999Y-113790505D03*
%TD*%
%TO.C,S9*%
X87171360Y-82835645D03*
X75621360Y-80635645D03*
%TD*%
D10*
%TO.C,D6*%
X82246362Y-127885646D03*
X85546362Y-127885646D03*
%TD*%
D11*
%TO.C,S25*%
X166584999Y-96990506D03*
X155034999Y-94790505D03*
%TD*%
D10*
%TO.C,D24*%
X161659999Y-104040506D03*
X164960001Y-104040504D03*
%TD*%
D11*
%TO.C,S29*%
X142584998Y-129990505D03*
X131034998Y-127790504D03*
%TD*%
%TO.C,S20*%
X147584999Y-109990506D03*
X136034999Y-107790505D03*
%TD*%
D10*
%TO.C,D1*%
X63246362Y-113885645D03*
X66546362Y-113885645D03*
%TD*%
D11*
%TO.C,S22*%
X147584999Y-71990506D03*
X136034999Y-69790505D03*
%TD*%
%TO.C,S11*%
X109585000Y-128990506D03*
X98035000Y-126790505D03*
%TD*%
D10*
%TO.C,D26*%
X161659998Y-66040507D03*
X164960000Y-66040505D03*
%TD*%
D11*
%TO.C,S5*%
X68171360Y-68835644D03*
X56621360Y-66635644D03*
%TD*%
D10*
%TO.C,D25*%
X161659999Y-85040507D03*
X164960001Y-85040505D03*
%TD*%
D11*
%TO.C,S18*%
X128584999Y-63990506D03*
X117034999Y-61790505D03*
%TD*%
%TO.C,*%
X177400000Y-80150000D03*
%TD*%
D10*
%TO.C,D8*%
X82246363Y-89885646D03*
X85546363Y-89885646D03*
%TD*%
%TO.C,D22*%
X142659998Y-60040507D03*
X145960000Y-60040505D03*
%TD*%
D11*
%TO.C,S13*%
X109585000Y-90990505D03*
X98035000Y-88790504D03*
%TD*%
D10*
%TO.C,D15*%
X104659997Y-41040507D03*
X107959999Y-41040505D03*
%TD*%
D11*
%TO.C,*%
X174700000Y-68050000D03*
%TD*%
D10*
%TO.C,D4*%
X63246362Y-75885645D03*
X66546362Y-75885645D03*
%TD*%
D11*
%TO.C,S12*%
X109584998Y-109990506D03*
X98034998Y-107790505D03*
%TD*%
D17*
%TO.C,D28*%
X162571151Y-125281650D03*
X165700621Y-126328756D03*
%TD*%
D11*
%TO.C,S15*%
X109584998Y-52990505D03*
X98034998Y-50790504D03*
%TD*%
%TO.C,S4*%
X68171363Y-87835645D03*
X56621363Y-85635645D03*
%TD*%
%TO.C,S6*%
X87171362Y-139835645D03*
X75621362Y-137635645D03*
%TD*%
D10*
%TO.C,D12*%
X104659999Y-98040508D03*
X107960001Y-98040506D03*
%TD*%
D11*
%TO.C,S3*%
X68171362Y-106835644D03*
X56621362Y-104635644D03*
%TD*%
D10*
%TO.C,D21*%
X142659998Y-79040507D03*
X145960000Y-79040505D03*
%TD*%
D18*
%TO.C,D28*%
X192466182Y-111754215D03*
X195604668Y-112773971D03*
%TD*%
D10*
%TO.C,D11*%
X104659999Y-117040507D03*
X107960001Y-117040505D03*
%TD*%
%TO.C,D9*%
X82246361Y-70885644D03*
X85546361Y-70885644D03*
%TD*%
D11*
%TO.C,S27*%
X166585000Y-58990506D03*
X155035000Y-56790505D03*
%TD*%
D10*
%TO.C,D19*%
X123659998Y-33040507D03*
X126960000Y-33040505D03*
%TD*%
D11*
%TO.C,S1*%
X68171362Y-144835645D03*
X56621362Y-142635645D03*
%TD*%
%TO.C,S8*%
X87171363Y-101835645D03*
X75621363Y-99635645D03*
%TD*%
%TO.C,S16*%
X128584999Y-101990506D03*
X117034999Y-99790505D03*
%TD*%
%TO.C,S21*%
X147585000Y-90990506D03*
X136035000Y-88790505D03*
%TD*%
M02*
