0
SECTION
2
HEADER
9
$INSUNITS
70
4
0
ENDSEC
0
SECTION
2
TABLES
0
TABLE
2
LTYPE
0
LTYPE
72
65
70
0
2
CONTINUOUS
3
______
73
0
40
0
0
LTYPE
72
65
70
0
2
DASHED
3
_ _ _ 
73
2
40
7.5
49
5
49
-2.5
0
LTYPE
72
65
70
0
2
DOTTED
3
. . . 
73
2
40
1.5
49
0.5
49
-1
0
ENDTAB
0
TABLE
2
LAYER
0
ENDTAB
0
ENDSEC
0
SECTION
2
ENTITIES
0
LINE
8
0
6
CONTINUOUS
10
50.7817613
20
121.8019405
11
33.7921172
21
122.3952319
0
LINE
8
0
6
CONTINUOUS
10
32.7578269
20
121.4307406
11
32.4960807
21
113.9353095
0
LINE
8
0
6
CONTINUOUS
10
78.799604
20
121.8241454
11
79.009001
21
127.8204904
0
LINE
8
0
6
CONTINUOUS
10
78.0445097
20
128.8547807
11
53.0597389
21
129.7272681
0
LINE
8
0
6
CONTINUOUS
10
52.0254486
20
128.7627768
11
51.8160516
21
122.7664318
0
LINE
8
0
6
CONTINUOUS
10
97.5960825
20
115.6644054
11
97.7182307
21
119.1622734
0
LINE
8
0
6
CONTINUOUS
10
96.7537394
20
120.1965637
11
79.7640953
21
120.7898551
0
LINE
8
0
6
CONTINUOUS
10
137.9444713
20
20.1592823
11
138.4257357
21
21.4815452
0
LINE
8
0
6
CONTINUOUS
10
140.0003636
20
25.8077999
11
146.1529548
21
42.7119052
0
LINE
8
0
6
CONTINUOUS
10
146.1529548
20
42.7119052
11
145.5038753
21
42.9481508
0
LINE
8
0
6
CONTINUOUS
10
145.5038753
20
42.9481508
11
146.0871504
21
42.9277824
0
LINE
8
0
6
CONTINUOUS
10
146.0871504
20
42.9277824
11
148.4952156
21
111.8857495
0
LINE
8
0
6
CONTINUOUS
10
147.5307243
20
112.9200398
11
98.5605738
21
114.6301151
0
ARC
8
0
6
CONTINUOUS
10
137.0047787
20
20.5013024
40
1
50
319.8571072
51
340.0000019
0
ARC
8
0
6
CONTINUOUS
10
147.4958248
20
111.920649
40
1
50
357.9999998
51
87.9999998
0
ARC
8
0
6
CONTINUOUS
10
98.5954733
20
115.6295059
40
1
50
177.9999998
51
267.9999998
0
ARC
8
0
6
CONTINUOUS
10
96.7188399
20
119.1971729
40
1
50
357.9999998
51
87.9999998
0
ARC
8
0
6
CONTINUOUS
10
79.7989948
20
121.7892459
40
1
50
177.9999998
51
267.9999998
0
ARC
8
0
6
CONTINUOUS
10
78.0096102
20
127.8553899
40
1
50
357.9999998
51
87.9999998
0
ARC
8
0
6
CONTINUOUS
10
53.0248394
20
128.7278773
40
1
50
87.9999998
51
177.9999998
0
ARC
8
0
6
CONTINUOUS
10
50.8166608
20
122.8013313
40
1
50
267.9999998
51
357.9999998
0
ARC
8
0
6
CONTINUOUS
10
33.7572177
20
121.3958411
40
1
50
87.9999998
51
177.9999998
0
LINE
8
0
6
CONTINUOUS
10
-12.8699326
20
3.9515613
11
115.0520933
21
-0.5155742
0
LINE
8
0
6
CONTINUOUS
10
116.0863836
20
0.4489171
11
116.1343128
21
1.8214309
0
LINE
8
0
6
CONTINUOUS
10
-11.3914591
20
74.9432095
11
-11.4089088
21
74.4435142
0
LINE
8
0
6
CONTINUOUS
10
-11.4089088
20
74.4435142
11
-13.8344239
21
4.9858516
0
LINE
8
0
6
CONTINUOUS
10
31.4617904
20
112.9708182
11
-9.0135382
21
114.3842478
0
LINE
8
0
6
CONTINUOUS
10
-10.0478285
20
113.4197565
11
-11.3914591
21
74.9432095
0
ARC
8
0
6
CONTINUOUS
10
31.4966899
20
113.970209
40
1
50
267.9999998
51
357.9999998
0
ARC
8
0
6
CONTINUOUS
10
-9.0484377
20
113.384857
40
1
50
87.9999998
51
177.9999998
0
ARC
8
0
6
CONTINUOUS
10
-12.8350331
20
4.9509521
40
1
50
177.9999998
51
267.9999998
0
ARC
8
0
6
CONTINUOUS
10
115.0869928
20
0.4838166
40
1
50
267.9999998
51
357.9999998
0
ARC
8
0
6
CONTINUOUS
10
117.1337036
20
1.7865314
40
1
50
101.0564131
51
177.9999998
0
LINE
8
0
6
CONTINUOUS
10
116.9419282
20
2.7679702
11
128.9111401
21
-2.0679052
0
LINE
8
0
6
CONTINUOUS
10
128.9111401
20
-2.0679052
11
137.7692177
21
19.8566063
0
LINE
8
0
6
CONTINUOUS
10
138.4257357
20
21.4815452
11
140.1493379
21
25.7476104
0
LINE
8
0
6
CONTINUOUS
10
140.1493379
20
25.7476104
11
140.0003636
21
25.8077999
0
ENDSEC
0
EOF